{
.appVersion = "3151";
.formatVersion = 3;
axes = (
{
name = Weight;
tag = wght;
}
);
classes = (
{
automatic = 1;
code = "A AE B C D E F G H I J K L M N O OE P Thorn Q R S Germandbls T U V W X Y Z A_V.dlig N_N.liga R_P.liga R_Y.liga Aacute Abreve Acircumflex Adieresis Agrave Amacron Aogonek Aring Atilde Cacute Ccaron Ccedilla Cdotaccent Eth Dcaron Dcroat Eacute Ecaron Ecircumflex Edieresis Edotaccent Egrave Emacron Eogonek Gbreve Gcommaaccent Gdotaccent Hbar Iacute Icircumflex Idieresis Idotaccent Igrave Imacron Iogonek Kcommaaccent Lacute Lcaron Lcommaaccent Lslash Nacute Ncaron Ncommaaccent Ntilde Eng Oacute Ocircumflex Odieresis Ograve Ohungarumlaut Omacron Oslash Otilde Racute Rcaron Rcommaaccent S.ss01 Sacute Scaron Scedilla Scommaaccent Tbar Tcaron Tcedilla Tcommaaccent Uacute Ucircumflex Udieresis Ugrave Uhungarumlaut Umacron Uogonek Uring Wacute Wcircumflex Wdieresis Wgrave Yacute Ycircumflex Ydieresis Ygrave Zacute Zcaron Zdotaccent";
name = Uppercase;
}
);
customParameters = (
{
name = glyphOrder;
value = (
dog,
at,
ampersand,
ampersand.ss01,
paragraph,
section,
apple,
hand,
magic,
periodcentered,
periodcentered.ss01,
bullet,
asterisk,
dagger,
daggerdbl,
space,
A,
A.ss01,
A.ss02,
AE,
B,
C,
C.ss01,
D,
D.ss01,
E,
E.ss01,
F,
F.ss01,
G,
G.ss01,
G.ss02,
H,
H.ss01,
H.ss02,
I,
J,
K,
K.ss01,
L,
L.ss01,
M,
M.ss01,
N,
N.ss01,
O,
OE,
OE.ss01,
P,
P.ss01,
Q,
Q.ss01,
R,
R.ss01,
S,
S.ss01,
Germandbls,
T,
T.ss01,
U,
U.ss01,
V,
W,
W.ss01,
X,
Y,
Y.ss01,
Z,
A_V.dlig,
E_N.liga,
E_T.liga,
N_N.liga,
R_P.liga,
R_Y.liga,
T_T.liga,
K_h.liga,
K_y.liga,
nbspace,
a,
a.ss01,
ae,
b,
c,
d,
e,
e.ss01,
f,
f.ss01,
f.ss02,
g,
g.ss01,
g.ss02,
g.ss03,
h,
i,
i.ss01,
j,
j.ss01,
k,
k.ss01,
l,
m,
m.ss01,
n,
o,
oe,
p,
q,
q.ss01,
r,
r.ss01,
s,
germandbls,
t,
t.ss01,
u,
u.ss01,
v,
w,
w.ss01,
x,
y,
y.ss01,
y.ss02,
z,
f_b.liga,
f_f.liga,
f_f_i.liga,
f_h.liga,
f_i.liga,
f_i.liga.ss01,
f_k.liga,
f_l.liga,
f_t.liga,
r_a.liga,
emquad,
zero,
one,
two,
three,
three.ss01,
four,
five,
six,
seven,
eight,

glyphs = (
{
color = 1;
glyphname = dog;
lastChange = "2023-08-04 17:34:22 +0000";
layers = (
{
layerId = "452AD06C-4D92-427C-8B35-838986F56274";
shapes = (
{
closed = 1;
nodes = (
(870,10,o),
(1110,151,o),
(1110,328,cs),
(1110,502,o),
(870,643,o),
(577,643,cs),
(282,643,o),
(42,502,o),
(42,328,cs),
(42,151,o),
(282,10,o),
(577,10,cs)
);
},
{
closed = 1;
nodes = (
(115,348,o),
(179,348,o),
(239,348,cs),
(301,348,o),
(349,341,o),
(358,337,c),
(346,328,o),
(278,328,o),
(234,328,cs),
(186,328,o),
(115,328,o),
(83,337,c)
);
},
{
closed = 1;
nodes = (
(124,385,o),
(186,385,o),
(246,385,cs),
(310,385,o),
(351,378,o),
(360,371,c),
(351,364,o),
(282,364,o),
(246,364,cs),
(195,364,o),
(124,362,o),
(92,371,c)
);
},
{
closed = 1;
nodes = (
(365,305,l),
(362,298,o),
(330,286,o),
(246,286,cs),
(179,286,o),
(124,286,o),
(97,305,c)
);
},
{
closed = 1;
nodes = (
(136,415,o),
(175,415,o),
(223,415,cs),
(280,415,o),
(317,408,o),
(323,403,c),
(314,394,o),
(255,394,o),
(223,394,cs),
(182,394,o),
(136,394,o),
(108,403,c)
);
},
{
closed = 1;
nodes = (
(317,268,l),
(310,264,o),
(301,259,o),
(296,252,c),
(285,250,o),
(278,252,o),
(262,252,cs),
(191,252,o),
(143,252,o),
(111,268,c)
);
},
{
closed = 1;
nodes = (
(134,435,l),
(140,447,o),
(152,456,o),
(186,456,c),
(182,449,o),
(179,440,o),
(182,435,c)
);
},
{
closed = 1;
nodes = (
(282,232,l),
(278,227,o),
(268,220,o),
(266,213,c),
(207,213,o),
(168,216,o),
(140,232,c)
);
},
{
closed = 1;
nodes = (
(175,469,l),
(186,479,o),
(195,486,o),
(248,490,c),
(234,483,o),
(230,474,o),
(223,469,c)
);
},
{
closed = 1;
nodes = (
(275,190,l),
(264,184,o),
(248,179,o),
(230,179,cs),
(214,179,o),
(191,181,o),
(182,190,c)
);
},
{
closed = 1;
nodes = (
(195,453,o),
(223,442,o),
(234,458,c),
(248,472,o),
(268,486,o),
(264,474,c),
(259,465,o),
(259,453,o),
(266,460,c),
(278,469,o),
(310,467,o),
(305,474,c),
(303,481,o),
(268,490,o),
(285,492,cs),
(298,495,o),
(346,513,o),
(330,492,cs),
(317,472,o),
(371,490,o),
(381,486,cs),
(390,483,o),
(394,479,o),
(401,472,cs),
(408,465,o),
(408,458,o),
(403,453,cs),
(392,440,o),
(371,424,o),
(365,405,c),
(360,396,o),
(355,394,o),
(346,405,cs),
(333,424,o),
(305,442,o),
(275,435,cs),
(232,426,o),
(195,433,o),
(195,447,cs)
);
},
{
closed = 1;
nodes = (
(223,511,l),
(268,529,o),
(369,531,o),
(593,531,cs),
(818,531,o),
(918,529,o),
(962,511,c),
(365,511,ls),
(358,511,o),
(346,515,o),
(333,515,cs),
(312,515,o),
(294,511,o),
(280,511,cs)
);
},
{
closed = 1;
nodes = (
(262,163,o),
(287,181,o),
(317,211,cs),
(346,241,o),
(360,250,o),
(392,245,cs),
(408,243,o),
(440,245,o),
(406,222,cs),
(392,213,o),
(362,227,o),
(330,195,cs),
(305,172,o),
(278,156,o),
(259,149,cs),
(243,142,o),
(232,154,o),
(248,158,cs)
);
},
{
closed = 1;
nodes = (
(266,117,l),
(280,124,o),
(294,138,o),
(314,138,cs),
(900,138,l),
(870,117,o),
(756,117,o),
(310,117,cs)
);
},
{
closed = 1;
nodes = (
(280,213,o),
(291,227,o),
(317,252,cs),
(365,300,o),
(374,261,o),
(436,284,cs),
(497,305,o),
(426,296,o),
(390,328,cs),
(351,362,o),
(394,428,o),
(422,442,c),
(447,458,o),
(497,437,o),
(548,440,cs),
(600,442,o),
(667,483,o),
(708,483,cs),
(779,483,o),
(822,472,o),
(854,440,cs),
(882,412,o),
(905,403,o),
(927,403,cs),
(948,403,o),
(962,421,o),
(941,447,cs),
(916,483,o),
(937,497,o),
(962,497,cs),
(989,497,o),
(1010,474,o),
(1010,447,cs),
(1010,405,o),
(973,376,o),
(925,376,cs),
(884,376,o),
(856,419,o),
(834,426,cs),
(799,437,o),
(804,424,o),
(840,403,cs),
(866,389,o),
(861,360,o),
(882,353,c),
(900,344,o),
(927,348,o),
(946,325,c),
(962,300,o),
(959,284,o),
(1007,268,cs),
(1058,254,o),
(994,243,o),
(975,252,cs),
(959,261,o),
(946,323,o),
(902,318,cs),
(861,314,o),
(824,323,o),
(786,353,cs),
(747,383,o),
(715,428,o),
(648,385,cs),
(582,339,o),
(516,259,o),
(470,252,cs),
(424,245,o),
(371,268,o),
(326,234,c),
(301,218,o),
(294,206,o),
(285,211,cs)
);
},
{
closed = 1;
nodes = (
(856,101,l),
(824,78,o),
(751,78,o),
(584,78,cs),
(422,78,o),
(349,78,o),
(317,101,c)
);
},
{
closed = 1;
nodes = (
(317,545,l),
(349,566,o),
(424,566,o),
(596,566,cs),
(760,566,o),
(840,566,o),
(870,545,c)
);
},
{
closed = 1;
nodes = (
(319,156,l),
(330,165,o),
(344,179,o),
(360,179,cs),
(985,179,l),
(969,167,o),
(934,158,o),
(680,158,cs),
(616,158,o),
(479,156,o),
(358,156,cs)
);
},
{
closed = 1;
nodes = (
(406,197,l),
(419,206,o),
(429,218,o),
(447,218,cs),
(1021,218,l),
(1005,206,o),
(969,200,o),
(715,200,cs),
(655,200,o),
(566,197,o),
(442,197,cs)
);
},
{
closed = 1;
nodes = (
(632,483,l),
(612,472,o),
(584,467,o),
(525,467,cs),
(468,467,o),
(436,474,o),
(424,483,c)
);
},
{
closed = 1;
nodes = (
(742,60,l),
(721,53,o),
(655,42,o),
(587,42,cs),
(516,42,o),
(454,53,o),
(433,60,c)
);
},
{
closed = 1;
nodes = (
(436,582,l),
(456,591,o),
(518,602,o),
(596,602,cs),
(664,602,o),
(735,591,o),
(754,582,c)
);
},
{
closed = 1;
nodes = (
(419,337,o),
(439,325,o),
(447,326,cs),
(455,328,o),
(451,343,o),
(443,352,cs),
(433,364,o),
(414,375,o),
(405,374,c),
(398,372,o),
(401,358,o),
(411,346,cs)
);
},
{
closed = 1;
nodes = (
(506,234,l),
(518,245,o),
(532,254,o),
(548,254,cs),
(941,254,l),
(914,234,o),
(875,234,o),
(545,234,cs)
);
},
{
closed = 1;
nodes = (
(550,277,l),
(564,284,o),
(575,296,o),
(596,296,cs),
(824,296,l),
(829,291,o),
(831,282,o),
(836,280,c),
(788,277,o),
(710,277,o),
(587,277,cs)
);
},
{
closed = 1;
nodes = (
(732,439,o),
(742,434,o),
(752,433,cs),
(765,432,o),
(777,435,o),
(779,440,cs),
(780,445,o),
(770,452,o),
(757,453,cs),
(747,454,o),
(735,449,o),
(734,444,cs)
);
},
{
closed = 1;
nodes = (
(603,314,l),
(619,330,o),
(635,332,o),
(680,332,cs),
(740,332,o),
(760,332,o),
(779,314,c)
);
},
{
closed = 1;
nodes = (
(644,353,l),
(648,360,o),
(667,369,o),
(689,369,cs),
(719,369,o),
(740,364,o),
(747,353,c)
);
},
{
closed = 1;
nodes = (
(918,490,l),
(914,483,o),
(911,474,o),
(911,469,c),
(852,469,o),
(829,483,o),
(799,490,c)
);
},
{
closed = 1;
nodes = (
(884,298,o),
(900,300,o),
(911,298,cs),
(918,296,o),
(927,286,o),
(930,277,cs),
(932,266,o),
(914,280,o),
(884,277,cs),
(863,273,o),
(850,298,o),
(861,298,cs)
);
},
{
closed = 1;
nodes = (
(914,453,o),
(925,442,o),
(932,435,c),
(911,440,o),
(891,428,o),
(884,435,cs),
(879,440,o),
(870,449,o),
(861,456,c)
);
},
{
closed = 1;
nodes = (
(1042,348,o),
(1069,341,o),
(1088,330,c),
(964,330,l),
(959,339,o),
(950,341,o),
(937,348,c)
);
},
{
closed = 1;
nodes = (
(973,371,o),
(982,376,o),
(991,385,c),
(1010,385,o),
(1037,385,o),
(1058,387,c),
(1044,373,o),
(1028,364,o),
(959,364,c)
);
},
{
closed = 1;
nodes = (
(1035,318,o),
(1060,314,o),
(1072,298,c),
(1053,300,o),
(1001,300,o),
(980,300,c),
(973,307,o),
(969,312,o),
(966,318,c)
);
},
{
closed = 1;
nodes = (
(1040,286,o),
(1053,282,o),
(1062,273,c),
(1035,273,l),
(1023,277,o),
(1007,282,o),
(1005,286,c)
);
},
{
closed = 1;
nodes = (
(1010,405,o),
(1017,410,o),
(1021,419,c),
(1030,419,o),
(1042,419,o),
(1053,421,c),
(1044,410,o),
(1040,401,o),
(1005,401,c)
);
}
);
userData = {
com.hugojourdan.ColorFlow = {
"0" = 0;
"1" = 0;
"10" = 0;
"11" = 0;
"2" = 0;
"3" = 0;
"4" = 0;
"5" = 0;
"6" = 0;
"7" = 0;
"8" = 0;
"9" = 0;
};
};
width = 1152;
},
{
layerId = m004;
shapes = (
{
closed = 1;
nodes = (
(870,10,o),
(1110,151,o),
(1110,328,cs),
(1110,502,o),
(870,643,o),
(577,643,cs),
(282,643,o),
(42,502,o),
(42,328,cs),
(42,151,o),
(282,10,o),
(577,10,cs)
);
},
{
closed = 1;
nodes = (
(115,348,o),
(179,348,o),
(239,348,cs),
(301,348,o),
(349,341,o),
(358,337,c),
(346,328,o),
(278,328,o),
(234,328,cs),
(186,328,o),
(115,328,o),
(83,337,c)
);
},
{
closed = 1;
nodes = (
(124,385,o),
(186,385,o),
(246,385,cs),
(310,385,o),
(351,378,o),
(360,371,c),
(351,364,o),
(282,364,o),
(246,364,cs),
(195,364,o),
(124,362,o),
(92,371,c)
);
},
{
closed = 1;
nodes = (
(365,305,l),
(362,298,o),
(330,286,o),
(246,286,cs),
(179,286,o),
(124,286,o),
(97,305,c)
);
},
{
closed = 1;
nodes = (
(136,415,o),
(175,415,o),
(223,415,cs),
(280,415,o),
(317,408,o),
(323,403,c),
(314,394,o),
(255,394,o),
(223,394,cs),
(182,394,o),
(136,394,o),
(108,403,c)
);
},
{
closed = 1;
nodes = (
(317,268,l),
(310,264,o),
(301,259,o),
(296,252,c),
(285,250,o),
(278,252,o),
(262,252,cs),
(191,252,o),
(143,252,o),
(111,268,c)
);
},
{
closed = 1;
nodes = (
(134,435,l),
(140,447,o),
(152,456,o),
(186,456,c),
(182,449,o),
(179,440,o),
(182,435,c)
);
},
{
closed = 1;
nodes = (
(282,232,l),
(278,227,o),
(268,220,o),
(266,213,c),
(207,213,o),
(168,216,o),
(140,232,c)
);
},
{
closed = 1;
nodes = (
(175,469,l),
(186,479,o),
(195,486,o),
(248,490,c),
(234,483,o),
(230,474,o),
(223,469,c)
);
},
{
closed = 1;
nodes = (
(275,190,l),
(264,184,o),
(248,179,o),
(230,179,cs),
(214,179,o),
(191,181,o),
(182,190,c)
);
},
{
closed = 1;
nodes = (
(195,453,o),
(223,442,o),
(234,458,c),
(248,472,o),
(268,486,o),
(264,474,c),
(259,465,o),
(259,453,o),
(266,460,c),
(278,469,o),
(310,467,o),
(305,474,c),
(303,481,o),
(268,490,o),
(285,492,cs),
(298,495,o),
(346,513,o),
(330,492,cs),
(317,472,o),
(371,490,o),
(381,486,cs),
(390,483,o),
(394,479,o),
(401,472,cs),
(408,465,o),
(408,458,o),
(403,453,cs),
(392,440,o),
(371,424,o),
(365,405,c),
(360,396,o),
(355,394,o),
(346,405,cs),
(333,424,o),
(305,442,o),
(275,435,cs),
(232,426,o),
(195,433,o),
(195,447,cs)
);
},
{
closed = 1;
nodes = (
(223,511,l),
(268,529,o),
(369,531,o),
(593,531,cs),
(818,531,o),
(918,529,o),
(962,511,c),
(365,511,ls),
(358,511,o),
(346,515,o),
(333,515,cs),
(312,515,o),
(294,511,o),
(280,511,cs)
);
},
{
closed = 1;
nodes = (
(262,163,o),
(287,181,o),
(317,211,cs),
(346,241,o),
(360,250,o),
(392,245,cs),
(408,243,o),
(440,245,o),
(406,222,cs),
(392,213,o),
(362,227,o),
(330,195,cs),
(305,172,o),
(278,156,o),
(259,149,cs),
(243,142,o),
(232,154,o),
(248,158,cs)
);
},
{
closed = 1;
nodes = (
(266,117,l),
(280,124,o),
(294,138,o),
(314,138,cs),
(900,138,l),
(870,117,o),
(756,117,o),
(310,117,cs)
);
},
{
closed = 1;
nodes = (
(280,213,o),
(291,227,o),
(317,252,cs),
(365,300,o),
(374,261,o),
(436,284,cs),
(497,305,o),
(426,296,o),
(390,328,cs),
(351,362,o),
(394,428,o),
(422,442,c),
(447,458,o),
(497,437,o),
(548,440,cs),
(600,442,o),
(667,483,o),
(708,483,cs),
(779,483,o),
(822,472,o),
(854,440,cs),
(882,412,o),
(905,403,o),
(927,403,cs),
(948,403,o),
(962,421,o),
(941,447,cs),
(916,483,o),
(937,497,o),
(962,497,cs),
(989,497,o),
(1010,474,o),
(1010,447,cs),
(1010,405,o),
(973,376,o),
(925,376,cs),
(884,376,o),
(856,419,o),
(834,426,cs),
(799,437,o),
(804,424,o),
(840,403,cs),
(866,389,o),
(861,360,o),
(882,353,c),
(900,344,o),
(927,348,o),
(946,325,c),
(962,300,o),
(959,284,o),
(1007,268,cs),
(1058,254,o),
(994,243,o),
(975,252,cs),
(959,261,o),
(946,323,o),
(902,318,cs),
(861,314,o),
(824,323,o),
(786,353,cs),
(747,383,o),
(715,428,o),
(648,385,cs),
(582,339,o),
(516,259,o),
(470,252,cs),
(424,245,o),
(371,268,o),
(326,234,c),
(301,218,o),
(294,206,o),
(285,211,cs)
);
},
{
closed = 1;
nodes = (
(856,101,l),
(824,78,o),
(751,78,o),
(584,78,cs),
(422,78,o),
(349,78,o),
(317,101,c)
);
},
{
closed = 1;
nodes = (
(317,545,l),
(349,566,o),
(424,566,o),
(596,566,cs),
(760,566,o),
(840,566,o),
(870,545,c)
);
},
{
closed = 1;
nodes = (
(319,156,l),
(330,165,o),
(344,179,o),
(360,179,cs),
(985,179,l),
(969,167,o),
(934,158,o),
(680,158,cs),
(616,158,o),
(479,156,o),
(358,156,cs)
);
},
{
closed = 1;
nodes = (
(406,197,l),
(419,206,o),
(429,218,o),
(447,218,cs),
(1021,218,l),
(1005,206,o),
(969,200,o),
(715,200,cs),
(655,200,o),
(566,197,o),
(442,197,cs)
);
},
{
closed = 1;
nodes = (
(632,483,l),
(612,472,o),
(584,467,o),
(525,467,cs),
(468,467,o),
(436,474,o),
(424,483,c)
);
},
{
closed = 1;
nodes = (
(742,60,l),
(721,53,o),
(655,42,o),
(587,42,cs),
(516,42,o),
(454,53,o),
(433,60,c)
);
},
{
closed = 1;
nodes = (
(436,582,l),
(456,591,o),
(518,602,o),
(596,602,cs),
(664,602,o),
(735,591,o),
(754,582,c)
);
},
{
closed = 1;
nodes = (
(488,355,o),
(497,341,o),
(506,341,cs),
(516,341,o),
(525,355,o),
(525,364,cs),
(525,376,o),
(516,389,o),
(506,389,cs),
(497,389,o),
(488,376,o),
(488,364,cs)
);
},
{
closed = 1;
nodes = (
(506,234,l),
(518,245,o),
(532,254,o),
(548,254,cs),
(941,254,l),
(914,234,o),
(875,234,o),
(545,234,cs)
);
},
{
closed = 1;
nodes = (
(550,277,l),
(564,284,o),
(575,296,o),
(596,296,cs),
(824,296,l),
(829,291,o),
(831,282,o),
(836,280,c),
(788,277,o),
(710,277,o),
(587,277,cs)
);
},
{
closed = 1;
nodes = (
(582,405,o),
(593,401,o),
(603,401,cs),
(616,401,o),
(628,405,o),
(628,410,cs),
(628,415,o),
(616,421,o),
(603,421,cs),
(593,421,o),
(582,415,o),
(582,410,cs)
);
},
{
closed = 1;
nodes = (
(603,314,l),
(619,330,o),
(635,332,o),
(680,332,cs),
(740,332,o),
(760,332,o),
(779,314,c)
);
},
{
closed = 1;
nodes = (
(644,353,l),
(648,360,o),
(667,369,o),
(689,369,cs),
(719,369,o),
(740,364,o),
(747,353,c)
);
},
{
closed = 1;
nodes = (
(918,490,l),
(914,483,o),
(911,474,o),
(911,469,c),
(852,469,o),
(829,483,o),
(799,490,c)
);
},
{
closed = 1;
nodes = (
(884,298,o),
(900,300,o),
(911,298,cs),
(918,296,o),
(927,286,o),
(930,277,cs),
(932,266,o),
(914,280,o),
(884,277,cs),
(863,273,o),
(850,298,o),
(861,298,cs)
);
},
{
closed = 1;
nodes = (
(914,453,o),
(925,442,o),
(932,435,c),
(911,440,o),
(891,428,o),
(884,435,cs),
(879,440,o),
(870,449,o),
(861,456,c)
);
},
{
closed = 1;
nodes = (
(1042,348,o),
(1069,341,o),
(1088,330,c),
(964,330,l),
(959,339,o),
(950,341,o),
(937,348,c)
);
},
{
closed = 1;
nodes = (
(973,371,o),
(982,376,o),
(991,385,c),
(1010,385,o),
(1037,385,o),
(1058,387,c),
(1044,373,o),
(1028,364,o),
(959,364,c)
);
},
{
closed = 1;
nodes = (
(1035,318,o),
(1060,314,o),
(1072,298,c),
(1053,300,o),
(1001,300,o),
(980,300,c),
(973,307,o),
(969,312,o),
(966,318,c)
);
},
{
closed = 1;
nodes = (
(1040,286,o),
(1053,282,o),
(1062,273,c),
(1035,273,l),
(1023,277,o),
(1007,282,o),
(1005,286,c)
);
},
{
closed = 1;
nodes = (
(1010,405,o),
(1017,410,o),
(1021,419,c),
(1030,419,o),
(1042,419,o),
(1053,421,c),
(1044,410,o),
(1040,401,o),
(1005,401,c)
);
}
);
userData = {
com.hugojourdan.ColorFlow = {
"0" = 0;
"1" = 0;
"10" = 0;
"11" = 0;
"2" = 0;
"3" = 0;
"4" = 0;
"5" = 0;
"6" = 0;
"7" = 0;
"8" = 0;
"9" = 0;
};
};
width = 1152;
},
{
layerId = "D54810B1-F9A5-4F35-A1FF-AED0599B2373";
shapes = (
{
closed = 1;
nodes = (
(870,10,o),
(1110,151,o),
(1110,328,cs),
(1110,502,o),
(870,643,o),
(577,643,cs),
(282,643,o),
(42,502,o),
(42,328,cs),
(42,151,o),
(282,10,o),
(577,10,cs)
);
},
{
closed = 1;
nodes = (
(115,348,o),
(179,348,o),
(239,348,cs),
(301,348,o),
(349,341,o),
(358,337,c),
(346,328,o),
(278,328,o),
(234,328,cs),
(186,328,o),
(115,328,o),
(83,337,c)
);
},
{
closed = 1;
nodes = (
(124,385,o),
(186,385,o),
(246,385,cs),
(310,385,o),
(351,378,o),
(360,371,c),
(351,364,o),
(282,364,o),
(246,364,cs),
(195,364,o),
(124,362,o),
(92,371,c)
);
},
{
closed = 1;
nodes = (
(365,305,l),
(362,298,o),
(330,286,o),
(246,286,cs),
(179,286,o),
(124,286,o),
(97,305,c)
);
},
{
closed = 1;
nodes = (
(136,415,o),
(175,415,o),
(223,415,cs),
(280,415,o),
(317,408,o),
(323,403,c),
(314,394,o),
(255,394,o),
(223,394,cs),
(182,394,o),
(136,394,o),
(108,403,c)
);
},
{
closed = 1;
nodes = (
(317,268,l),
(310,264,o),
(301,259,o),
(296,252,c),
(285,250,o),
(278,252,o),
(262,252,cs),
(191,252,o),
(143,252,o),
(111,268,c)
);
},
{
closed = 1;
nodes = (
(134,435,l),
(140,447,o),
(152,456,o),
(186,456,c),
(182,449,o),
(179,440,o),
(182,435,c)
);
},
{
closed = 1;
nodes = (
(282,232,l),
(278,227,o),
(268,220,o),
(266,213,c),
(207,213,o),
(168,216,o),
(140,232,c)
);
},
{
closed = 1;
nodes = (
(175,469,l),
(186,479,o),
(195,486,o),
(248,490,c),
(234,483,o),
(230,474,o),
(223,469,c)
);
},
{
closed = 1;
nodes = (
(275,190,l),
(264,184,o),
(248,179,o),
(230,179,cs),
(214,179,o),
(191,181,o),
(182,190,c)
);
},
{
closed = 1;
nodes = (
(195,453,o),
(223,442,o),
(234,458,c),
(248,472,o),
(268,486,o),
(264,474,c),
(259,465,o),
(259,453,o),
(266,460,c),
(278,469,o),
(310,467,o),
(305,474,c),
(303,481,o),
(268,490,o),
(285,492,cs),
(298,495,o),
(346,513,o),
(330,492,cs),
(317,472,o),
(371,490,o),
(381,486,cs),
(390,483,o),
(394,479,o),
(401,472,cs),
(408,465,o),
(408,458,o),
(403,453,cs),
(392,440,o),
(371,424,o),
(365,405,c),
(360,396,o),
(355,394,o),
(346,405,cs),
(333,424,o),
(305,442,o),
(275,435,cs),
(232,426,o),
(195,433,o),
(195,447,cs)
);
},
{
closed = 1;
nodes = (
(223,511,l),
(268,529,o),
(369,531,o),
(593,531,cs),
(818,531,o),
(918,529,o),
(962,511,c),
(365,511,ls),
(358,511,o),
(346,515,o),
(333,515,cs),
(312,515,o),
(294,511,o),
(280,511,cs)
);
},
{
closed = 1;
nodes = (
(262,163,o),
(287,181,o),
(317,211,cs),
(346,241,o),
(360,250,o),
(392,245,cs),
(408,243,o),
(440,245,o),
(406,222,cs),
(392,213,o),
(362,227,o),
(330,195,cs),
(305,172,o),
(278,156,o),
(259,149,cs),
(243,142,o),
(232,154,o),
(248,158,cs)
);
},
{
closed = 1;
nodes = (
(266,117,l),
(280,124,o),
(294,138,o),
(314,138,cs),
(900,138,l),
(870,117,o),
(756,117,o),
(310,117,cs)
);
},
{
closed = 1;
nodes = (
(280,213,o),
(291,227,o),
(317,252,cs),
(365,300,o),
(374,261,o),
(436,284,cs),
(497,305,o),
(426,296,o),
(390,328,cs),
(351,362,o),
(394,428,o),
(422,442,c),
(447,458,o),
(497,437,o),
(548,440,cs),
(600,442,o),
(667,483,o),
(708,483,cs),
(779,483,o),
(822,472,o),
(854,440,cs),
(882,412,o),
(905,403,o),
(927,403,cs),
(948,403,o),
(962,421,o),
(941,447,cs),
(916,483,o),
(937,497,o),
(962,497,cs),
(989,497,o),
(1010,474,o),
(1010,447,cs),
(1010,405,o),
(973,376,o),
(925,376,cs),
(884,376,o),
(856,419,o),
(834,426,cs),
(799,437,o),
(804,424,o),
(840,403,cs),
(866,389,o),
(861,360,o),
(882,353,c),
(900,344,o),
(927,348,o),
(946,325,c),
(962,300,o),
(959,284,o),
(1007,268,cs),
(1058,254,o),
(994,243,o),
(975,252,cs),
(959,261,o),
(946,323,o),
(902,318,cs),
(861,314,o),
(824,323,o),
(786,353,cs),
(747,383,o),
(715,428,o),
(648,385,cs),
(582,339,o),
(516,259,o),
(470,252,cs),
(424,245,o),
(371,268,o),
(326,234,c),
(301,218,o),
(294,206,o),
(285,211,cs)
);
},
{
closed = 1;
nodes = (
(856,101,l),
(824,78,o),
(751,78,o),
(584,78,cs),
(422,78,o),
(349,78,o),
(317,101,c)
);
},
{
closed = 1;
nodes = (
(317,545,l),
(349,566,o),
(424,566,o),
(596,566,cs),
(760,566,o),
(840,566,o),
(870,545,c)
);
},
{
closed = 1;
nodes = (
(319,156,l),
(330,165,o),
(344,179,o),
(360,179,cs),
(985,179,l),
(969,167,o),
(934,158,o),
(680,158,cs),
(616,158,o),
(479,156,o),
(358,156,cs)
);
},
{
closed = 1;
nodes = (
(406,197,l),
(419,206,o),
(429,218,o),
(447,218,cs),
(1021,218,l),
(1005,206,o),
(969,200,o),
(715,200,cs),
(655,200,o),
(566,197,o),
(442,197,cs)
);
},
{
closed = 1;
nodes = (
(632,483,l),
(612,472,o),
(584,467,o),
(525,467,cs),
(468,467,o),
(436,474,o),
(424,483,c)
);
},
{
closed = 1;
nodes = (
(742,60,l),
(721,53,o),
(655,42,o),
(587,42,cs),
(516,42,o),
(454,53,o),
(433,60,c)
);
},
{
closed = 1;
nodes = (
(436,582,l),
(456,591,o),
(518,602,o),
(596,602,cs),
(664,602,o),
(735,591,o),
(754,582,c)
);
},
{
closed = 1;
nodes = (
(464,341,o),
(481,331,o),
(488,334,cs),
(496,338,o),
(494,354,o),
(488,362,cs),
(480,374,o),
(464,383,o),
(456,379,cs),
(449,376,o),
(450,361,o),
(458,350,cs)
);
},
{
closed = 1;
nodes = (
(506,234,l),
(518,245,o),
(532,254,o),
(548,254,cs),
(941,254,l),
(914,234,o),
(875,234,o),
(545,234,cs)
);
},
{
closed = 1;
nodes = (
(550,277,l),
(564,284,o),
(575,296,o),
(596,296,cs),
(824,296,l),
(829,291,o),
(831,282,o),
(836,280,c),
(788,277,o),
(710,277,o),
(587,277,cs)
);
},
{
closed = 1;
nodes = (
(646,432,o),
(657,428,o),
(667,428,cs),
(680,428,o),
(692,432,o),
(692,437,cs),
(692,442,o),
(680,448,o),
(667,448,cs),
(657,448,o),
(646,442,o),
(646,437,cs)
);
},
{
closed = 1;
nodes = (
(603,314,l),
(619,330,o),
(635,332,o),
(680,332,cs),
(740,332,o),
(760,332,o),
(779,314,c)
);
},
{
closed = 1;
nodes = (
(644,353,l),
(648,360,o),
(667,369,o),
(689,369,cs),
(719,369,o),
(740,364,o),
(747,353,c)
);
},
{
closed = 1;
nodes = (
(918,490,l),
(914,483,o),
(911,474,o),
(911,469,c),
(852,469,o),
(829,483,o),
(799,490,c)
);
},
{
closed = 1;
nodes = (
(884,298,o),
(900,300,o),
(911,298,cs),
(918,296,o),
(927,286,o),
(930,277,cs),
(932,266,o),
(914,280,o),
(884,277,cs),
(863,273,o),
(850,298,o),
(861,298,cs)
);
},
{
closed = 1;
nodes = (
(914,453,o),
(925,442,o),
(932,435,c),
(911,440,o),
(891,428,o),
(884,435,cs),
(879,440,o),
(870,449,o),
(861,456,c)
);
},
{
closed = 1;
nodes = (
(1042,348,o),
(1069,341,o),
(1088,330,c),
(964,330,l),
(959,339,o),
(950,341,o),
(937,348,c)
);
},
{
closed = 1;
nodes = (
(973,371,o),
(982,376,o),
(991,385,c),
(1010,385,o),
(1037,385,o),
(1058,387,c),
(1044,373,o),
(1028,364,o),
(959,364,c)
);
},
{
closed = 1;
nodes = (
(1035,318,o),
(1060,314,o),
(1072,298,c),
(1053,300,o),
(1001,300,o),
(980,300,c),
(973,307,o),
(969,312,o),
(966,318,c)
);
},
{
closed = 1;
nodes = (
(1040,286,o),
(1053,282,o),
(1062,273,c),
(1035,273,l),
(1023,277,o),
(1007,282,o),
(1005,286,c)
);
},
{
closed = 1;
nodes = (
(1010,405,o),
(1017,410,o),
(1021,419,c),
(1030,419,o),
(1042,419,o),
(1053,421,c),
(1044,410,o),
(1040,401,o),
(1005,401,c)
);
}
);
userData = {
com.hugojourdan.ColorFlow = {
"0" = 0;
"1" = 0;
"10" = 0;
"11" = 0;
"2" = 0;
"3" = 0;
"4" = 0;
"5" = 0;
"6" = 0;
"7" = 0;
"8" = 0;
"9" = 0;
};
};
width = 1152;
}
);
note = at;
unicode = 128021;
},
{
glyphname = at;
kernLeft = O;
kernRight = O;
lastChange = "2023-08-04 17:34:22 +0000";
layers = (
{
layerId = "452AD06C-4D92-427C-8B35-838986F56274";
shapes = (
{
closed = 1;
nodes = (
(492,-210,o),
(657,-128,o),
(794,27,c),
(784,37,l),
(669,-90,o),
(513,-143,o),
(384,-143,cs),
(215,-143,o),
(85,-43,o),
(85,178,cs),
(85,390,o),
(321,621,o),
(526,621,cs),
(715,621,o),
(780,468,o),
(774,338,cs),
(767,184,o),
(672,79,o),
(580,71,cs),
(535,67,o),
(516,106,o),
(520,173,cs),
(526,279,o),
(560,411,o),
(599,454,c),
(603,474,o),
(588,497,o),
(577,505,c),
(403,494,o),
(215,348,o),
(215,170,cs),
(215,121,o),
(234,51,o),
(310,-4,c),
(353,28,o),
(418,100,o),
(453,144,c),
(458,143,l),
(453,90,o),
(465,35,o),
(504,-7,c),
(580,12,o),
(791,100,o),
(811,364,cs),
(824,539,o),
(730,679,o),
(568,689,cs),
(418,698,o),
(42,445,o),
(35,136,cs),
(30,-99,o),
(174,-210,o),
(345,-210,cs)
);
},
{
closed = 1;
nodes = (
(285,126,o),
(262,181,o),
(262,230,cs),
(262,330,o),
(372,415,o),
(498,437,c),
(502,434,l),
(479,298,o),
(466,150,o),
(349,69,c)
);
}
);
userData = {
com.hugojourdan.ColorFlow = {
"0" = 0;
"1" = 0;
"10" = 0;
"11" = 0;
"2" = 0;
"3" = 0;
"4" = 0;
"5" = 0;
"6" = 0;
"7" = 0;
"8" = 0;
"9" = 0;
};
};
width = 851;
},
{
layerId = m004;
shapes = (
{
closed = 1;
nodes = (
(434,-265,o),
(764,-41,o),
(871,187,c),
(856,195,l),
(739,13,o),
(560,-85,o),
(411,-85,cs),
(256,-85,o),
(156,32,o),
(156,176,cs),
(156,448,o),
(513,646,o),
(656,652,cs),
(727,655,o),
(773,576,o),
(772,478,cs),
(771,344,o),
(705,181,o),
(644,165,cs),
(610,156,o),
(597,231,o),
(610,327,cs),
(621,414,o),
(630,454,o),
(654,519,c),
(652,532,o),
(636,562,o),
(622,567,c),
(399,495,o),
(243,339,o),
(243,196,cs),
(243,128,o),
(280,63,o),
(360,12,c),
(418,59,o),
(483,148,o),
(534,250,c),
(540,249,l),
(528,193,o),
(499,100,o),
(529,26,c),
(690,56,o),
(938,390,o),
(938,615,cs),
(938,689,o),
(906,764,o),
(849,782,cs),
(755,811,o),
(56,568,o),
(43,45,cs),
(38,-132,o),
(155,-265,o),
(269,-265,cs)
);
},
{
closed = 1;
nodes = (
(370,224,o),
(353,257,o),
(353,300,cs),
(353,367,o),
(417,442,o),
(536,480,c),
(541,476,l),
(529,347,o),
(487,274,o),
(415,200,c)
);
}
);
userData = {
com.hugojourdan.ColorFlow = {
"0" = 0;
"1" = 0;
"10" = 0;
"11" = 0;
"2" = 0;
"3" = 0;
"4" = 0;
"5" = 0;
"6" = 0;
"7" = 0;
"8" = 0;
"9" = 0;
};
};
width = 965;
},
{
layerId = "D54810B1-F9A5-4F35-A1FF-AED0599B2373";
shapes = (
{
closed = 1;
nodes = (
(460,-240,o),
(716,-80,o),
(836,115,c),
(823,123,l),
(707,-34,o),
(539,-111,o),
(399,-111,cs),
(237,-111,o),
(124,-2,o),
(124,177,cs),
(124,422,o),
(426,635,o),
(597,638,cs),
(722,640,o),
(776,527,o),
(773,415,cs),
(769,272,o),
(690,138,o),
(615,122,cs),
(581,115,o),
(561,174,o),
(569,257,cs),
(577,348,o),
(601,435,o),
(635,493,c),
(636,509,o),
(621,536,o),
(608,543,c),
(404,495,o),
(232,344,o),
(232,185,cs),
(232,126,o),
(261,58,o),
(339,6,c),
(390,46,o),
(454,126,o),
(497,202,c),
(502,201,l),
(490,151,o),
(484,71,o),
(518,11,c),
(640,36,o),
(871,259,o),
(880,501,cs),
(886,621,o),
(826,725,o),
(722,740,cs),
(602,760,o),
(50,512,o),
(39,86,cs),
(34,-117,o),
(164,-240,o),
(303,-240,cs)
);
},
{
closed = 1;
nodes = (
(333,181,o),
(312,226,o),
(312,268,cs),
(312,350,o),
(396,427,o),
(506,451,c),
(511,448,l),
(500,325,o),
(477,218,o),
(383,141,c)
);
}
);
userData = {
com.hugojourdan.ColorFlow = {
"0" = 0;
"1" = 0;
"10" = 0;
"11" = 0;
"2" = 0;
"3" = 0;
"4" = 0;
"5" = 0;
"6" = 0;
"7" = 0;
"8" = 0;
"9" = 0;
};
};
width = 913.34375;
}
);
note = at;
unicode = 64;
},
{
glyphname = ampersand;
kernLeft = O;
kernRight = O;
lastChange = "2023-08-04 17:34:22 +0000";
layers = (
{
layerId = "452AD06C-4D92-427C-8B35-838986F56274";
shapes = (
{
closed = 1;
nodes = (
(60,89,o),
(307,-56,o),
(542,-56,cs),
(757,-56,o),
(961,64,o),
(961,310,cs),
(961,453,o),
(885,618,o),
(713,771,c),
(708,762,l),
(834,641,o),
(899,480,o),
(899,335,cs),
(899,88,o),
(730,-30,o),
(551,-30,cs),
(334,-30,o),
(102,141,o),
(128,463,c),
(606,463,l),
(606,128,ls),
(606,84,o),
(604,68,o),
(596,44,c),
(678,44,l),
(672,64,o),
(670,80,o),
(670,120,cs),
(670,463,l),
(744,463,l),
(754,496,l),
(743,491,o),
(726,490,o),
(694,490,cs),
(670,490,l),
(670,499,ls),
(670,559,o),
(672,665,o),
(681,695,c),
(676,698,l),
(583,550,l),
(583,546,l),
(593,530,o),
(604,516,o),
(604,496,cs),
(604,490,l),
(404,490,l),
(506,515,o),
(548,561,o),
(546,615,cs),
(543,689,o),
(469,733,o),
(376,733,cs),
(236,733,o),
(60,631,o),
(60,373,cs)
);
},
{
closed = 1;
nodes = (
(131,490,l),
(155,631,o),
(252,707,o),
(345,711,cs),
(435,715,o),
(484,674,o),
(485,613,cs),
(486,553,o),
(424,490,o),
(308,490,cs)
);
}
);
userData = {
com.hugojourdan.ColorFlow = {
"0" = 0;
"1" = 0;
"10" = 0;
"11" = 0;
"2" = 0;
"3" = 0;
"4" = 0;
"5" = 0;
"6" = 0;
"7" = 0;
"8" = 0;
"9" = 0;
};
};
width = 1021;
},
{
layerId = m004;
shapes = (
{
closed = 1;
nodes = (
(60,37,o),
(353,-136,o),
(670,-122,cs),
(1012,-107,o),
(1195,115,o),
(1195,342,cs),
(1195,524,o),
(1071,711,o),
(793,801,c),
(778,782,l),
(930,732,o),
(1019,517,o),
(1019,317,cs),
(1019,125,o),
(938,-52,o),
(716,-57,cs),
(386,-64,o),
(249,168,o),
(283,448,c),
(638,448,l),
(638,84,ls),
(638,48,o),
(632,24,o),
(618,0,c),
(840,0,l),
(827,23,o),
(822,48,o),
(822,84,cs),
(822,448,l),
(920,448,l),
(942,520,l),
(917,501,o),
(880,500,o),
(834,500,cs),
(822,500,l),
(822,533,ls),
(822,595,o),
(824,666,o),
(830,746,c),
(818,754,l),
(620,631,l),
(619,617,l),
(633,599,o),
(638,574,o),
(638,531,cs),
(638,500,l),
(485,500,l),
(555,527,o),
(606,575,o),
(606,629,cs),
(606,692,o),
(538,725,o),
(449,725,cs),
(200,725,o),
(60,539,o),
(60,342,cs)
);
},
{
closed = 1;
nodes = (
(289,500,l),
(314,621,o),
(360,664,o),
(404,664,cs),
(437,664,o),
(459,639,o),
(457,604,cs),
(454,557,o),
(406,500,o),
(308,500,cs)
);
}
);
userData = {
com.hugojourdan.ColorFlow = {
"0" = 0;
"1" = 0;
"10" = 0;
"11" = 0;
"2" = 0;
"3" = 0;
"4" = 0;
"5" = 0;
"6" = 0;
"7" = 0;
"8" = 0;
"9" = 0;
};
};
width = 1245;
},
{
layerId = "D54810B1-F9A5-4F35-A1FF-AED0599B2373";
shapes = (
{
closed = 1;
nodes = (
(60,61,o),
(332,-100,o),
(612,-92,cs),
(897,-84,o),
(1089,92,o),
(1089,328,cs),
(1089,492,o),
(987,669,o),
(757,787,c),
(746,773,l),
(887,691,o),
(965,500,o),
(965,325,cs),
(965,108,o),
(844,-42,o),
(641,-45,cs),
(363,-49,o),
(182,156,o),
(213,455,c),
(624,455,l),
(624,104,ls),
(624,64,o),
(620,44,o),
(609,20,c),
(766,20,l),
(757,42,o),
(753,63,o),
(753,100,cs),
(753,455,l),
(840,455,l),
(857,509,l),
(838,496,o),
(810,495,o),
(771,495,cs),
(753,495,l),
(753,518,ls),
(753,579,o),
(755,666,o),
(763,723,c),
(754,729,l),
(603,594,l),
(603,585,l),
(615,568,o),
(623,548,o),
(623,515,cs),
(623,495,l),
(448,495,l),
(533,522,o),
(580,569,o),
(579,623,cs),
(578,691,o),
(507,729,o),
(416,729,cs),
(216,729,o),
(60,581,o),
(60,356,cs)
);
},
{
closed = 1;
nodes = (
(217,495,l),
(242,626,o),
(311,683,o),
(377,685,cs),
(436,687,o),
(470,655,o),
(470,608,cs),
(469,555,o),
(414,495,o),
(308,495,cs)
);
}
);
userData = {
com.hugojourdan.ColorFlow = {
"0" = 0;
"1" = 0;
"10" = 0;
"11" = 0;
"2" = 0;
"3" = 0;
"4" = 0;
"5" = 0;
"6" = 0;
"7" = 0;
"8" = 0;
"9" = 0;
};
};
width = 1149;
}
);
unicode = 38;
},
{
color = 11;
glyphname = ampersand.ss01;
kernRight = K;
lastChange = "2023-08-04 17:34:22 +0000";
layers = (
{
layerId = "D54810B1-F9A5-4F35-A1FF-AED0599B2373";
shapes = (
{
closed = 1;
nodes = (
(573,592,l),
(753,568,o),
(818,725,o),
(892,706,c),
(871,750,o),
(915,797,o),
(965,772,c),
(970,781,l),
(953,803,o),
(932,813,o),
(905,813,cs),
(792,813,o),
(725,609,o),
(574,609,c)
);
},
{
closed = 1;
nodes = (
(770,525,o),
(605,601,o),
(461,601,cs),
(343,601,o),
(242,534,o),
(205,465,c),
(202,468,l),
(251,611,o),
(375,725,o),
(460,725,cs),
(504,725,o),
(530,705,o),
(530,660,cs),
(530,643,o),
(526,625,o),
(519,604,c),
(540,598,l),
(628,713,l),
(587,757,o),
(533,776,o),
(477,776,cs),
(229,776,o),
(50,572,o),
(50,334,cs),
(50,104,o),
(219,-10,o),
(394,-10,cs),
(536,-10,o),
(683,65,o),
(744,215,c),
(733,330,o),
(693,419,o),
(654,467,c),
(660,471,l),
(732,385,o),
(738,301,o),
(774,181,cs),
(825,10,o),
(861,-48,o),
(1093,-128,c),
(1097,-116,l),
(956,-47,o),
(926,67,o),
(860,260,cs)
);
},
{
closed = 1;
nodes = (
(641,115,o),
(531,31,o),
(419,31,cs),
(304,31,o),
(188,120,o),
(188,287,cs),
(188,451,o),
(306,538,o),
(422,538,cs),
(532,538,o),
(641,458,o),
(641,292,cs)
);
},
{
closed = 1;
nodes = (
(458,322,o),
(489,361,o),
(575,440,c),
(561,453,l),
(487,360,o),
(453,330,o),
(417,330,cs),
(377,330,o),
(333,379,o),
(269,455,c),
(254,440,l),
(344,365,o),
(378,321,o),
(378,290,cs),
(378,261,o),
(348,221,o),
(248,146,c),
(262,131,l),
(339,213,o),
(378,249,o),
(419,249,cs),
(459,249,o),
(496,205,o),
(568,126,c),
(581,141,l),
(502,207,o),
(458,249,o),
(458,289,cs)
);
}
);
userData = {
com.hugojourdan.ColorFlow = {
"0" = 0;
"1" = 0;
"10" = 0;
"11" = 0;
"2" = 0;
"3" = 0;
"4" = 0;
"5" = 0;
"6" = 0;
"7" = 0;
"8" = 0;
"9" = 0;
};
};
width = 1037;
},
{
layerId = m004;
name = Nera;
shapes = (
{
closed = 1;
nodes = (
(614,622,l),
(832,586,o),
(898,772,o),
(974,728,c),
(941,773,o),
(990,829,o),
(1048,794,c),
(1053,797,l),
(1042,840,o),
(1017,854,o),
(980,854,cs),
(850,854,o),
(779,637,o),
(614,643,c)
);
},
{
closed = 1;
nodes = (
(874,496,o),
(736,612,o),
(515,612,cs),
(407,612,o),
(303,572,o),
(235,497,c),
(229,500,l),
(264,643,o),
(397,746,o),
(479,746,cs),
(518,746,o),
(546,723,o),
(546,669,cs),
(546,656,o),
(544,642,o),
(542,627,c),
(565,622,l),
(642,745,l),
(596,795,o),
(537,814,o),
(477,814,cs),
(206,814,o),
(40,570,o),
(40,347,cs),
(40,99,o),
(232,-16,o),
(428,-16,cs),
(589,-16,o),
(755,55,o),
(821,208,c),
(804,319,o),
(783,407,o),
(735,465,c),
(741,469,l),
(815,380,o),
(819,260,o),
(845,179,cs),
(901,5,o),
(944,-53,o),
(1205,-135,c),
(1213,-112,l),
(1058,-45,o),
(1024,74,o),
(954,271,cs)
);
},
{
closed = 1;
nodes = (
(682,164,o),
(607,42,o),
(463,42,cs),
(314,42,o),
(235,167,o),
(235,290,cs),
(235,407,o),
(308,523,o),
(459,523,cs),
(609,523,o),
(682,404,o),
(682,285,cs)
);
},
{
closed = 1;
nodes = (
(507,322,o),
(535,357,o),
(621,436,c),
(605,453,l),
(531,360,o),
(497,335,o),
(461,335,cs),
(421,335,o),
(377,379,o),
(313,455,c),
(296,436,l),
(387,363,o),
(417,321,o),
(417,290,cs),
(417,261,o),
(391,224,o),
(290,151,c),
(306,131,l),
(383,213,o),
(422,244,o),
(463,244,cs),
(503,244,o),
(540,203,o),
(612,124,c),
(627,143,l),
(546,209,o),
(507,249,o),
(507,289,cs)
);
}
);
userData = {
com.hugojourdan.ColorFlow = {
"0" = 0;
"1" = 0;
"10" = 0;
"11" = 0;
"2" = 0;
"3" = 0;
"4" = 0;
"5" = 0;
"6" = 0;
"7" = 0;
"8" = 0;
"9" = 0;
};
};
width = 1123;
},
{
layerId = "452AD06C-4D92-427C-8B35-838986F56274";
shapes = (
{
closed = 1;
nodes = (
(519,577,l),
(706,577,o),
(749,719,o),
(817,717,c),
(817,752,o),
(853,786,o),
(897,766,c),
(901,772,l),
(883,783,o),
(866,788,o),
(849,788,cs),
(745,788,o),
(676,584,o),
(518,584,c)
);
},
{
closed = 1;
nodes = (
(683,464,o),
(576,582,o),
(388,582,cs),
(290,582,o),
(195,535,o),
(138,446,c),
(133,449,l),
(177,647,o),
(314,740,o),
(405,740,cs),
(454,740,o),
(490,712,o),
(490,660,cs),
(490,642,o),
(486,621,o),
(478,599,c),
(484,597,l),
(554,711,l),
(517,746,o),
(471,761,o),
(422,761,cs),
(191,761,o),
(50,527,o),
(50,317,cs),
(50,105,o),
(192,-3,o),
(344,-3,cs),
(468,-3,o),
(600,69,o),
(663,217,c),
(654,329,o),
(620,439,o),
(565,489,c),
(570,492,l),
(651,429,o),
(673,319,o),
(722,186,cs),
(785,17,o),
(810,-38,o),
(1012,-122,c),
(1015,-113,l),
(853,-49,o),
(833,89,o),
(764,262,cs)
);
},
{
closed = 1;
nodes = (
(601,107,o),
(483,20,o),
(364,20,cs),
(240,20,o),
(115,113,o),
(115,288,cs),
(115,460,o),
(243,552,o),
(367,552,cs),
(486,552,o),
(601,468,o),
(601,292,cs)
);
},
{
closed = 1;
nodes = (
(403,321,o),
(432,353,o),
(518,439,c),
(513,444,l),
(432,363,o),
(398,329,o),
(362,329,cs),
(322,329,o),
(277,378,o),
(209,445,c),
(205,440,l),
(295,350,o),
(323,320,o),
(323,289,cs),
(323,260,o),
(300,233,o),
(207,140,c),
(212,135,l),
(282,205,o),
(323,248,o),
(364,248,cs),
(404,248,o),
(449,200,o),
(517,132,c),
(522,137,l),
(454,205,o),
(403,248,o),
(403,288,cs)
);
}
);
userData = {
com.hugojourdan.ColorFlow = {
"0" = 0;
"1" = 0;
"10" = 0;
"11" = 0;
"2" = 0;
"3" = 0;
"4" = 0;
"5" = 0;
"6" = 0;
"7" = 0;
"8" = 0;
"9" = 0;
};
};
width = 965;
}
);
note = ampersand;
},
{
glyphname = paragraph;
lastChange = "2023-08-04 17:34:22 +0000";
layers = (
{
layerId = "452AD06C-4D92-427C-8B35-838986F56274";
shapes = (
{
closed = 1;
nodes = (
(197,-485,l),
(533,-381,o),
(674,-168,o),
(674,112,cs),
(674,652,ls),
(674,697,o),
(690,716,o),
(726,716,cs),
(746,716,l),
(746,722,l),
(603,722,l),
(604,646,l),
(530,707,o),
(447,735,o),
(368,735,cs),
(195,735,o),
(50,594,o),
(50,392,cs),
(50,168,o),
(226,-3,o),
(418,-3,cs),
(482,-3,o),
(547,17,o),
(605,62,c),
(605,29,ls),
(605,-180,o),
(495,-382,o),
(194,-479,c)
);
},
{
closed = 1;
nodes = (
(261,18,o),
(128,196,o),
(128,399,cs),
(128,577,o),
(243,705,o),
(382,705,cs),
(454,705,o),
(532,676,o),
(604,612,c),
(604,186,ls),
(604,78,o),
(507,18,o),
(413,18,cs)
);
},
{
closed = 1;
nodes = (
(461,-461,l),
(768,-285,o),
(807,-90,o),
(807,179,cs),
(807,569,ls),
(807,614,o),
(823,633,o),
(859,633,cs),
(879,633,l),
(879,639,l),
(743,639,l),
(747,90,ls),
(749,-143,o),
(691,-329,o),
(456,-456,c)
);
}
);
userData = {
com.hugojourdan.ColorFlow = {
"0" = 0;
"1" = 0;
"10" = 0;
"11" = 0;
"2" = 0;
"3" = 0;
"4" = 0;
"5" = 0;
"6" = 0;
"7" = 0;
"8" = 0;
"9" = 0;
};
};
width = 929;
},
{
layerId = m004;
shapes = (
{
closed = 1;
nodes = (
(256,-402,l),
(478,-283,o),
(618,-150,o),
(618,106,cs),
(618,634,ls),
(618,676,o),
(636,698,o),
(670,698,cs),
(686,698,l),
(686,722,l),
(428,722,l),
(428,682,l),
(389,714,o),
(342,729,o),
(296,729,cs),
(160,729,o),
(30,597,o),
(30,390,cs),
(30,213,o),
(109,34,o),
(302,34,cs),
(340,34,o),
(382,40,o),
(428,55,c),
(428,39,ls),
(428,-112,o),
(404,-257,o),
(244,-380,c)
);
},
{
closed = 1;
nodes = (
(298,123,o),
(258,248,o),
(258,374,cs),
(258,505,o),
(300,636,o),
(374,636,cs),
(401,636,o),
(423,623,o),
(428,610,c),
(428,176,ls),
(428,138,o),
(407,123,o),
(386,123,cs)
);
},
{
closed = 1;
nodes = (
(423,-390,l),
(770,-209,o),
(790,-55,o),
(790,137,cs),
(790,556,ls),
(790,598,o),
(808,620,o),
(842,620,cs),
(858,620,l),
(858,644,l),
(672,644,l),
(676,124,ls),
(678,-96,o),
(635,-244,o),
(412,-369,c)
);
}
);
userData = {
com.hugojourdan.ColorFlow = {
"0" = 0;
"1" = 0;
"10" = 0;
"11" = 0;
"2" = 0;
"3" = 0;
"4" = 0;
"5" = 0;
"6" = 0;
"7" = 0;
"8" = 0;
"9" = 0;
};
};
width = 898;
},
{
layerId = "D54810B1-F9A5-4F35-A1FF-AED0599B2373";
shapes = (
{
closed = 1;
nodes = (
(230,-440,l),
(504,-327,o),
(644,-158,o),
(644,109,cs),
(644,642,ls),
(644,686,o),
(661,706,o),
(696,706,cs),
(714,706,l),
(714,722,l),
(508,722,l),
(509,666,l),
(454,711,o),
(391,732,o),
(330,732,cs),
(177,732,o),
(40,596,o),
(40,391,cs),
(40,193,o),
(163,17,o),
(356,17,cs),
(405,17,o),
(458,30,o),
(509,58,c),
(509,34,ls),
(509,-143,o),
(446,-314,o),
(222,-425,c)
);
},
{
closed = 1;
nodes = (
(282,75,o),
(200,224,o),
(200,385,cs),
(200,538,o),
(275,667,o),
(379,667,cs),
(426,667,o),
(473,647,o),
(509,611,c),
(509,181,ls),
(509,111,o),
(453,75,o),
(399,75,cs)
);
},
{
closed = 1;
nodes = (
(441,-422,l),
(770,-243,o),
(799,-71,o),
(799,156,cs),
(799,562,ls),
(799,606,o),
(816,626,o),
(851,626,cs),
(869,626,l),
(869,642,l),
(705,642,l),
(709,109,ls),
(711,-117,o),
(661,-283,o),
(433,-408,c)
);
}
);
userData = {
com.hugojourdan.ColorFlow = {
"0" = 0;
"1" = 0;
"10" = 0;
"11" = 0;
"2" = 0;
"3" = 0;
"4" = 0;
"5" = 0;
"6" = 0;
"7" = 0;
"8" = 0;
"9" = 0;
};
};
width = 919;
}
);
metricLeft = O;
metricRight = I;
unicode = 182;
},
{
glyphname = section;
kernLeft = s;
kernRight = s;
lastChange = "2023-08-04 17:34:22 +0000";
layers = (
{
layerId = "452AD06C-4D92-427C-8B35-838986F56274";
shapes = (
{
closed = 1;
nodes = (
(300,-10,o),
(364,45,o),
(364,124,cs),
(364,188,o),
(335,224,o),
(259,256,c),
(317,281,o),
(358,333,o),
(358,386,cs),
(358,436,o),
(323,467,o),
(279,491,cs),
(200,534,o),
(90,555,o),
(86,632,cs),
(83,686,o),
(119,721,o),
(169,721,cs),
(247,721,o),
(287,676,o),
(287,619,cs),
(287,592,o),
(276,561,o),
(258,531,c),
(269,525,l),
(350,638,l),
(325,699,o),
(258,737,o),
(183,737,cs),
(94,737,o),
(40,678,o),
(40,615,cs),
(40,554,o),
(80,512,o),
(158,481,c),
(84,471,o),
(40,418,o),
(40,361,cs),
(40,293,o),
(90,250,o),
(187,217,cs),
(254,195,o),
(307,163,o),
(307,104,cs),
(307,54,o),
(260,7,o),
(202,7,cs),
(105,7,o),
(47,106,o),
(60,218,c),
(52,220,l),
(20,101,l),
(48,38,o),
(102,-10,o),
(194,-10,cs)
);
},
{
closed = 1;
nodes = (
(86,432,o),
(119,468,o),
(169,468,cs),
(233,468,o),
(291,421,o),
(291,362,cs),
(291,322,o),
(271,281,o),
(232,266,c),
(126,299,o),
(86,324,o),
(86,378,cs)
);
}
);
userData = {
com.hugojourdan.ColorFlow = {
"0" = 0;
"1" = 0;
"10" = 0;
"11" = 0;
"2" = 0;
"3" = 0;
"4" = 0;
"5" = 0;
"6" = 0;
"7" = 0;
"8" = 0;
"9" = 0;
};
};
width = 394;
},
{
layerId = m004;
shapes = (
{
closed = 1;
nodes = (
(408,-144,o),
(486,-39,o),
(486,78,cs),
(486,153,o),
(449,196,o),
(402,230,c),
(468,270,o),
(505,340,o),
(499,413,cs),
(495,478,o),
(457,522,o),
(408,555,cs),
(319,614,o),
(196,631,o),
(196,717,cs),
(196,756,o),
(233,779,o),
(283,779,cs),
(323,779,o),
(375,757,o),
(385,686,cs),
(387,665,o),
(387,640,o),
(382,610,c),
(396,605,l),
(476,769,l),
(424,811,o),
(355,832,o),
(287,832,cs),
(169,832,o),
(77,773,o),
(77,660,cs),
(77,560,o),
(135,518,o),
(200,487,c),
(119,467,o),
(63,411,o),
(63,324,cs),
(63,209,o),
(154,175,o),
(235,140,cs),
(301,112,o),
(360,83,o),
(360,-3,cs),
(360,-58,o),
(322,-87,o),
(264,-86,cs),
(151,-83,o),
(83,35,o),
(129,151,c),
(112,159,l),
(20,-68,l),
(84,-119,o),
(165,-144,o),
(242,-144,cs)
);
},
{
closed = 1;
nodes = (
(182,420,o),
(220,447,o),
(269,442,cs),
(337,436,o),
(378,380,o),
(378,329,cs),
(378,302,o),
(365,276,o),
(339,261,c),
(262,296,o),
(182,321,o),
(182,380,cs)
);
}
);
userData = {
com.hugojourdan.ColorFlow = {
"0" = 0;
"1" = 0;
"10" = 0;
"11" = 0;
"2" = 0;
"3" = 0;
"4" = 0;
"5" = 0;
"6" = 0;
"7" = 0;
"8" = 0;
"9" = 0;
};
};
width = 520;
},
{
layerId = "D54810B1-F9A5-4F35-A1FF-AED0599B2373";
shapes = (
{
closed = 1;
nodes = (
(373,-93,o),
(447,-7,o),
(447,97,cs),
(447,170,o),
(412,211,o),
(350,245,c),
(415,280,o),
(455,344,o),
(452,411,cs),
(449,471,o),
(411,511,o),
(363,540,cs),
(276,594,o),
(154,614,o),
(152,698,cs),
(151,745,o),
(190,775,o),
(241,775,cs),
(298,775,o),
(347,741,o),
(353,675,cs),
(354,650,o),
(349,622,o),
(339,591,c),
(352,586,l),
(435,732,l),
(393,784,o),
(323,813,o),
(249,813,cs),
(141,813,o),
(62,752,o),
(62,658,cs),
(62,572,o),
(114,529,o),
(188,496,c),
(107,481,o),
(54,424,o),
(54,347,cs),
(54,249,o),
(130,210,o),
(221,175,cs),
(289,148,o),
(347,118,o),
(347,40,cs),
(347,-14,o),
(304,-52,o),
(245,-52,cs),
(135,-49,o),
(69,64,o),
(102,182,c),
(89,187,l),
(20,1,l),
(70,-57,o),
(142,-93,o),
(228,-93,cs)
);
},
{
closed = 1;
nodes = (
(145,436,o),
(182,467,o),
(233,464,cs),
(301,461,o),
(351,407,o),
(351,351,cs),
(351,317,o),
(335,284,o),
(301,268,c),
(209,303,o),
(145,330,o),
(145,388,cs)
);
}
);
userData = {
com.hugojourdan.ColorFlow = {
"0" = 0;
"1" = 0;
"10" = 0;
"11" = 0;
"2" = 0;
"3" = 0;
"4" = 0;
"5" = 0;
"6" = 0;
"7" = 0;
"8" = 0;
"9" = 0;
};
};
width = 482;
}
);
metricLeft = s;
metricRight = s;
note = section;
unicode = 167;
},
{
glyphname = apple;
lastChange = "2023-08-04 17:34:22 +0000";
layers = (
{
layerId = "452AD06C-4D92-427C-8B35-838986F56274";
shapes = (
{
closed = 1;
nodes = (
(400,678,o),
(365,695,o),
(330,695,cs),
(276,695,o),
(223,654,o),
(223,589,cs),
(223,491,o),
(386,407,o),
(386,317,cs),
(386,302,o),
(379,297,o),
(368,297,cs),
(325,297,o),
(250,373,o),
(157,373,cs),
(93,373,o),
(42,325,o),
(42,267,cs),
(42,238,o),
(55,206,o),
(87,177,c),
(78,163,o),
(73,146,o),
(73,130,cs),
(73,80,o),
(115,29,o),
(180,29,cs),
(302,29,o),
(326,268,o),
(382,268,cs),
(390,268,o),
(393,261,o),
(396,236,cs),
(403,186,o),
(432,80,o),
(423,36,cs),
(422,29,o),
(427,22,o),
(433,22,cs),
(440,22,o),
(449,33,o),
(449,55,cs),
(449,124,o),
(422,193,o),
(418,243,cs),
(416,263,o),
(421,274,o),
(432,274,cs),
(470,274,o),
(517,70,o),
(660,65,cs),
(719,63,o),
(762,106,o),
(762,156,cs),
(762,179,o),
(752,204,o),
(731,226,c),
(773,233,o),
(796,271,o),
(796,311,cs),
(796,356,o),
(765,403,o),
(699,403,cs),
(613,403,o),
(495,302,o),
(446,302,cs),
(438,302,o),
(431,308,o),
(431,318,cs),
(431,366,o),
(618,475,o),
(618,583,cs),
(618,651,o),
(566,694,o),
(512,694,cs),
(478,694,o),
(444,677,o),
(421,639,c)
);
}
);
userData = {
assembly = "PUSHB[ ]	/* 4 values pushed */\015
95 54 1 48 \015
CALL[ ]	/* CallFunction */";
com.hugojourdan.ColorFlow = {
"0" = 0;
"1" = 0;
"10" = 0;
"11" = 0;
"2" = 0;
"3" = 0;
"4" = 0;
"5" = 0;
"6" = 0;
"7" = 0;
"8" = 0;
"9" = 0;
};
};
width = 838;
},
{
layerId = m004;
shapes = (
{
closed = 1;
nodes = (
(407,699,o),
(373,713,o),
(340,713,cs),
(277,713,o),
(215,665,o),
(215,589,cs),
(215,480,o),
(387,402,o),
(387,323,cs),
(387,311,o),
(383,308,o),
(374,308,cs),
(339,308,o),
(268,391,o),
(167,391,cs),
(94,391,o),
(34,335,o),
(34,267,cs),
(34,238,o),
(47,204,o),
(74,173,c),
(69,160,o),
(65,144,o),
(65,130,cs),
(65,71,o),
(114,11,o),
(190,11,cs),
(328,11,o),
(351,256,o),
(381,256,cs),
(385,256,o),
(386,250,o),
(388,234,cs),
(395,182,o),
(418,80,o),
(415,39,cs),
(414,18,o),
(428,7,o),
(443,7,cs),
(460,7,o),
(477,20,o),
(477,47,cs),
(477,118,o),
(450,197,o),
(446,245,cs),
(444,258,o),
(446,262,o),
(451,262,cs),
(473,262,o),
(512,52,o),
(670,47,cs),
(737,45,o),
(790,96,o),
(790,156,cs),
(790,176,o),
(783,197,o),
(771,217,c),
(806,234,o),
(824,273,o),
(824,311,cs),
(824,363,o),
(787,421,o),
(709,421,cs),
(616,421,o),
(513,314,o),
(472,314,cs),
(462,314,o),
(458,319,o),
(458,329,cs),
(458,394,o),
(646,464,o),
(646,583,cs),
(646,662,o),
(585,712,o),
(522,712,cs),
(490,712,o),
(457,698,o),
(431,670,c)
);
}
);
userData = {
com.hugojourdan.ColorFlow = {
"0" = 0;
"1" = 0;
"10" = 0;
"11" = 0;
"2" = 0;
"3" = 0;
"4" = 0;
"5" = 0;
"6" = 0;
"7" = 0;
"8" = 0;
"9" = 0;
};
};
width = 866;
},
{
layerId = "D54810B1-F9A5-4F35-A1FF-AED0599B2373";
shapes = (
{
closed = 1;
nodes = (
(408,690,o),
(374,705,o),
(340,705,cs),
(281,705,o),
(223,660,o),
(223,589,cs),
(223,485,o),
(392,407,o),
(392,323,cs),
(392,307,o),
(386,302,o),
(374,302,cs),
(335,302,o),
(264,383,o),
(167,383,cs),
(98,383,o),
(42,331,o),
(42,267,cs),
(42,238,o),
(55,205,o),
(84,175,c),
(77,161,o),
(73,145,o),
(73,130,cs),
(73,75,o),
(119,19,o),
(190,19,cs),
(321,19,o),
(344,264,o),
(381,264,cs),
(392,264,o),
(394,251,o),
(396,235,cs),
(403,184,o),
(430,80,o),
(423,38,cs),
(421,25,o),
(431,12,o),
(443,12,cs),
(456,12,o),
(469,26,o),
(469,67,cs),
(469,126,o),
(442,195,o),
(438,244,cs),
(436,261,o),
(443,269,o),
(451,270,cs),
(481,274,o),
(519,60,o),
(670,55,cs),
(733,53,o),
(782,100,o),
(782,156,cs),
(782,177,o),
(774,200,o),
(759,220,c),
(796,234,o),
(816,272,o),
(816,311,cs),
(816,360,o),
(782,413,o),
(709,413,cs),
(619,413,o),
(511,312,o),
(466,312,cs),
(457,312,o),
(451,320,o),
(451,329,cs),
(451,371,o),
(638,469,o),
(638,583,cs),
(638,657,o),
(581,704,o),
(522,704,cs),
(489,704,o),
(456,689,o),
(431,657,c)
);
}
);
userData = {
com.hugojourdan.ColorFlow = {
"0" = 0;
"1" = 0;
"10" = 0;
"11" = 0;
"2" = 0;
"3" = 0;
"4" = 0;
"5" = 0;
"6" = 0;
"7" = 0;
"8" = 0;
"9" = 0;
};
};
width = 858;
}
);
note = uniF8FF;
unicode = 63743;
},
{
glyphname = hand;
lastChange = "2023-08-04 17:34:22 +0000";
layers = (
{
layerId = "452AD06C-4D92-427C-8B35-838986F56274";
shapes = (
{
closed = 1;
nodes = (
(190,1,o),
(218,10,o),
(244,22,c),
(242,79,l),
(265,97,o),
(276,136,o),
(313,195,cs),
(371,286,o),
(423,351,o),
(482,412,cs),
(516,445,o),
(514,487,o),
(492,487,cs),
(434,487,o),
(366,354,o),
(320,372,cs),
(292,383,o),
(289,467,o),
(289,575,cs),
(289,670,o),
(289,772,o),
(254,772,cs),
(247,772,o),
(241,770,o),
(238,767,c),
(236,781,o),
(233,800,o),
(214,800,cs),
(200,800,o),
(189,779,o),
(186,765,c),
(184,778,o),
(178,792,o),
(164,792,cs),
(138,792,o),
(128,747,o),
(123,703,c),
(121,715,o),
(118,722,o),
(107,722,cs),
(55,722,o),
(42,469,o),
(42,307,cs),
(42,211,o),
(50,121,o),
(81,91,c),
(81,16,l),
(109,5,o),
(134,1,o),
(157,1,cs)
);
},
{
closed = 1;
nodes = (
(55,441,o),
(66,709,o),
(106,709,cs),
(117,709,o),
(118,698,o),
(118,673,cs),
(118,471,ls),
(118,467,o),
(120,464,o),
(124,464,cs),
(127,464,o),
(129,467,o),
(129,471,cs),
(129,651,ls),
(129,687,o),
(137,780,o),
(164,780,cs),
(177,780,o),
(181,746,o),
(181,732,cs),
(181,471,ls),
(181,467,o),
(183,464,o),
(186,464,cs),
(189,464,o),
(190,467,o),
(190,471,cs),
(190,730,ls),
(190,757,o),
(197,788,o),
(214,788,cs),
(229,788,o),
(232,747,o),
(232,733,cs),
(232,471,ls),
(232,467,o),
(234,464,o),
(237,464,cs),
(240,464,o),
(241,467,o),
(241,471,cs),
(241,755,l),
(246,759,o),
(249,760,o),
(253,760,cs),
(277,760,o),
(279,681,o),
(279,622,cs),
(279,565,o),
(277,436,o),
(289,394,cs),
(297,366,o),
(311,355,o),
(326,355,cs),
(349,355,o),
(376,380,o),
(394,400,cs),
(426,436,o),
(466,474,o),
(487,474,cs),
(503,474,o),
(499,439,o),
(480,419,cs),
(421,362,o),
(377,307,o),
(343,261,cs),
(310,218,o),
(270,144,o),
(257,119,cs),
(239,84,o),
(226,84,o),
(208,86,c),
(205,78,l),
(214,76,o),
(223,76,o),
(232,76,c),
(232,31,l),
(212,21,o),
(186,15,o),
(159,15,cs),
(137,15,o),
(115,18,o),
(96,27,c),
(96,83,l),
(111,79,o),
(126,79,o),
(141,82,c),
(144,90,l),
(98,90,o),
(90,91,o),
(75,127,cs),
(55,176,o),
(55,267,o),
(55,323,cs)
);
}
);
userData = {
com.hugojourdan.ColorFlow = {
"0" = 0;
"1" = 0;
"10" = 0;
"11" = 0;
"2" = 0;
"3" = 0;
"4" = 0;
"5" = 0;
"6" = 0;
"7" = 0;
"8" = 0;
"9" = 0;
};
};
width = 550;
},
{
layerId = m004;
shapes = (
{
closed = 1;
nodes = (
(207,-19,o),
(239,-8,o),
(271,8,c),
(268,68,l),
(290,89,o),
(302,131,o),
(346,201,cs),
(400,287,o),
(450,335,o),
(524,412,cs),
(562,452,o),
(541,502,o),
(504,502,cs),
(433,502,o),
(377,373,o),
(339,389,cs),
(324,395,o),
(322,455,o),
(322,580,cs),
(322,676,o),
(316,792,o),
(267,792,cs),
(264,792,o),
(262,792,o),
(259,791,c),
(254,807,o),
(245,820,o),
(227,820,cs),
(216,820,o),
(206,812,o),
(199,801,c),
(194,808,o),
(186,812,o),
(177,812,cs),
(150,812,o),
(136,778,o),
(128,741,c),
(126,742,o),
(123,742,o),
(120,742,cs),
(53,742,o),
(42,468,o),
(42,307,cs),
(42,214,o),
(50,118,o),
(81,81,c),
(81,1,l),
(116,-14,o),
(144,-19,o),
(170,-19,cs)
);
},
{
closed = 1;
nodes = (
(81,425,o),
(89,627,o),
(109,677,cs),
(112,684,o),
(115,689,o),
(118,689,c),
(123,467,ls),
(123,454,o),
(128,445,o),
(137,445,cs),
(146,445,o),
(150,454,o),
(150,467,cs),
(155,651,ls),
(156,686,o),
(161,760,o),
(177,760,cs),
(179,760,o),
(181,744,o),
(181,732,cs),
(180,465,ls),
(180,452,o),
(185,444,o),
(193,444,cs),
(202,444,o),
(206,452,o),
(206,465,cs),
(216,730,ls),
(217,754,o),
(219,768,o),
(227,768,cs),
(230,768,o),
(232,746,o),
(232,733,cs),
(233,466,ls),
(233,452,o),
(238,444,o),
(247,444,cs),
(255,444,o),
(260,452,o),
(260,466,cs),
(267,740,l),
(275,739,o),
(279,735,o),
(281,724,cs),
(285,702,o),
(286,668,o),
(286,627,cs),
(286,570,o),
(285,427,o),
(298,384,cs),
(307,355,o),
(315,345,o),
(335,345,cs),
(362,345,o),
(392,373,o),
(414,397,cs),
(455,443,o),
(476,467,o),
(495,467,cs),
(508,467,o),
(510,445,o),
(500,435,cs),
(437,373,o),
(384,325,o),
(346,273,cs),
(314,232,o),
(273,156,o),
(258,128,cs),
(246,104,o),
(239,104,o),
(214,107,c),
(198,64,l),
(211,59,o),
(222,57,o),
(232,56,c),
(232,46,l),
(216,39,o),
(195,35,o),
(172,35,cs),
(154,35,o),
(136,37,o),
(122,42,c),
(122,61,l),
(134,59,o),
(145,60,o),
(162,63,c),
(179,110,l),
(126,100,o),
(110,105,o),
(100,135,cs),
(84,182,o),
(81,267,o),
(81,323,cs)
);
}
);
userData = {
com.hugojourdan.ColorFlow = {
"0" = 0;
"1" = 0;
"10" = 0;
"11" = 0;
"2" = 0;
"3" = 0;
"4" = 0;
"5" = 0;
"6" = 0;
"7" = 0;
"8" = 0;
"9" = 0;
};
};
width = 581;
},
{
layerId = "D54810B1-F9A5-4F35-A1FF-AED0599B2373";
shapes = (
{
closed = 1;
nodes = (
(199,-10,o),
(229,0,o),
(259,14,c),
(256,73,l),
(279,93,o),
(291,135,o),
(339,211,cs),
(386,282,o),
(430,345,o),
(494,412,cs),
(526,449,o),
(527,498,o),
(499,498,cs),
(438,498,o),
(370,366,o),
(330,382,cs),
(306,392,o),
(303,467,o),
(303,575,cs),
(303,671,o),
(304,783,o),
(261,783,cs),
(256,783,o),
(252,782,o),
(249,780,c),
(246,795,o),
(240,811,o),
(221,811,cs),
(209,811,o),
(198,797,o),
(193,785,c),
(189,794,o),
(182,803,o),
(171,803,cs),
(145,803,o),
(132,764,o),
(126,724,c),
(124,730,o),
(121,733,o),
(114,733,cs),
(54,733,o),
(42,468,o),
(42,307,cs),
(42,213,o),
(50,119,o),
(81,86,c),
(81,8,l),
(113,-5,o),
(139,-10,o),
(164,-10,cs)
);
},
{
closed = 1;
nodes = (
(69,436,o),
(79,677,o),
(110,696,cs),
(114,699,o),
(118,693,o),
(118,676,cs),
(118,468,ls),
(118,459,o),
(123,453,o),
(131,453,cs),
(139,453,o),
(143,459,o),
(143,468,cs),
(143,651,ls),
(143,686,o),
(150,769,o),
(171,769,cs),
(180,769,o),
(181,745,o),
(181,732,cs),
(181,468,ls),
(181,459,o),
(186,453,o),
(193,453,cs),
(200,453,o),
(204,459,o),
(204,468,cs),
(204,730,ls),
(204,755,o),
(209,777,o),
(221,777,cs),
(232,777,o),
(233,746,o),
(233,732,cs),
(232,468,ls),
(232,459,o),
(237,453,o),
(244,453,cs),
(251,453,o),
(255,459,o),
(255,468,cs),
(255,743,l),
(257,749,o),
(262,746,o),
(265,744,cs),
(279,733,o),
(279,673,o),
(279,622,cs),
(279,565,o),
(277,434,o),
(290,391,cs),
(299,357,o),
(315,344,o),
(333,344,cs),
(358,344,o),
(386,371,o),
(407,393,cs),
(437,427,o),
(475,466,o),
(491,469,cs),
(511,472,o),
(500,436,o),
(485,421,cs),
(436,372,o),
(391,321,o),
(345,261,cs),
(312,219,o),
(272,151,o),
(258,124,cs),
(243,95,o),
(233,95,o),
(211,97,c),
(201,70,l),
(212,67,o),
(222,66,o),
(232,65,c),
(232,39,l),
(214,31,o),
(191,26,o),
(166,26,cs),
(146,26,o),
(126,28,o),
(110,35,c),
(110,71,l),
(124,68,o),
(136,69,o),
(152,72,c),
(163,101,l),
(105,101,o),
(101,101,o),
(89,131,cs),
(69,179,o),
(69,267,o),
(69,323,cs)
);
}
);
userData = {
com.hugojourdan.ColorFlow = {
"0" = 0;
"1" = 0;
"10" = 0;
"11" = 0;
"2" = 0;
"3" = 0;
"4" = 0;
"5" = 0;
"6" = 0;
"7" = 0;
"8" = 0;
"9" = 0;
};
};
width = 561;
}
);
},
{
glyphname = magic;
lastChange = "2023-08-04 17:34:22 +0000";
layers = (
{
layerId = "452AD06C-4D92-427C-8B35-838986F56274";
shapes = (
{
closed = 1;
nodes = (
(234,67,o),
(325,8,o),
(416,8,cs),
(507,8,o),
(592,64,o),
(601,189,c),
(711,194,o),
(767,289,o),
(767,386,cs),
(767,481,o),
(713,570,o),
(595,571,c),
(590,687,o),
(498,746,o),
(403,746,cs),
(309,746,o),
(219,688,o),
(214,562,c),
(98,551,o),
(42,467,o),
(42,376,cs),
(42,281,o),
(100,190,o),
(222,182,c)
);
},
{
closed = 1;
nodes = (
(156,203,o),
(90,263,o),
(90,342,cs),
(90,438,o),
(159,485,o),
(226,485,cs),
(278,485,o),
(331,457,o),
(350,401,c),
(263,351,o),
(218,306,o),
(221,195,c)
);
},
{
closed = 1;
nodes = (
(423,137,o),
(431,145,o),
(431,160,cs),
(431,175,o),
(423,183,o),
(409,183,cs),
(396,183,o),
(387,175,o),
(387,160,cs),
(387,145,o),
(396,137,o),
(409,137,cs)
);
},
{
closed = 1;
nodes = (
(207,351,o),
(215,359,o),
(215,374,cs),
(215,389,o),
(207,397,o),
(193,397,cs),
(179,397,o),
(171,389,o),
(171,374,cs),
(171,359,o),
(179,351,o),
(193,351,cs)
);
},
{
closed = 1;
nodes = (
(578,101,o),
(511,62,o),
(444,62,cs),
(368,62,o),
(289,113,o),
(289,199,cs),
(289,247,o),
(317,297,o),
(380,324,c),
(432,234,o),
(479,186,o),
(589,188,c)
);
},
{
closed = 1;
nodes = (
(388,514,o),
(336,568,o),
(224,563,c),
(230,647,o),
(299,694,o),
(372,694,cs),
(466,694,o),
(524,624,o),
(524,554,cs),
(524,506,o),
(496,457,o),
(432,434,c)
);
},
{
closed = 1;
nodes = (
(723,319,o),
(658,262,o),
(590,262,cs),
(538,262,o),
(485,293,o),
(456,356,c),
(551,408,o),
(598,446,o),
(595,557,c),
(688,550,o),
(723,475,o),
(723,407,cs)
);
},
{
closed = 1;
nodes = (
(640,360,o),
(648,368,o),
(648,383,cs),
(648,398,o),
(640,406,o),
(626,406,cs),
(612,406,o),
(604,398,o),
(604,383,cs),
(604,368,o),
(612,360,o),
(626,360,cs)
);
},
{
closed = 1;
nodes = (
(420,565,o),
(429,573,o),
(429,588,cs),
(429,603,o),
(420,611,o),
(407,611,cs),
(393,611,o),
(385,603,o),
(385,588,cs),
(385,573,o),
(393,565,o),
(407,565,cs)
);
}
);
userData = {
com.hugojourdan.ColorFlow = {
"0" = 0;
"1" = 0;
"10" = 0;
"11" = 0;
"2" = 0;
"3" = 0;
"4" = 0;
"5" = 0;
"6" = 0;
"7" = 0;
"8" = 0;
"9" = 0;
};
};
width = 809;
},
{
layerId = m004;
shapes = (
{
closed = 1;
nodes = (
(242,52,o),
(340,-8,o),
(433,-8,cs),
(527,-8,o),
(619,51,o),
(633,175,c),
(744,187,o),
(801,288,o),
(801,386,cs),
(801,482,o),
(746,578,o),
(628,587,c),
(616,702,o),
(517,762,o),
(420,762,cs),
(324,762,o),
(226,701,o),
(215,576,c),
(99,559,o),
(42,468,o),
(42,376,cs),
(42,280,o),
(101,182,o),
(224,168,c)
);
},
{
closed = 1;
nodes = (
(169,230,o),
(124,278,o),
(124,342,cs),
(124,429,o),
(182,469,o),
(243,469,cs),
(286,469,o),
(327,449,o),
(346,407,c),
(269,361,o),
(224,313,o),
(221,215,c)
);
},
{
closed = 1;
nodes = (
(479,164,o),
(496,181,o),
(496,203,cs),
(496,225,o),
(479,242,o),
(457,242,cs),
(436,242,o),
(418,225,o),
(418,203,cs),
(418,181,o),
(436,164,o),
(457,164,cs)
);
},
{
closed = 1;
nodes = (
(269,304,o),
(286,321,o),
(286,343,cs),
(286,365,o),
(269,382,o),
(247,382,cs),
(225,382,o),
(208,365,o),
(208,343,cs),
(208,321,o),
(225,304,o),
(247,304,cs)
);
},
{
closed = 1;
nodes = (
(570,106,o),
(517,78,o),
(461,78,cs),
(391,78,o),
(323,122,o),
(323,199,cs),
(323,239,o),
(343,277,o),
(390,302,c),
(437,225,o),
(488,176,o),
(586,172,c)
);
},
{
closed = 1;
nodes = (
(415,525,o),
(361,578,o),
(260,579,c),
(273,644,o),
(328,678,o),
(389,678,cs),
(473,678,o),
(524,617,o),
(524,554,cs),
(524,514,o),
(504,477,o),
(456,454,c)
);
},
{
closed = 1;
nodes = (
(723,327,o),
(667,278,o),
(607,278,cs),
(564,278,o),
(523,301,o),
(495,350,c),
(578,396,o),
(626,439,o),
(629,539,c),
(697,525,o),
(723,466,o),
(723,407,cs)
);
},
{
closed = 1;
nodes = (
(624,382,o),
(641,399,o),
(641,421,cs),
(641,443,o),
(624,460,o),
(602,460,cs),
(580,460,o),
(563,443,o),
(563,421,cs),
(563,399,o),
(580,382,o),
(602,382,cs)
);
},
{
closed = 1;
nodes = (
(408,515,o),
(426,532,o),
(426,554,cs),
(426,576,o),
(408,593,o),
(387,593,cs),
(365,593,o),
(348,576,o),
(348,554,cs),
(348,532,o),
(365,515,o),
(387,515,cs)
);
}
);
userData = {
com.hugojourdan.ColorFlow = {
"0" = 0;
"1" = 0;
"10" = 0;
"11" = 0;
"2" = 0;
"3" = 0;
"4" = 0;
"5" = 0;
"6" = 0;
"7" = 0;
"8" = 0;
"9" = 0;
};
};
width = 843;
},
{
layerId = "D54810B1-F9A5-4F35-A1FF-AED0599B2373";
shapes = (
{
closed = 1;
nodes = (
(238,60,o),
(333,0,o),
(425,0,cs),
(517,0,o),
(607,58,o),
(618,182,c),
(728,191,o),
(785,289,o),
(785,386,cs),
(785,481,o),
(730,574,o),
(613,579,c),
(604,694,o),
(508,754,o),
(412,754,cs),
(317,754,o),
(222,694,o),
(214,569,c),
(99,555,o),
(42,467,o),
(42,376,cs),
(42,281,o),
(101,186,o),
(223,175,c)
);
},
{
closed = 1;
nodes = (
(163,217,o),
(108,271,o),
(108,342,cs),
(108,433,o),
(172,477,o),
(235,477,cs),
(282,477,o),
(329,453,o),
(348,404,c),
(266,356,o),
(221,309,o),
(221,205,c)
);
},
{
closed = 1;
nodes = (
(436,129,o),
(449,142,o),
(449,160,cs),
(449,178,o),
(436,191,o),
(418,191,cs),
(401,191,o),
(387,178,o),
(387,160,cs),
(387,142,o),
(401,129,o),
(418,129,cs)
);
},
{
closed = 1;
nodes = (
(220,343,o),
(233,356,o),
(233,374,cs),
(233,392,o),
(220,405,o),
(202,405,cs),
(184,405,o),
(171,392,o),
(171,374,cs),
(171,356,o),
(184,343,o),
(202,343,cs)
);
},
{
closed = 1;
nodes = (
(574,104,o),
(514,70,o),
(453,70,cs),
(381,70,o),
(307,118,o),
(307,199,cs),
(307,243,o),
(331,287,o),
(385,313,c),
(434,230,o),
(484,181,o),
(588,180,c)
);
},
{
closed = 1;
nodes = (
(403,519,o),
(349,573,o),
(243,571,c),
(253,645,o),
(315,686,o),
(381,686,cs),
(469,686,o),
(524,620,o),
(524,554,cs),
(524,510,o),
(500,467,o),
(445,444,c)
);
},
{
closed = 1;
nodes = (
(723,323,o),
(662,270,o),
(599,270,cs),
(552,270,o),
(505,297,o),
(476,353,c),
(565,402,o),
(613,443,o),
(613,548,c),
(692,537,o),
(723,470,o),
(723,407,cs)
);
},
{
closed = 1;
nodes = (
(653,352,o),
(666,365,o),
(666,383,cs),
(666,401,o),
(653,414,o),
(635,414,cs),
(617,414,o),
(604,401,o),
(604,383,cs),
(604,365,o),
(617,352,o),
(635,352,cs)
);
},
{
closed = 1;
nodes = (
(433,557,o),
(447,570,o),
(447,588,cs),
(447,606,o),
(433,619,o),
(416,619,cs),
(398,619,o),
(385,606,o),
(385,588,cs),
(385,570,o),
(398,557,o),
(416,557,cs)
);
}
);
userData = {
com.hugojourdan.ColorFlow = {
"0" = 0;
"1" = 0;
"10" = 0;
"11" = 0;
"2" = 0;
"3" = 0;
"4" = 0;
"5" = 0;
"6" = 0;
"7" = 0;
"8" = 0;
"9" = 0;
};
};
width = 827;
}
);
},
{
glyphname = periodcentered;
kernLeft = bullet;
kernRight = bullet;
lastChange = "2023-08-04 17:34:22 +0000";
layers = (
{
layerId = "452AD06C-4D92-427C-8B35-838986F56274";
shapes = (
{
closed = 1;
nodes = (
(171,174,o),
(185,204,o),
(205,228,c),
(217,225,o),
(228,220,o),
(238,212,c),
(233,225,o),
(229,238,o),
(226,251,c),
(246,268,o),
(268,279,o),
(293,282,c),
(268,293,o),
(247,307,o),
(228,324,c),
(231,335,o),
(235,347,o),
(240,359,c),
(229,353,o),
(218,348,o),
(207,344,c),
(189,364,o),
(175,388,o),
(163,416,c),
(156,389,o),
(144,364,o),
(127,343,c),
(115,346,o),
(103,351,o),
(91,357,c),
(97,346,o),
(102,334,o),
(106,322,c),
(86,305,o),
(62,292,o),
(34,282,c),
(60,276,o),
(85,263,o),
(105,246,c),
(101,232,o),
(95,220,o),
(86,208,c),
(98,215,o),
(112,221,o),
(126,225,c),
(146,202,o),
(159,174,o),
(163,145,c)
);
},
{
closed = 1;
nodes = (
(153,291,o),
(162,299,o),
(166,313,c),
(170,299,o),
(180,291,o),
(195,283,c),
(180,282,o),
(170,269,o),
(166,255,c),
(162,269,o),
(153,281,o),
(136,283,c)
);
}
);
userData = {
com.hugojourdan.ColorFlow = {
"0" = 0;
"1" = 0;
"10" = 0;
"11" = 0;
"2" = 0;
"3" = 0;
"4" = 0;
"5" = 0;
"6" = 0;
"7" = 0;
"8" = 0;
"9" = 0;
};
};
width = 325;
},
{
layerId = m004;
shapes = (
{
closed = 1;
nodes = (
(237,174,o),
(251,204,o),
(271,228,c),
(283,225,o),
(294,220,o),
(304,212,c),
(299,225,o),
(295,238,o),
(292,251,c),
(312,268,o),
(334,279,o),
(359,282,c),
(334,293,o),
(313,307,o),
(294,324,c),
(297,335,o),
(301,347,o),
(306,359,c),
(295,353,o),
(284,348,o),
(273,344,c),
(255,364,o),
(241,388,o),
(229,416,c),
(222,389,o),
(210,364,o),
(193,343,c),
(181,346,o),
(169,351,o),
(157,357,c),
(163,346,o),
(168,334,o),
(172,322,c),
(152,305,o),
(128,292,o),
(100,282,c),
(126,276,o),
(151,263,o),
(171,246,c),
(167,232,o),
(161,220,o),
(152,208,c),
(164,215,o),
(178,221,o),
(192,225,c),
(212,202,o),
(225,174,o),
(229,145,c)
);
},
{
closed = 1;
nodes = (
(219,291,o),
(228,299,o),
(232,313,c),
(236,299,o),
(246,291,o),
(261,283,c),
(246,282,o),
(236,269,o),
(232,255,c),
(228,269,o),
(219,281,o),
(202,283,c)
);
}
);
userData = {
com.hugojourdan.ColorFlow = {
"0" = 0;
"1" = 0;
"10" = 0;
"11" = 0;
"2" = 0;
"3" = 0;
"4" = 0;
"5" = 0;
"6" = 0;
"7" = 0;
"8" = 0;
"9" = 0;
};
};
width = 459;
},
{
layerId = "D54810B1-F9A5-4F35-A1FF-AED0599B2373";
shapes = (
{
closed = 1;
nodes = (
(207,174,o),
(221,204,o),
(241,228,c),
(253,225,o),
(264,220,o),
(274,212,c),
(269,225,o),
(265,238,o),
(262,251,c),
(282,268,o),
(304,279,o),
(329,282,c),
(304,293,o),
(283,307,o),
(264,324,c),
(267,335,o),
(271,347,o),
(276,359,c),
(265,353,o),
(254,348,o),
(243,344,c),
(225,364,o),
(211,388,o),
(199,416,c),
(192,389,o),
(180,364,o),
(163,343,c),
(151,346,o),
(139,351,o),
(127,357,c),
(133,346,o),
(138,334,o),
(142,322,c),
(122,305,o),
(98,292,o),
(70,282,c),
(96,276,o),
(121,263,o),
(141,246,c),
(137,232,o),
(131,220,o),
(122,208,c),
(134,215,o),
(148,221,o),
(162,225,c),
(182,202,o),
(195,174,o),
(199,145,c)
);
},
{
closed = 1;
nodes = (
(189,291,o),
(198,299,o),
(202,313,c),
(206,299,o),
(216,291,o),
(231,283,c),
(216,282,o),
(206,269,o),
(202,255,c),
(198,269,o),
(189,281,o),
(172,283,c)
);
}
);
userData = {
com.hugojourdan.ColorFlow = {
"0" = 0;
"1" = 0;
"10" = 0;
"11" = 0;
"2" = 0;
"3" = 0;
"4" = 0;
"5" = 0;
"6" = 0;
"7" = 0;
"8" = 0;
"9" = 0;
};
};
width = 398.28125;
}
);
unicode = 183;
},
{
color = 11;
glyphname = periodcentered.ss01;
kernLeft = bullet;
kernRight = bullet;
lastChange = "2023-08-04 17:34:22 +0000";
layers = (
{
layerId = "452AD06C-4D92-427C-8B35-838986F56274";
shapes = (
{
closed = 1;
nodes = (
(318,145,o),
(413,270,o),
(532,283,c),
(418,336,o),
(337,414,o),
(286,537,c),
(258,419,o),
(174,329,o),
(42,283,c),
(167,253,o),
(271,145,o),
(286,24,c)
);
},
{
closed = 1;
nodes = (
(157,291,l),
(293,465,l),
(424,297,l),
(286,111,l)
);
},
{
closed = 1;
nodes = (
(227,194,o),
(350,211,o),
(428,151,c),
(390,244,o),
(390,336,o),
(431,429,c),
(348,380,o),
(250,374,o),
(150,425,c),
(201,338,o),
(201,225,o),
(140,143,c)
);
},
{
closed = 1;
nodes = (
(227,272,o),
(225,308,o),
(248,332,cs),
(273,355,o),
(309,355,o),
(333,332,cs),
(358,310,o),
(358,270,o),
(333,246,cs),
(309,225,o),
(273,225,o),
(248,246,c)
);
},
{
closed = 1;
nodes = (
(299,259,o),
(318,283,o),
(346,285,c),
(318,300,o),
(299,315,o),
(292,342,c),
(284,315,o),
(267,300,o),
(235,285,c),
(267,281,o),
(284,259,o),
(292,232,c)
);
}
);
userData = {
com.hugojourdan.ColorFlow = {
"0" = 0;
"1" = 0;
"10" = 0;
"11" = 0;
"2" = 0;
"3" = 0;
"4" = 0;
"5" = 0;
"6" = 0;
"7" = 0;
"8" = 0;
"9" = 0;
};
};
width = 574;
},
{
layerId = m004;
shapes = (
{
closed = 1;
nodes = (
(407,82,o),
(551,271,o),
(700,280,c),
(566,328,o),
(419,453,o),
(387,588,c),
(352,455,o),
(238,314,o),
(42,280,c),
(216,280,o),
(369,75,o),
(387,-60,c)
);
},
{
closed = 1;
nodes = (
(258,287,l),
(389,458,l),
(524,287,l),
(389,105,l)
);
},
{
closed = 1;
nodes = (
(321,185,o),
(458,204,o),
(545,136,c),
(496,239,o),
(496,343,o),
(549,446,c),
(456,391,o),
(347,385,o),
(235,442,c),
(292,345,o),
(292,218,o),
(225,128,c)
);
},
{
closed = 1;
nodes = (
(321,271,o),
(319,311,o),
(345,338,cs),
(372,364,o),
(412,364,o),
(439,338,cs),
(467,313,o),
(467,269,o),
(439,242,cs),
(412,218,o),
(372,218,o),
(345,242,c)
);
},
{
closed = 1;
nodes = (
(402,256,o),
(423,284,o),
(454,286,c),
(423,303,o),
(402,319,o),
(393,349,c),
(385,319,o),
(366,303,o),
(330,286,c),
(366,282,o),
(385,256,o),
(393,227,c)
);
}
);
userData = {
com.hugojourdan.ColorFlow = {
"0" = 0;
"1" = 0;
"10" = 0;
"11" = 0;
"2" = 0;
"3" = 0;
"4" = 0;
"5" = 0;
"6" = 0;
"7" = 0;
"8" = 0;
"9" = 0;
};
};
width = 742;
},
{
layerId = "D54810B1-F9A5-4F35-A1FF-AED0599B2373";
shapes = (
{
closed = 1;
nodes = (
(304,152,o),
(394,271,o),
(507,283,c),
(399,333,o),
(322,407,o),
(273,524,c),
(246,412,o),
(168,326,o),
(42,283,c),
(160,254,o),
(259,152,o),
(273,37,c)
);
},
{
closed = 1;
nodes = (
(151,290,l),
(281,455,l),
(404,296,l),
(273,120,l)
);
},
{
closed = 1;
nodes = (
(218,199,o),
(334,215,o),
(408,158,c),
(372,246,o),
(372,333,o),
(411,421,c),
(333,375,o),
(239,369,o),
(144,418,c),
(193,335,o),
(193,228,o),
(135,150,c)
);
},
{
closed = 1;
nodes = (
(218,272,o),
(216,307,o),
(238,330,cs),
(261,351,o),
(295,351,o),
(318,330,cs),
(342,308,o),
(342,271,o),
(318,247,c),
(295,228,o),
(261,228,o),
(238,247,c)
);
},
{
closed = 1;
nodes = (
(286,260,o),
(304,283,o),
(331,285,c),
(304,299,o),
(286,314,o),
(279,339,c),
(272,314,o),
(255,299,o),
(225,285,c),
(255,281,o),
(272,260,o),
(279,235,c)
);
}
);
userData = {
com.hugojourdan.ColorFlow = {
"0" = 0;
"1" = 0;
"10" = 0;
"11" = 0;
"2" = 0;
"3" = 0;
"4" = 0;
"5" = 0;
"6" = 0;
"7" = 0;
"8" = 0;
"9" = 0;
};
};
width = 549;
}
);
},
{
glyphname = bullet;
kernLeft = bullet;
kernRight = bullet;
lastChange = "2023-08-04 17:34:22 +0000";
layers = (
{
layerId = "452AD06C-4D92-427C-8B35-838986F56274";
shapes = (
{
closed = 1;
nodes = (
(241,235,o),
(277,279,o),
(307,296,c),
(270,323,o),
(227,359,o),
(211,392,c),
(184,354,o),
(148,310,o),
(115,296,c),
(154,267,o),
(198,231,o),
(211,200,c)
);
}
);
userData = {
com.hugojourdan.ColorFlow = {
"0" = 0;
"1" = 0;
"10" = 0;
"11" = 0;
"2" = 0;
"3" = 0;
"4" = 0;
"5" = 0;
"6" = 0;
"7" = 0;
"8" = 0;
"9" = 0;
};
};
width = 422;
},
{
layerId = m004;
shapes = (
{
closed = 1;
nodes = (
(302,168,o),
(360,239,o),
(408,266,c),
(349,309,o),
(280,367,o),
(254,420,c),
(211,359,o),
(153,288,o),
(100,266,c),
(163,219,o),
(233,162,o),
(254,112,c)
);
}
);
userData = {
com.hugojourdan.ColorFlow = {
"0" = 0;
"1" = 0;
"10" = 0;
"11" = 0;
"2" = 0;
"3" = 0;
"4" = 0;
"5" = 0;
"6" = 0;
"7" = 0;
"8" = 0;
"9" = 0;
};
};
width = 508;
},
{
layerId = "D54810B1-F9A5-4F35-A1FF-AED0599B2373";
shapes = (
{
closed = 1;
nodes = (
(274,198,o),
(322,257,o),
(362,280,c),
(313,315,o),
(256,363,o),
(235,407,c),
(199,357,o),
(151,298,o),
(107,280,c),
(159,241,o),
(217,193,o),
(235,152,c)
);
}
);
userData = {
com.hugojourdan.ColorFlow = {
"0" = 0;
"1" = 0;
"10" = 0;
"11" = 0;
"2" = 0;
"3" = 0;
"4" = 0;
"5" = 0;
"6" = 0;
"7" = 0;
"8" = 0;
"9" = 0;
};
};
width = 469.03125;
}
);
unicode = 8226;
},
{
glyphname = asterisk;
kernLeft = quotedblleft;
kernRight = quotedblleft;
lastChange = "2023-08-04 17:34:22 +0000";
layers = (
{
layerId = "452AD06C-4D92-427C-8B35-838986F56274";
shapes = (
{
closed = 1;
nodes = (
(159,546,l),
(198,524,l),
(160,619,l),
(256,582,l),
(233,623,l),
(256,662,l),
(160,625,l),
(198,720,l),
(157,696,l),
(118,720,l),
(156,625,l),
(60,662,l),
(83,621,l),
(60,582,l),
(156,619,l),
(118,524,l)
);
}
);
userData = {
com.hugojourdan.ColorFlow = {
"0" = 0;
"1" = 0;
"10" = 0;
"11" = 0;
"2" = 0;
"3" = 0;
"4" = 0;
"5" = 0;
"6" = 0;
"7" = 0;
"8" = 0;
"9" = 0;
};
};
width = 316;
},
{
layerId = m004;
shapes = (
{
closed = 1;
nodes = (
(184,525,l),
(249,489,l),
(211,582,l),
(304,546,l),
(268,612,l),
(306,677,l),
(211,640,l),
(249,734,l),
(182,696,l),
(118,736,l),
(156,640,l),
(61,677,l),
(98,611,l),
(60,546,l),
(155,582,l),
(118,490,l)
);
}
);
userData = {
com.hugojourdan.ColorFlow = {
"0" = 0;
"1" = 0;
"10" = 0;
"11" = 0;
"2" = 0;
"3" = 0;
"4" = 0;
"5" = 0;
"6" = 0;
"7" = 0;
"8" = 0;
"9" = 0;
};
};
width = 366;
},
{
layerId = "D54810B1-F9A5-4F35-A1FF-AED0599B2373";
shapes = (
{
closed = 1;
nodes = (
(173,535,l),
(226,505,l),
(188,599,l),
(282,562,l),
(252,617,l),
(283,670,l),
(188,633,l),
(226,728,l),
(171,696,l),
(118,729,l),
(156,633,l),
(61,670,l),
(91,616,l),
(60,562,l),
(155,599,l),
(118,505,l)
);
}
);
userData = {
com.hugojourdan.ColorFlow = {
"0" = 0;
"1" = 0;
"10" = 0;
"11" = 0;
"2" = 0;
"3" = 0;
"4" = 0;
"5" = 0;
"6" = 0;
"7" = 0;
"8" = 0;
"9" = 0;
};
};
width = 343;
}
);
metricLeft = quotedblleft;
metricRight = quotedblleft;
unicode = 42;
},
{
glyphname = dagger;
lastChange = "2023-08-04 17:34:22 +0000";
layers = (
{
layerId = "452AD06C-4D92-427C-8B35-838986F56274";
shapes = (
{
closed = 1;
nodes = (
(183,222,l),
(73,222,l),
(43,146,l),
(76,170,o),
(123,173,o),
(183,173,c),
(183,0,l),
(206,2,o),
(230,3,o),
(253,0,c),
(253,178,l),
(313,178,o),
(360,175,o),
(393,151,c),
(363,222,l),
(253,222,l),
(253,723,l),
(230,721,o),
(206,719,o),
(183,722,c)
);
}
);
userData = {
com.hugojourdan.ColorFlow = {
"0" = 0;
"1" = 0;
"10" = 0;
"11" = 0;
"2" = 0;
"3" = 0;
"4" = 0;
"5" = 0;
"6" = 0;
"7" = 0;
"8" = 0;
"9" = 0;
};
};
width = 461;
},
{
layerId = m004;
shapes = (
{
closed = 1;
nodes = (
(182,222,l),
(72,222,l),
(42,84,l),
(75,108,o),
(122,111,o),
(182,111,c),
(182,0,l),
(231,5,o),
(282,5,o),
(333,0,c),
(333,111,l),
(393,111,o),
(440,108,o),
(473,84,c),
(443,222,l),
(333,222,l),
(333,722,l),
(285,717,o),
(234,716,o),
(182,722,c)
);
}
);
userData = {
com.hugojourdan.ColorFlow = {
"0" = 0;
"1" = 0;
"10" = 0;
"11" = 0;
"2" = 0;
"3" = 0;
"4" = 0;
"5" = 0;
"6" = 0;
"7" = 0;
"8" = 0;
"9" = 0;
};
};
width = 515;
},
{
layerId = "D54810B1-F9A5-4F35-A1FF-AED0599B2373";
shapes = (
{
closed = 1;
nodes = (
(182,222,l),
(72,222,l),
(42,112,l),
(75,136,o),
(122,139,o),
(182,139,c),
(182,0,l),
(220,4,o),
(258,4,o),
(297,0,c),
(297,141,l),
(357,141,o),
(404,138,o),
(437,114,c),
(407,222,l),
(297,222,l),
(297,722,l),
(260,719,o),
(221,717,o),
(182,722,c)
);
}
);
userData = {
com.hugojourdan.ColorFlow = {
"0" = 0;
"1" = 0;
"10" = 0;
"11" = 0;
"2" = 0;
"3" = 0;
"4" = 0;
"5" = 0;
"6" = 0;
"7" = 0;
"8" = 0;
"9" = 0;
};
};
width = 490.53125;
}
);
note = dagger;
unicode = 8224;
},
{
glyphname = daggerdbl;
lastChange = "2023-08-04 17:34:22 +0000";
layers = (
{
layerId = "452AD06C-4D92-427C-8B35-838986F56274";
shapes = (
{
closed = 1;
nodes = (
(183,550,l),
(123,550,o),
(76,553,o),
(43,577,c),
(73,501,l),
(183,501,l),
(183,222,l),
(73,222,l),
(43,146,l),
(76,170,o),
(123,173,o),
(183,173,c),
(183,0,l),
(253,0,l),
(253,178,l),
(313,178,o),
(360,175,o),
(393,151,c),
(363,222,l),
(253,222,l),
(253,501,l),
(363,501,l),
(393,572,l),
(360,548,o),
(313,545,o),
(253,545,c),
(253,723,l),
(226,720,o),
(209,719,o),
(183,723,c)
);
}
);
userData = {
com.hugojourdan.ColorFlow = {
"0" = 0;
"1" = 0;
"10" = 0;
"11" = 0;
"2" = 0;
"3" = 0;
"4" = 0;
"5" = 0;
"6" = 0;
"7" = 0;
"8" = 0;
"9" = 0;
};
};
width = 481;
},
{
layerId = m004;
shapes = (
{
closed = 1;
nodes = (
(182,611,l),
(122,611,o),
(75,614,o),
(42,638,c),
(72,500,l),
(182,500,l),
(182,222,l),
(72,222,l),
(42,84,l),
(75,108,o),
(122,111,o),
(182,111,c),
(182,0,l),
(333,0,l),
(333,111,l),
(393,111,o),
(440,108,o),
(473,84,c),
(443,222,l),
(333,222,l),
(333,500,l),
(443,500,l),
(473,638,l),
(440,614,o),
(393,611,o),
(333,611,c),
(333,722,l),
(282,717,o),
(231,717,o),
(182,722,c)
);
}
);
userData = {
com.hugojourdan.ColorFlow = {
"0" = 0;
"1" = 0;
"10" = 0;
"11" = 0;
"2" = 0;
"3" = 0;
"4" = 0;
"5" = 0;
"6" = 0;
"7" = 0;
"8" = 0;
"9" = 0;
};
};
width = 481;
},
{
layerId = "D54810B1-F9A5-4F35-A1FF-AED0599B2373";
shapes = (
{
closed = 1;
nodes = (
(182,583,l),
(122,583,o),
(75,586,o),
(42,610,c),
(72,500,l),
(182,500,l),
(182,222,l),
(72,222,l),
(42,112,l),
(75,136,o),
(122,139,o),
(182,139,c),
(182,0,l),
(297,0,l),
(297,141,l),
(357,141,o),
(404,138,o),
(437,114,c),
(407,222,l),
(297,222,l),
(297,500,l),
(407,500,l),
(437,608,l),
(404,584,o),
(357,581,o),
(297,581,c),
(297,722,l),
(257,718,o),
(221,718,o),
(182,722,c)
);
}
);
userData = {
com.hugojourdan.ColorFlow = {
"0" = 0;
"1" = 0;
"10" = 0;
"11" = 0;
"2" = 0;
"3" = 0;
"4" = 0;
"5" = 0;
"6" = 0;
"7" = 0;
"8" = 0;
"9" = 0;
};
};
width = 481;
}
);
note = daggerdbl;
unicode = 8225;
},
{
color = 5;
glyphname = A;
kernLeft = A;
kernRight = A;
lastChange = "2023-08-04 17:34:22 +0000";
layers = (
{
anchors = (
{
name = bottom;
pos = (338,0);
},
{
name = ogonek;
pos = (624,10);
},
{
name = top;
pos = (338,722);
}
);
layerId = "452AD06C-4D92-427C-8B35-838986F56274";
shapes = (
{
closed = 1;
nodes = (
(652,0,l),
(340,673,ls),
(333,688,o),
(325,706,o),
(322,722,c),
(119,722,l),
(119,716,l),
(161,716,ls),
(236,716,o),
(258,695,o),
(277,654,cs),
(318,565,l),
(114,460,o),
(3,227,o),
(52,-12,c),
(56,-13,l),
(176,109,o),
(296,234,o),
(416,354,c),
(540,84,ls),
(554,54,o),
(563,22,o),
(553,0,c)
);
},
{
closed = 1;
nodes = (
(81,298,o),
(175,469,o),
(327,547,c),
(400,388,l),
(328,290,o),
(230,196,o),
(119,108,c)
);
}
);
userData = {
com.hugojourdan.ColorFlow = {
"0" = 0;
"1" = 0;
"10" = 0;
"11" = 0;
"2" = 0;
"3" = 0;
"4" = 0;
"5" = 0;
"6" = 0;
"7" = 0;
"8" = 0;
"9" = 0;
};
};
width = 662;
},
{
anchors = (
{
name = bottom;
pos = (430,0);
},
{
name = ogonek;
pos = (716,10);
},
{
name = top;
pos = (430,722);
}
);
guides = (
{
angle = -66.2069;
pos = (471,648);
}
);
layerId = m004;
shapes = (
{
closed = 1;
nodes = (
(765,0,l),
(463,673,ls),
(456,688,o),
(448,706,o),
(445,722,c),
(106,722,l),
(106,698,l),
(139,698,ls),
(211,698,o),
(240,674,o),
(257,636,cs),
(324,485,l),
(10,402,o),
(86,56,o),
(20,-45,c),
(31,-57,l),
(203,71,o),
(305,161,o),
(395,325,c),
(504,80,ls),
(516,53,o),
(525,22,o),
(515,0,c)
);
},
{
closed = 1;
nodes = (
(231,311,o),
(273,396,o),
(352,441,c),
(355,436,l),
(346,345,o),
(310,260,o),
(237,193,c)
);
}
);
userData = {
com.hugojourdan.ColorFlow = {
"0" = 0;
"1" = 0;
"10" = 0;
"11" = 0;
"2" = 0;
"3" = 0;
"4" = 0;
"5" = 0;
"6" = 0;
"7" = 0;
"8" = 0;
"9" = 0;
};
};
width = 785;
},
{
anchors = (
{
name = bottom;
pos = (394,0);
},
{
name = ogonek;
pos = (680,10);
},
{
name = top;
pos = (394,722);
}
);
layerId = "D54810B1-F9A5-4F35-A1FF-AED0599B2373";
shapes = (
{
closed = 1;
nodes = (
(728,0,l),
(422,673,ls),
(415,688,o),
(407,706,o),
(404,722,c),
(117,722,l),
(117,706,l),
(154,706,ls),
(228,706,o),
(253,684,o),
(271,644,cs),
(327,521,l),
(66,424,o),
(56,130,o),
(40,-30,c),
(52,-38,l),
(196,106,o),
(312,237,o),
(394,371,c),
(526,80,ls),
(539,53,o),
(547,22,o),
(537,0,c)
);
},
{
closed = 1;
nodes = (
(170,301,o),
(238,423,o),
(346,489,c),
(368,441,l),
(326,339,o),
(268,244,o),
(187,154,c)
);
}
);
userData = {
com.hugojourdan.ColorFlow = {
"0" = 0;
"1" = 0;
"10" = 0;
"11" = 0;
"2" = 0;
"3" = 0;
"4" = 0;
"5" = 0;
"6" = 0;
"7" = 0;
"8" = 0;
"9" = 0;
};
};
width = 748;
}
);
unicode = 65;
},
{
color = 4;
glyphname = A.ss01;
lastChange = "2023-08-04 17:34:22 +0000";
layers = (
{
guides = (
{
angle = 210.462;
pos = (221,222);
}
);
layerId = "D54810B1-F9A5-4F35-A1FF-AED0599B2373";
shapes = (
{
closed = 1;
nodes = (
(343,579,l),
(133,510,o),
(40,360,o),
(40,202,cs),
(40,9,o),
(185,-181,o),
(414,-181,cs),
(521,-181,o),
(630,-134,o),
(708,-37,c),
(700,-28,l),
(637,-81,o),
(566,-106,o),
(500,-106,cs),
(334,-106,o),
(223,49,o),
(200,209,c),
(437,374,l),
(567,87,ls),
(582,54,o),
(590,22,o),
(580,0,c),
(776,0,l),
(569,456,l),
(679,543,l),
(674,550,l),
(554,488,l),
(470,673,ls),
(463,688,o),
(455,706,o),
(452,722,c),
(159,722,l),
(159,706,l),
(197,706,ls),
(270,706,o),
(295,684,o),
(314,644,cs)
);
},
{
closed = 1;
nodes = (
(209,414,o),
(261,504,o),
(360,542,c),
(414,423,l),
(197,314,l)
);
}
);
userData = {
com.hugojourdan.ColorFlow = {
"0" = 0;
"1" = 0;
"10" = 0;
"11" = 0;
"2" = 0;
"3" = 0;
"4" = 0;
"5" = 0;
"6" = 0;
"7" = 0;
"8" = 0;
"9" = 0;
};
};
width = 796;
},
{
layerId = m004;
name = Nera;
shapes = (
{
closed = 1;
nodes = (
(313,567,l),
(109,495,o),
(20,340,o),
(20,187,cs),
(20,-9,o),
(168,-200,o),
(397,-200,cs),
(500,-200,o),
(608,-158,o),
(701,-61,c),
(681,-39,l),
(629,-85,o),
(571,-106,o),
(514,-106,cs),
(361,-106,o),
(257,37,o),
(226,190,c),
(424,325,l),
(532,87,ls),
(547,54,o),
(555,22,o),
(545,0,c),
(813,0,l),
(611,443,l),
(700,518,l),
(689,537,l),
(588,493,l),
(506,673,ls),
(499,688,o),
(491,706,o),
(488,722,c),
(131,722,l),
(131,698,l),
(165,698,ls),
(236,698,o),
(265,674,o),
(282,636,cs)
);
},
{
closed = 1;
nodes = (
(231,416,o),
(267,487,o),
(332,526,c),
(386,409,l),
(220,334,l)
);
}
);
userData = {
com.hugojourdan.ColorFlow = {
"0" = 0;
"1" = 0;
"10" = 0;
"11" = 0;
"2" = 0;
"3" = 0;
"4" = 0;
"5" = 0;
"6" = 0;
"7" = 0;
"8" = 0;
"9" = 0;
};
};
width = 833;
},
{
layerId = "452AD06C-4D92-427C-8B35-838986F56274";
shapes = (
{
closed = 1;
nodes = (
(295,577,l),
(117,502,o),
(40,355,o),
(40,213,cs),
(40,24,o),
(176,-159,o),
(390,-159,cs),
(494,-159,o),
(600,-117,o),
(698,-41,c),
(695,-36,l),
(614,-90,o),
(527,-119,o),
(446,-119,cs),
(264,-119,o),
(127,19,o),
(104,200,c),
(384,384,l),
(522,84,ls),
(541,44,o),
(545,17,o),
(515,0,c),
(634,0,l),
(440,419,l),
(573,505,l),
(570,510,l),
(433,433,l),
(322,673,ls),
(315,688,o),
(307,706,o),
(304,722,c),
(101,722,l),
(101,716,l),
(143,716,ls),
(218,716,o),
(241,695,o),
(260,654,cs)
);
},
{
closed = 1;
nodes = (
(90,380,o),
(150,494,o),
(302,561,c),
(376,400,l),
(101,243,l)
);
}
);
userData = {
com.hugojourdan.ColorFlow = {
"0" = 0;
"1" = 0;
"10" = 0;
"11" = 0;
"2" = 0;
"3" = 0;
"4" = 0;
"5" = 0;
"6" = 0;
"7" = 0;
"8" = 0;
"9" = 0;
};
};
width = 708;
}
);
metricLeft = A;
metricRight = A;
},
{
color = 4;
glyphname = A.ss02;
kernLeft = A;
kernRight = A;
lastChange = "2023-08-04 17:34:22 +0000";
layers = (
{
anchors = (
{
name = bottom;
pos = (239,0);
},
{
name = ogonek;
pos = (517,10);
},
{
name = top;
pos = (239,722);
}
);
layerId = "D54810B1-F9A5-4F35-A1FF-AED0599B2373";
shapes = (
{
closed = 1;
nodes = (
(316,585,l),
(42,0,l),
(264,0,l),
(264,13,l),
(194,14,o),
(172,35,o),
(167,66,cs),
(165,79,o),
(168,104,o),
(178,143,c),
(518,143,l),
(543,87,ls),
(558,54,o),
(566,22,o),
(556,0,c),
(747,0,l),
(441,673,ls),
(434,688,o),
(426,706,o),
(423,722,c),
(135,722,l),
(135,706,l),
(172,706,ls),
(246,706,o),
(271,684,o),
(289,644,cs)
);
},
{
closed = 1;
nodes = (
(209,238,o),
(219,266,o),
(232,298,c),
(447,298,l),
(486,213,l),
(200,213,l)
);
},
{
closed = 1;
nodes = (
(283,417,o),
(309,472,o),
(339,535,c),
(415,368,l),
(262,368,l)
);
}
);
userData = {
com.hugojourdan.ColorFlow = {
"0" = 0;
"1" = 0;
"10" = 0;
"11" = 0;
"2" = 0;
"3" = 0;
"4" = 0;
"5" = 0;
"6" = 0;
"7" = 0;
"8" = 0;
"9" = 0;
};
};
width = 767;
},
{
anchors = (
{
name = bottom;
pos = (263,0);
},
{
name = ogonek;
pos = (541,10);
},
{
name = top;
pos = (263,722);
}
);
layerId = m004;
name = Nera;
shapes = (
{
closed = 1;
nodes = (
(306,590,l),
(29,0,l),
(282,0,l),
(282,25,l),
(212,26,o),
(200,52,o),
(195,83,cs),
(194,90,o),
(194,100,o),
(195,114,c),
(523,114,l),
(535,87,ls),
(550,54,o),
(558,22,o),
(548,0,c),
(816,0,l),
(509,673,ls),
(502,688,o),
(494,706,o),
(491,722,c),
(134,722,l),
(134,698,l),
(168,698,ls),
(239,698,o),
(268,674,o),
(285,636,cs)
);
},
{
closed = 1;
nodes = (
(224,227,o),
(234,253,o),
(246,284,c),
(445,284,l),
(482,204,l),
(217,204,l)
);
},
{
closed = 1;
nodes = (
(300,413,o),
(320,458,o),
(344,507,c),
(404,374,l),
(283,374,l)
);
}
);
userData = {
com.hugojourdan.ColorFlow = {
"0" = 0;
"1" = 0;
"10" = 0;
"11" = 0;
"2" = 0;
"3" = 0;
"4" = 0;
"5" = 0;
"6" = 0;
"7" = 0;
"8" = 0;
"9" = 0;
};
};
width = 836;
},
{
anchors = (
{
name = bottom;
pos = (256,0);
},
{
name = ogonek;
pos = (534,10);
},
{
name = top;
pos = (256,722);
}
);
layerId = "452AD06C-4D92-427C-8B35-838986F56274";
shapes = (
{
closed = 1;
nodes = (
(268,536,l),
(20,0,l),
(189,0,l),
(189,6,l),
(110,11,o),
(92,21,o),
(93,53,cs),
(94,72,o),
(109,113,o),
(128,160,c),
(441,160,l),
(476,84,ls),
(490,54,o),
(499,22,o),
(489,0,c),
(588,0,l),
(276,673,ls),
(269,688,o),
(261,706,o),
(258,722,c),
(55,722,l),
(55,716,l),
(97,716,ls),
(172,716,o),
(195,695,o),
(214,654,cs)
);
},
{
closed = 1;
nodes = (
(150,213,o),
(165,247,o),
(185,292,c),
(380,292,l),
(432,180,l),
(136,180,l)
);
},
{
closed = 1;
nodes = (
(224,375,o),
(253,439,o),
(283,502,c),
(371,312,l),
(194,312,l)
);
}
);
userData = {
com.hugojourdan.ColorFlow = {
"0" = 0;
"1" = 0;
"10" = 0;
"11" = 0;
"2" = 0;
"3" = 0;
"4" = 0;
"5" = 0;
"6" = 0;
"7" = 0;
"8" = 0;
"9" = 0;
};
};
width = 598;
}
);
metricRight = A;
},
{
color = 5;
glyphname = AE;
kernLeft = A;
kernRight = E;
lastChange = "2023-08-04 17:34:22 +0000";
layers = (
{
anchors = (
{
name = bottom;
pos = (408,0);
},
{
name = top;
pos = (408,722);
}
);
layerId = "452AD06C-4D92-427C-8B35-838986F56274";
shapes = (
{
closed = 1;
nodes = (
(48,-11,l),
(132,73,o),
(274,213,o),
(382,331,c),
(382,84,ls),
(382,40,o),
(380,24,o),
(372,0,c),
(766,0,l),
(782,53,o),
(799,106,o),
(815,159,c),
(807,163,l),
(748,46,o),
(653,26,o),
(455,26,c),
(454,417,l),
(598,417,ls),
(677,417,o),
(717,408,o),
(750,365,c),
(754,367,l),
(754,483,l),
(750,485,l),
(717,453,o),
(677,433,o),
(598,433,cs),
(454,433,l),
(454,704,l),
(557,704,ls),
(665,704,o),
(697,690,o),
(756,587,c),
(763,590,l),
(724,722,l),
(309,722,l),
(309,716,l),
(329,716,ls),
(365,716,o),
(381,697,o),
(381,652,cs),
(381,593,l),
(267,546,o),
(177,464,o),
(115,368,cs),
(39,248,o),
(11,109,o),
(42,-11,c)
);
},
{
closed = 1;
nodes = (
(78,269,o),
(190,484,o),
(381,572,c),
(382,386,l),
(299,269,o),
(218,188,o),
(124,107,c)
);
}
);
userData = {
com.hugojourdan.ColorFlow = {
"0" = 0;
"1" = 0;
"10" = 0;
"11" = 0;
"2" = 0;
"3" = 0;
"4" = 0;
"5" = 0;
"6" = 0;
"7" = 0;
"8" = 0;
"9" = 0;
};
};
width = 845;
},
{
anchors = (
{
name = bottom;
pos = (504,0);
},
{
name = top;
pos = (504,722);
}
);
layerId = m004;
shapes = (
{
closed = 1;
nodes = (
(26,-78,l),
(168,25,o),
(306,129,o),
(412,269,c),
(412,84,ls),
(412,48,o),
(406,24,o),
(392,0,c),
(923,0,l),
(938,52,o),
(959,115,o),
(988,262,c),
(960,269,l),
(911,128,o),
(783,92,o),
(612,90,c),
(612,411,l),
(739,410,ls),
(818,409,o),
(848,406,o),
(863,364,c),
(880,368,l),
(879,529,l),
(863,531,l),
(848,489,o),
(818,486,o),
(739,485,cs),
(612,484,l),
(612,652,l),
(686,652,ls),
(848,652,o),
(901,601,o),
(948,518,c),
(970,527,l),
(926,722,l),
(310,722,l),
(310,700,l),
(334,700,ls),
(385,700,o),
(412,681,o),
(412,643,cs),
(412,530,l),
(266,512,o),
(190,439,o),
(137,318,cs),
(83,193,o),
(58,8,o),
(10,-60,c)
);
},
{
closed = 1;
nodes = (
(272,396,o),
(321,478,o),
(411,476,c),
(410,460,ls),
(397,330,o),
(350,274,o),
(261,210,c)
);
}
);
userData = {
com.hugojourdan.ColorFlow = {
"0" = 0;
"1" = 0;
"10" = 0;
"11" = 0;
"2" = 0;
"3" = 0;
"4" = 0;
"5" = 0;
"6" = 0;
"7" = 0;
"8" = 0;
"9" = 0;
};
};
width = 1021;
},
{
anchors = (
{
name = bottom;
pos = (446,0);
},
{
name = top;
pos = (446,722);
}
);
layerId = "D54810B1-F9A5-4F35-A1FF-AED0599B2373";
shapes = (
{
closed = 1;
nodes = (
(22,-48,l),
(137,47,o),
(277,167,o),
(384,297,c),
(384,84,ls),
(384,44,o),
(380,24,o),
(369,0,c),
(837,0,l),
(853,52,o),
(872,111,o),
(895,215,c),
(876,221,l),
(823,91,o),
(710,62,o),
(526,61,c),
(526,414,l),
(661,413,ls),
(740,413,o),
(774,407,o),
(797,364,c),
(809,368,l),
(808,508,l),
(797,510,l),
(774,473,o),
(740,462,o),
(661,461,cs),
(526,461,l),
(526,676,l),
(613,676,ls),
(751,676,o),
(794,641,o),
(847,549,c),
(862,556,l),
(820,722,l),
(295,722,l),
(295,707,l),
(317,707,ls),
(362,707,o),
(384,688,o),
(384,647,cs),
(384,559,l),
(252,527,o),
(170,450,o),
(113,341,cs),
(49,218,o),
(22,54,o),
(10,-38,c)
);
},
{
closed = 1;
nodes = (
(170,338,o),
(247,481,o),
(383,520,c),
(383,426,l),
(338,302,o),
(276,235,o),
(185,163,c)
);
}
);
userData = {
com.hugojourdan.ColorFlow = {
"0" = 0;
"1" = 0;
"10" = 0;
"11" = 0;
"2" = 0;
"3" = 0;
"4" = 0;
"5" = 0;
"6" = 0;
"7" = 0;
"8" = 0;
"9" = 0;
};
};
width = 925;
}
);
metricRight = E;
unicode = 198;
},
{
color = 5;
glyphname = B;
kernLeft = D;
kernRight = B;
lastChange = "2023-08-04 17:34:22 +0000";
layers = (
{
anchors = (
{
name = bottom;
pos = (300,0);
},
{
name = top;
pos = (300,722);
}
);
layerId = "452AD06C-4D92-427C-8B35-838986F56274";
shapes = (
{
closed = 1;
nodes = (
(118,-1,o),
(157,-1,o),
(196,2,cs),
(379,16,o),
(567,80,o),
(567,253,cs),
(567,384,o),
(455,469,o),
(282,493,c),
(359,522,o),
(438,581,o),
(438,652,cs),
(438,705,o),
(389,731,o),
(327,731,cs),
(274,731,o),
(211,712,o),
(162,676,c),
(162,722,l),
(20,722,l),
(20,716,l),
(40,716,ls),
(76,716,o),
(92,697,o),
(92,652,cs),
(92,84,ls),
(92,40,o),
(90,24,o),
(82,0,c)
);
},
{
closed = 1;
nodes = (
(162,654,l),
(200,682,o),
(243,696,o),
(280,696,cs),
(327,696,o),
(363,673,o),
(363,625,cs),
(363,568,o),
(310,507,o),
(193,484,c),
(193,478,l),
(354,478,o),
(486,407,o),
(486,253,cs),
(486,92,o),
(345,29,o),
(162,24,c)
);
}
);
userData = {
com.hugojourdan.ColorFlow = {
"0" = 0;
"1" = 0;
"10" = 0;
"11" = 0;
"2" = 0;
"3" = 0;
"4" = 0;
"5" = 0;
"6" = 0;
"7" = 0;
"8" = 0;
"9" = 0;
};
};
width = 597;
},
{
anchors = (
{
name = bottom;
pos = (296,0);
},
{
name = top;
pos = (296,722);
}
);
layerId = m004;
shapes = (
{
closed = 1;
nodes = (
(165,-5,o),
(262,-5,o),
(359,0,cs),
(560,10,o),
(664,128,o),
(664,250,cs),
(664,353,o),
(588,452,o),
(431,464,c),
(536,480,o),
(587,548,o),
(587,610,cs),
(587,684,o),
(523,726,o),
(439,726,cs),
(389,726,o),
(334,713,o),
(288,694,c),
(288,722,l),
(20,722,l),
(20,698,l),
(36,698,ls),
(70,698,o),
(88,676,o),
(88,634,cs),
(88,84,ls),
(88,48,o),
(82,24,o),
(68,0,c)
);
},
{
closed = 1;
nodes = (
(288,639,l),
(303,644,o),
(317,646,o),
(332,646,cs),
(384,646,o),
(416,607,o),
(416,564,cs),
(416,517,o),
(382,476,o),
(288,477,c),
(288,429,l),
(408,434,o),
(449,349,o),
(449,251,cs),
(449,157,o),
(399,63,o),
(288,70,c)
);
}
);
userData = {
com.hugojourdan.ColorFlow = {
"0" = 0;
"1" = 0;
"10" = 0;
"11" = 0;
"2" = 0;
"3" = 0;
"4" = 0;
"5" = 0;
"6" = 0;
"7" = 0;
"8" = 0;
"9" = 0;
};
};
width = 694;
},
{
anchors = (
{
name = bottom;
pos = (302,0);
},
{
name = top;
pos = (302,722);
}
);
layerId = "D54810B1-F9A5-4F35-A1FF-AED0599B2373";
shapes = (
{
closed = 1;
nodes = (
(166,-2,o),
(229,-2,o),
(292,0,cs),
(496,6,o),
(625,114,o),
(625,251,cs),
(625,367,o),
(532,460,o),
(372,477,c),
(459,495,o),
(524,563,o),
(524,629,cs),
(524,691,o),
(470,727,o),
(392,727,cs),
(339,727,o),
(282,712,o),
(235,684,c),
(235,722,l),
(24,722,l),
(24,706,l),
(42,706,ls),
(77,706,o),
(94,686,o),
(94,642,cs),
(94,84,ls),
(94,44,o),
(90,24,o),
(79,0,c)
);
},
{
closed = 1;
nodes = (
(235,648,l),
(259,663,o),
(285,670,o),
(309,670,cs),
(364,670,o),
(397,636,o),
(397,592,cs),
(397,540,o),
(354,490,o),
(235,480,c),
(235,451,l),
(388,454,o),
(470,375,o),
(470,252,cs),
(470,128,o),
(378,45,o),
(235,46,c)
);
}
);
userData = {
com.hugojourdan.ColorFlow = {
"0" = 0;
"1" = 0;
"10" = 0;
"11" = 0;
"2" = 0;
"3" = 0;
"4" = 0;
"5" = 0;
"6" = 0;
"7" = 0;
"8" = 0;
"9" = 0;
};
};
width = 662.20312;
}
);
unicode = 66;
},
{
color = 5;
glyphname = C;
kernLeft = O;
kernRight = C;
lastChange = "2023-08-04 17:34:22 +0000";
layers = (
{
anchors = (
{
name = bottom;
pos = (369,0);
},
{
name = top;
pos = (369,722);
}
);
layerId = "452AD06C-4D92-427C-8B35-838986F56274";
shapes = (
{
closed = 1;
nodes = (
(517,-15,o),
(592,1,o),
(663,48,c),
(701,184,l),
(695,188,l),
(632,58,o),
(537,8,o),
(436,2,cs),
(271,-8,o),
(136,124,o),
(126,359,cs),
(117,580,o),
(257,715,o),
(437,715,cs),
(560,715,o),
(637,651,o),
(668,550,c),
(677,551,l),
(665,690,l),
(596,720,o),
(537,735,o),
(464,735,cs),
(228,735,o),
(39,593,o),
(50,333,cs),
(60,100,o),
(227,-29,o),
(437,-19,cs)
);
}
);
userData = {
com.hugojourdan.ColorFlow = {
"0" = 0;
"1" = 0;
"10" = 0;
"11" = 0;
"2" = 0;
"3" = 0;
"4" = 0;
"5" = 0;
"6" = 0;
"7" = 0;
"8" = 0;
"9" = 0;
};
};
width = 731;
},
{
anchors = (
{
name = bottom;
pos = (350,0);
},
{
name = top;
pos = (408,722);
}
);
layerId = m004;
shapes = (
{
closed = 1;
nodes = (
(504,-15,o),
(590,-1,o),
(674,22,c),
(697,297,l),
(681,300,l),
(642,189,o),
(553,61,o),
(447,60,cs),
(313,59,o),
(249,223,o),
(249,375,cs),
(249,557,o),
(337,667,o),
(432,667,cs),
(534,667,o),
(605,555,o),
(625,443,c),
(640,443,l),
(676,682,l),
(618,717,o),
(529,739,o),
(434,739,cs),
(196,740,o),
(30,603,o),
(30,356,cs),
(30,122,o),
(177,-15,o),
(421,-15,cs)
);
}
);
userData = {
com.hugojourdan.ColorFlow = {
"0" = 0;
"1" = 0;
"10" = 0;
"11" = 0;
"2" = 0;
"3" = 0;
"4" = 0;
"5" = 0;
"6" = 0;
"7" = 0;
"8" = 0;
"9" = 0;
};
};
width = 727;
},
{
anchors = (
{
name = bottom;
pos = (365,0);
},
{
name = top;
pos = (365,722);
}
);
layerId = "D54810B1-F9A5-4F35-A1FF-AED0599B2373";
shapes = (
{
closed = 1;
nodes = (
(516,-15,o),
(597,0,o),
(675,34,c),
(705,246,l),
(693,249,l),
(643,130,o),
(552,37,o),
(448,34,cs),
(300,29,o),
(205,178,o),
(200,368,cs),
(196,567,o),
(307,690,o),
(440,690,cs),
(552,690,o),
(625,599,o),
(650,491,c),
(663,492,l),
(677,686,l),
(614,718,o),
(539,737,o),
(454,737,cs),
(218,738,o),
(35,597,o),
(40,346,cs),
(45,112,o),
(206,-21,o),
(434,-17,cs)
);
}
);
userData = {
com.hugojourdan.ColorFlow = {
"0" = 0;
"1" = 0;
"10" = 0;
"11" = 0;
"2" = 0;
"3" = 0;
"4" = 0;
"5" = 0;
"6" = 0;
"7" = 0;
"8" = 0;
"9" = 0;
};
};
width = 739;
}
);
metricLeft = O;
unicode = 67;
},
{
color = 4;
glyphname = C.ss01;
kernLeft = O;
kernRight = C;
lastChange = "2023-08-04 17:34:22 +0000";
layers = (
{
anchors = (
{
name = bottom;
pos = (363,0);
},
{
name = top;
pos = (363,722);
}
);
layerId = "D54810B1-F9A5-4F35-A1FF-AED0599B2373";
shapes = (
{
closed = 1;
nodes = (
(251,734,o),
(35,604,o),
(40,346,cs),
(45,112,o),
(206,-21,o),
(434,-17,cs),
(516,-15,o),
(597,0,o),
(675,34,c),
(705,246,l),
(693,249,l),
(643,130,o),
(552,37,o),
(448,34,cs),
(300,29,o),
(205,178,o),
(200,368,cs),
(197,520,o),
(258,634,o),
(359,670,cs),
(366,673,o),
(370,671,o),
(370,664,cs),
(370,653,o),
(370,635,o),
(371,619,cs),
(381,491,o),
(484,388,o),
(484,262,cs),
(484,239,o),
(482,213,o),
(478,183,c),
(490,181,l),
(502,259,o),
(510,269,o),
(584,281,c),
(566,465,o),
(478,520,o),
(469,656,cs),
(468,674,o),
(473,683,o),
(488,684,cs),
(572,690,o),
(619,635,o),
(663,539,c),
(677,545,l),
(628,664,o),
(621,728,o),
(628,778,c),
(613,780,l),
(609,737,o),
(586,736,o),
(478,735,cs)
);
}
);
userData = {
com.hugojourdan.ColorFlow = {
"0" = 0;
"1" = 0;
"10" = 0;
"11" = 0;
"2" = 0;
"3" = 0;
"4" = 0;
"5" = 0;
"6" = 0;
"7" = 0;
"8" = 0;
"9" = 0;
};
};
width = 739;
},
{
anchors = (
{
name = bottom;
pos = (378,0);
},
{
name = top;
pos = (378,722);
}
);
layerId = m004;
name = Nera;
shapes = (
{
closed = 1;
nodes = (
(232,747,o),
(30,615,o),
(30,357,cs),
(30,144,o),
(175,-15,o),
(432,-15,cs),
(515,-15,o),
(601,-1,o),
(685,22,c),
(708,297,l),
(688,300,l),
(635,138,o),
(542,59,o),
(456,59,cs),
(353,59,o),
(259,171,o),
(259,378,cs),
(259,490,o),
(295,598,o),
(360,634,cs),
(365,637,o),
(369,635,o),
(368,629,cs),
(367,620,o),
(367,610,o),
(367,602,cs),
(367,476,o),
(458,359,o),
(487,225,cs),
(493,197,o),
(497,159,o),
(496,129,c),
(514,129,l),
(518,207,o),
(536,261,o),
(619,271,c),
(606,413,o),
(511,542,o),
(510,632,cs),
(510,652,o),
(519,665,o),
(538,668,cs),
(589,677,o),
(658,614,o),
(701,506,c),
(720,514,l),
(671,648,o),
(661,742,o),
(668,798,c),
(652,800,l),
(647,752,o),
(621,751,o),
(500,750,cs)
);
}
);
userData = {
com.hugojourdan.ColorFlow = {
"0" = 0;
"1" = 0;
"10" = 0;
"11" = 0;
"2" = 0;
"3" = 0;
"4" = 0;
"5" = 0;
"6" = 0;
"7" = 0;
"8" = 0;
"9" = 0;
};
};
width = 750;
},
{
anchors = (
{
name = bottom;
pos = (373,0);
},
{
name = top;
pos = (373,722);
}
);
layerId = "452AD06C-4D92-427C-8B35-838986F56274";
shapes = (
{
closed = 1;
nodes = (
(229,738,o),
(39,609,o),
(50,339,cs),
(59,106,o),
(224,-29,o),
(434,-19,cs),
(514,-15,o),
(589,1,o),
(660,48,c),
(698,184,l),
(692,188,l),
(629,58,o),
(534,8,o),
(433,2,cs),
(268,-8,o),
(136,130,o),
(126,365,cs),
(118,563,o),
(225,695,o),
(396,716,cs),
(423,719,o),
(433,715,o),
(433,708,cs),
(433,698,o),
(408,682,o),
(377,679,c),
(370,526,o),
(483,441,o),
(485,306,cs),
(485,278,o),
(482,247,o),
(476,207,c),
(483,206,l),
(493,288,o),
(504,308,o),
(547,318,c),
(540,466,o),
(442,550,o),
(442,669,cs),
(442,711,o),
(467,715,o),
(510,715,cs),
(617,715,o),
(640,688,o),
(695,594,c),
(701,597,l),
(644,708,o),
(640,743,o),
(633,792,c),
(627,792,l),
(630,745,o),
(624,738,o),
(466,738,cs)
);
}
);
userData = {
com.hugojourdan.ColorFlow = {
"0" = 0;
"1" = 0;
"10" = 0;
"11" = 0;
"2" = 0;
"3" = 0;
"4" = 0;
"5" = 0;
"6" = 0;
"7" = 0;
"8" = 0;
"9" = 0;
};
};
width = 731;
}
);
metricLeft = C;
metricRight = C;
},
{
color = 5;
glyphname = D;
kernLeft = D;
kernRight = O;
lastChange = "2023-08-04 17:34:22 +0000";
layers = (
{
anchors = (
{
name = bottom;
pos = (327,0);
},
{
name = center;
pos = (327,361);
},
{
name = top;
pos = (327,722);
}
);
layerId = "452AD06C-4D92-427C-8B35-838986F56274";
shapes = (
{
closed = 1;
nodes = (
(186,0,ls),
(523,0,o),
(669,165,o),
(668,383,cs),
(667,589,o),
(533,730,o),
(266,725,cs),
(210,724,o),
(180,722,o),
(107,722,cs),
(25,722,l),
(25,716,l),
(45,716,ls),
(81,716,o),
(97,697,o),
(97,652,cs),
(97,84,ls),
(97,40,o),
(95,24,o),
(87,0,c)
);
},
{
closed = 1;
nodes = (
(167,697,l),
(196,701,o),
(221,704,o),
(246,704,cs),
(458,704,o),
(588,577,o),
(589,385,cs),
(590,143,o),
(441,24,o),
(167,24,c)
);
}
);
userData = {
com.hugojourdan.ColorFlow = {
"0" = 0;
"1" = 0;
"10" = 0;
"11" = 0;
"2" = 0;
"3" = 0;
"4" = 0;
"5" = 0;
"6" = 0;
"7" = 0;
"8" = 0;
"9" = 0;
};
};
width = 723;
},
{
anchors = (
{
name = bottom;
pos = (358,0);
},
{
name = center;
pos = (358,361);
},
{
name = top;
pos = (358,722);
}
);
layerId = m004;
shapes = (
{
closed = 1;
nodes = (
(364,0,ls),
(626,0,o),
(763,168,o),
(763,378,cs),
(763,571,o),
(637,722,o),
(372,723,cs),
(269,723,o),
(182,721,o),
(99,722,cs),
(21,723,l),
(20,699,l),
(36,699,ls),
(70,698,o),
(88,676,o),
(88,634,cs),
(88,84,ls),
(88,48,o),
(82,24,o),
(68,0,c)
);
},
{
closed = 1;
nodes = (
(288,660,l),
(322,661,o),
(352,657,o),
(379,647,cs),
(482,612,o),
(533,508,o),
(533,379,cs),
(533,222,o),
(431,59,o),
(288,70,c)
);
}
);
userData = {
com.hugojourdan.ColorFlow = {
"0" = 0;
"1" = 0;
"10" = 0;
"11" = 0;
"2" = 0;
"3" = 0;
"4" = 0;
"5" = 0;
"6" = 0;
"7" = 0;
"8" = 0;
"9" = 0;
};
};
width = 793;
},
{
anchors = (
{
name = bottom;
pos = (348,0);
},
{
name = center;
pos = (348,361);
},
{
name = top;
pos = (348,722);
}
);
layerId = "D54810B1-F9A5-4F35-A1FF-AED0599B2373";
shapes = (
{
closed = 1;
nodes = (
(300,0,ls),
(584,0,o),
(725,167,o),
(724,380,cs),
(724,579,o),
(594,726,o),
(329,724,cs),
(247,723,o),
(185,721,o),
(108,722,cs),
(28,723,l),
(27,707,l),
(45,707,ls),
(80,706,o),
(97,686,o),
(97,642,cs),
(97,84,ls),
(97,44,o),
(93,24,o),
(82,0,c)
);
},
{
closed = 1;
nodes = (
(238,677,l),
(269,679,o),
(297,678,o),
(323,673,c),
(476,654,o),
(562,539,o),
(563,382,cs),
(563,186,o),
(440,43,o),
(238,49,c)
);
}
);
userData = {
com.hugojourdan.ColorFlow = {
"0" = 0;
"1" = 0;
"10" = 0;
"11" = 0;
"2" = 0;
"3" = 0;
"4" = 0;
"5" = 0;
"6" = 0;
"7" = 0;
"8" = 0;
"9" = 0;
};
};
width = 765.8125;
}
);
unicode = 68;
},
{
color = 4;
glyphname = D.ss01;
kernLeft = O;
kernRight = O;
lastChange = "2023-08-04 17:34:22 +0000";
layers = (
{
anchors = (
{
name = bottom;
pos = (402,0);
},
{
name = center;
pos = (402,361);
},
{
name = top;
pos = (402,722);
}
);
layerId = "D54810B1-F9A5-4F35-A1FF-AED0599B2373";
shapes = (
{
closed = 1;
nodes = (
(422,694,l),
(198,709,o),
(40,584,o),
(40,353,cs),
(40,170,o),
(165,-19,o),
(419,-19,cs),
(607,-19,o),
(795,106,o),
(795,360,cs),
(794,581,o),
(683,747,o),
(408,771,cs),
(244,786,o),
(188,779,o),
(188,858,cs),
(188,878,l),
(173,878,l),
(173,729,l),
(473,759,o),
(621,658,o),
(625,364,cs),
(628,142,o),
(524,37,o),
(421,37,cs),
(280,37,o),
(209,207,o),
(209,373,cs),
(209,545,o),
(274,686,o),
(422,681,c)
);
}
);
userData = {
com.hugojourdan.ColorFlow = {
"0" = 0;
"1" = 0;
"10" = 0;
"11" = 0;
"2" = 0;
"3" = 0;
"4" = 0;
"5" = 0;
"6" = 0;
"7" = 0;
"8" = 0;
"9" = 0;
};
};
width = 835;
},
{
anchors = (
{
name = bottom;
pos = (418,0);
},
{
name = center;
pos = (418,361);
},
{
name = top;
pos = (418,722);
}
);
layerId = m004;
name = Nera;
shapes = (
{
closed = 1;
nodes = (
(497,664,l),
(200,768,o),
(30,552,o),
(30,349,cs),
(30,167,o),
(154,-20,o),
(419,-19,cs),
(683,-18,o),
(785,181,o),
(784,393,cs),
(783,620,o),
(677,723,o),
(490,768,cs),
(332,806,o),
(159,796,o),
(152,897,cs),
(150,924,l),
(128,924,l),
(124,712,l),
(400,745,o),
(542,630,o),
(549,374,cs),
(556,133,o),
(488,59,o),
(416,59,cs),
(341,59,o),
(269,142,o),
(262,354,cs),
(253,642,o),
(436,675,o),
(497,584,c)
);
}
);
userData = {
com.hugojourdan.ColorFlow = {
"0" = 0;
"1" = 0;
"10" = 0;
"11" = 0;
"2" = 0;
"3" = 0;
"4" = 0;
"5" = 0;
"6" = 0;
"7" = 0;
"8" = 0;
"9" = 0;
};
};
width = 814;
},
{
anchors = (
{
name = bottom;
pos = (415,0);
},
{
name = center;
pos = (415,361);
},
{
name = top;
pos = (415,722);
}
);
layerId = "452AD06C-4D92-427C-8B35-838986F56274";
shapes = (
{
closed = 1;
nodes = (
(429,695,l),
(234,685,o),
(50,554,o),
(50,340,cs),
(50,104,o),
(237,-16,o),
(424,-16,cs),
(667,-16,o),
(803,163,o),
(803,347,cs),
(803,536,o),
(670,699,o),
(446,731,cs),
(254,758,o),
(197,748,o),
(194,841,cs),
(193,869,l),
(186,869,l),
(186,720,l),
(523,732,o),
(725,668,o),
(725,361,cs),
(725,188,o),
(626,9,o),
(433,9,cs),
(281,9,o),
(127,127,o),
(127,343,cs),
(127,546,o),
(225,670,o),
(429,689,c)
);
}
);
userData = {
com.hugojourdan.ColorFlow = {
"0" = 0;
"1" = 0;
"10" = 0;
"11" = 0;
"2" = 0;
"3" = 0;
"4" = 0;
"5" = 0;
"6" = 0;
"7" = 0;
"8" = 0;
"9" = 0;
};
};
width = 853;
}
);
metricLeft = O;
metricRight = O;
},
{
color = 5;
glyphname = E;
kernLeft = D;
kernRight = E;
lastChange = "2023-08-04 17:34:22 +0000";
layers = (
{
anchors = (
{
name = bottom;
pos = (273,0);
},
{
name = ogonek;
pos = (509,10);
},
{
name = top;
pos = (273,722);
},
{
name = topleft;
pos = (-2,722);
}
);
layerId = "452AD06C-4D92-427C-8B35-838986F56274";
shapes = (
{
closed = 1;
nodes = (
(473,0,l),
(521,162,l),
(514,165,l),
(456,45,o),
(361,24,o),
(162,24,c),
(162,416,l),
(330,416,ls),
(415,416,o),
(445,405,o),
(457,366,c),
(462,367,l),
(462,486,l),
(457,487,l),
(445,452,o),
(415,436,o),
(330,436,cs),
(162,436,l),
(162,698,l),
(265,698,ls),
(373,698,o),
(405,690,o),
(464,587,c),
(470,590,l),
(432,722,l),
(20,722,l),
(20,716,l),
(40,716,ls),
(76,716,o),
(92,697,o),
(92,652,cs),
(92,84,ls),
(92,40,o),
(90,24,o),
(82,0,c)
);
}
);
userData = {
com.hugojourdan.ColorFlow = {
"0" = 0;
"1" = 0;
"10" = 0;
"11" = 0;
"2" = 0;
"3" = 0;
"4" = 0;
"5" = 0;
"6" = 0;
"7" = 0;
"8" = 0;
"9" = 0;
};
};
width = 551;
},
{
anchors = (
{
name = bottom;
pos = (353,0);
},
{
name = ogonek;
pos = (589,10);
},
{
name = top;
pos = (304,722);
},
{
name = topleft;
pos = (78,722);
}
);
layerId = m004;
shapes = (
{
closed = 1;
nodes = (
(599,0,l),
(651,261,l),
(624,269,l),
(586,128,o),
(459,92,o),
(288,90,c),
(288,413,l),
(365,412,ls),
(444,411,o),
(524,406,o),
(539,364,c),
(556,368,l),
(556,529,l),
(539,531,l),
(524,489,o),
(444,484,o),
(365,483,cs),
(288,482,l),
(288,652,l),
(362,652,ls),
(524,652,o),
(577,601,o),
(624,518,c),
(646,527,l),
(602,722,l),
(20,722,l),
(20,698,l),
(36,698,ls),
(70,698,o),
(88,676,o),
(88,634,cs),
(88,84,ls),
(88,48,o),
(82,24,o),
(68,0,c)
);
}
);
userData = {
com.hugojourdan.ColorFlow = {
"0" = 0;
"1" = 0;
"10" = 0;
"11" = 0;
"2" = 0;
"3" = 0;
"4" = 0;
"5" = 0;
"6" = 0;
"7" = 0;
"8" = 0;
"9" = 0;
};
};
width = 684;
},
{
anchors = (
{
name = bottom;
pos = (322,0);
},
{
name = ogonek;
pos = (558,10);
},
{
name = top;
pos = (322,722);
},
{
name = topleft;
pos = (47,722);
}
);
layerId = "D54810B1-F9A5-4F35-A1FF-AED0599B2373";
shapes = (
{
closed = 1;
nodes = (
(547,0,l),
(598,216,l),
(580,222,l),
(533,90,o),
(420,56,o),
(236,55,c),
(236,417,l),
(360,417,ls),
(441,417,o),
(499,406,o),
(512,360,c),
(524,363,l),
(524,513,l),
(512,516,l),
(499,472,o),
(441,459,o),
(360,459,cs),
(236,459,l),
(236,680,l),
(323,680,ls),
(461,680,o),
(505,641,o),
(557,549,c),
(572,556,l),
(530,722,l),
(25,722,l),
(25,706,l),
(43,706,ls),
(78,706,o),
(95,686,o),
(95,642,cs),
(95,84,ls),
(95,44,o),
(91,24,o),
(80,0,c)
);
}
);
userData = {
com.hugojourdan.ColorFlow = {
"0" = 0;
"1" = 0;
"10" = 0;
"11" = 0;
"2" = 0;
"3" = 0;
"4" = 0;
"5" = 0;
"6" = 0;
"7" = 0;
"8" = 0;
"9" = 0;
};
};
width = 627.8125;
}
);
unicode = 69;
},
{
color = 4;
glyphname = E.ss01;
kernLeft = O;
kernRight = C;
lastChange = "2023-08-04 17:34:22 +0000";
layers = (
{
anchors = (
{
name = bottom;
pos = (388,0);
},
{
name = ogonek;
pos = (701,10);
},
{
name = top;
pos = (388,722);
},
{
name = topleft;
pos = (16,722);
}
);
layerId = "D54810B1-F9A5-4F35-A1FF-AED0599B2373";
shapes = (
{
closed = 1;
nodes = (
(516,-15,o),
(597,0,o),
(675,34,c),
(705,246,l),
(693,249,l),
(643,130,o),
(552,37,o),
(448,34,cs),
(300,29,o),
(198,180,o),
(200,402,c),
(486,402,ls),
(566,402,o),
(624,396,o),
(637,350,c),
(649,353,l),
(649,503,l),
(637,506,l),
(624,462,o),
(566,454,o),
(486,454,cs),
(204,454,l),
(230,616,o),
(340,688,o),
(442,688,cs),
(534,688,o),
(621,630,o),
(638,526,c),
(650,527,l),
(677,686,l),
(610,720,o),
(533,738,o),
(454,738,cs),
(245,738,o),
(35,614,o),
(40,346,cs),
(45,112,o),
(206,-21,o),
(434,-17,cs)
);
}
);
userData = {
com.hugojourdan.ColorFlow = {
"0" = 0;
"1" = 0;
"10" = 0;
"11" = 0;
"2" = 0;
"3" = 0;
"4" = 0;
"5" = 0;
"6" = 0;
"7" = 0;
"8" = 0;
"9" = 0;
};
};
width = 739;
},
{
anchors = (
{
name = bottom;
pos = (387,0);
},
{
name = ogonek;
pos = (700,10);
},
{
name = top;
pos = (387,722);
},
{
name = topleft;
pos = (15,722);
}
);
layerId = m004;
name = Nera;
shapes = (
{
closed = 1;
nodes = (
(513,-15,o),
(599,-1,o),
(683,22,c),
(706,297,l),
(690,300,l),
(651,189,o),
(562,61,o),
(456,60,cs),
(322,59,o),
(264,211,o),
(263,394,c),
(534,393,ls),
(596,393,o),
(608,392,o),
(624,375,c),
(640,378,l),
(658,512,l),
(622,505,l),
(619,485,o),
(614,468,o),
(550,468,cs),
(267,467,l),
(278,613,o),
(370,669,o),
(457,669,cs),
(585,669,o),
(644,592,o),
(615,459,c),
(649,443,l),
(685,682,l),
(627,717,o),
(538,739,o),
(443,739,cs),
(205,740,o),
(30,603,o),
(30,356,cs),
(30,122,o),
(186,-15,o),
(430,-15,cs)
);
}
);
userData = {
com.hugojourdan.ColorFlow = {
"0" = 0;
"1" = 0;
"10" = 0;
"11" = 0;
"2" = 0;
"3" = 0;
"4" = 0;
"5" = 0;
"6" = 0;
"7" = 0;
"8" = 0;
"9" = 0;
};
};
width = 736;
},
{
anchors = (
{
name = bottom;
pos = (387,0);
},
{
name = ogonek;
pos = (700,10);
},
{
name = top;
pos = (387,722);
},
{
name = topleft;
pos = (15,722);
}
);
layerId = "452AD06C-4D92-427C-8B35-838986F56274";
shapes = (
{
closed = 1;
nodes = (
(517,-15,o),
(592,1,o),
(663,48,c),
(701,184,l),
(694,187,l),
(631,57,o),
(537,8,o),
(436,2,cs),
(218,-11,o),
(113,210,o),
(126,413,c),
(545,413,ls),
(630,413,o),
(660,403,o),
(672,364,c),
(678,365,l),
(678,484,l),
(672,485,l),
(660,450,o),
(630,435,o),
(545,435,cs),
(129,435,l),
(150,612,o),
(278,718,o),
(437,718,cs),
(560,718,o),
(639,651,o),
(670,550,c),
(677,551,l),
(665,690,l),
(596,720,o),
(537,735,o),
(464,735,cs),
(231,735,o),
(39,590,o),
(50,333,cs),
(60,100,o),
(227,-29,o),
(437,-19,cs)
);
}
);
userData = {
com.hugojourdan.ColorFlow = {
"0" = 0;
"1" = 0;
"10" = 0;
"11" = 0;
"2" = 0;
"3" = 0;
"4" = 0;
"5" = 0;
"6" = 0;
"7" = 0;
"8" = 0;
"9" = 0;
};
};
width = 731;
}
);
metricLeft = O;
metricRight = C;
},
{
color = 5;
glyphname = F;
kernLeft = D;
kernRight = F;
lastChange = "2023-08-04 17:34:22 +0000";
layers = (
{
anchors = (
{
name = bottom;
pos = (252,0);
},
{
name = top;
pos = (252,722);
}
);
layerId = "452AD06C-4D92-427C-8B35-838986F56274";
shapes = (
{
closed = 1;
nodes = (
(52,-134,l),
(80,-87,o),
(119,0,o),
(162,0,c),
(162,416,l),
(330,416,ls),
(415,416,o),
(445,405,o),
(457,366,c),
(462,367,l),
(462,486,l),
(457,487,l),
(445,452,o),
(415,436,o),
(330,436,cs),
(162,436,l),
(162,698,l),
(265,698,ls),
(373,698,o),
(410,682,o),
(464,587,c),
(471,590,l),
(432,722,l),
(20,722,l),
(20,716,l),
(40,716,ls),
(76,716,o),
(92,697,o),
(92,652,cs),
(92,40,ls),
(92,-21,o),
(84,-61,o),
(44,-130,c)
);
}
);
userData = {
com.hugojourdan.ColorFlow = {
"0" = 0;
"1" = 0;
"10" = 0;
"11" = 0;
"2" = 0;
"3" = 0;
"4" = 0;
"5" = 0;
"6" = 0;
"7" = 0;
"8" = 0;
"9" = 0;
};
};
width = 506;
},
{
anchors = (
{
name = bottom;
pos = (256,0);
},
{
name = top;
pos = (256,722);
}
);
layerId = m004;
shapes = (
{
closed = 1;
nodes = (
(57,-201,l),
(118,-112,o),
(189,-32,o),
(288,-25,c),
(288,413,l),
(365,412,ls),
(444,411,o),
(524,406,o),
(539,364,c),
(556,368,l),
(556,529,l),
(539,531,l),
(524,489,o),
(444,484,o),
(365,483,cs),
(288,482,l),
(288,652,l),
(362,652,ls),
(524,652,o),
(572,597,o),
(628,519,c),
(646,527,l),
(602,722,l),
(20,722,l),
(20,698,l),
(36,698,ls),
(70,698,o),
(88,676,o),
(88,634,cs),
(88,49,ls),
(88,-55,o),
(82,-121,o),
(37,-188,c)
);
}
);
userData = {
com.hugojourdan.ColorFlow = {
"0" = 0;
"1" = 0;
"10" = 0;
"11" = 0;
"2" = 0;
"3" = 0;
"4" = 0;
"5" = 0;
"6" = 0;
"7" = 0;
"8" = 0;
"9" = 0;
};
};
width = 661;
},
{
anchors = (
{
name = bottom;
pos = (260,0);
},
{
name = top;
pos = (260,722);
}
);
layerId = "D54810B1-F9A5-4F35-A1FF-AED0599B2373";
shapes = (
{
closed = 1;
nodes = (
(60,-171,l),
(106,-101,o),
(163,-18,o),
(236,-14,c),
(236,416,l),
(360,416,ls),
(441,416,o),
(499,406,o),
(512,360,c),
(524,363,l),
(524,513,l),
(512,516,l),
(499,472,o),
(441,458,o),
(360,458,cs),
(236,458,l),
(236,680,l),
(323,680,ls),
(461,680,o),
(504,636,o),
(559,550,c),
(572,556,l),
(530,722,l),
(25,722,l),
(25,706,l),
(43,706,ls),
(78,706,o),
(95,686,o),
(95,642,cs),
(95,45,ls),
(95,-40,o),
(88,-94,o),
(46,-162,c)
);
}
);
userData = {
com.hugojourdan.ColorFlow = {
"0" = 0;
"1" = 0;
"10" = 0;
"11" = 0;
"2" = 0;
"3" = 0;
"4" = 0;
"5" = 0;
"6" = 0;
"7" = 0;
"8" = 0;
"9" = 0;
};
};
width = 596.20312;
}
);
unicode = 70;
},
{
color = 4;
glyphname = F.ss01;
kernLeft = D;
kernRight = F;
lastChange = "2023-08-04 17:34:22 +0000";
layers = (
{
anchors = (
{
name = bottom;
pos = (252,0);
},
{
name = top;
pos = (252,722);
}
);
layerId = "452AD06C-4D92-427C-8B35-838986F56274";
shapes = (
{
closed = 1;
nodes = (
(92,-323,l),
(103,-242,o),
(119,-192,o),
(162,-192,c),
(162,51,l),
(334,51,ls),
(419,51,o),
(431,41,o),
(442,0,c),
(448,0,l),
(462,74,l),
(457,77,l),
(430,70,o),
(424,69,o),
(339,69,cs),
(162,69,l),
(162,704,l),
(265,704,ls),
(373,704,o),
(410,682,o),
(464,587,c),
(471,590,l),
(432,722,l),
(20,722,l),
(20,716,l),
(40,716,ls),
(76,716,o),
(92,697,o),
(92,652,cs),
(92,-152,ls),
(92,-213,o),
(92,-245,o),
(84,-322,c)
);
}
);
userData = {
com.hugojourdan.ColorFlow = {
"0" = 0;
"1" = 0;
"10" = 0;
"11" = 0;
"2" = 0;
"3" = 0;
"4" = 0;
"5" = 0;
"6" = 0;
"7" = 0;
"8" = 0;
"9" = 0;
};
};
width = 491;
},
{
anchors = (
{
name = bottom;
pos = (256,0);
},
{
name = top;
pos = (256,722);
}
);
layerId = m004;
shapes = (
{
closed = 1;
nodes = (
(100,-323,l),
(113,-209,o),
(189,-154,o),
(288,-147,c),
(288,56,l),
(365,55,ls),
(498,53,o),
(524,42,o),
(539,0,c),
(556,4,l),
(583,134,l),
(571,143,l),
(533,134,o),
(502,130,o),
(423,129,cs),
(288,128,l),
(288,652,l),
(362,652,ls),
(524,652,o),
(572,597,o),
(628,519,c),
(646,527,l),
(602,722,l),
(20,722,l),
(20,698,l),
(36,698,ls),
(70,698,o),
(88,676,o),
(88,634,cs),
(88,-73,ls),
(88,-177,o),
(87,-243,o),
(80,-323,c)
);
}
);
userData = {
com.hugojourdan.ColorFlow = {
"0" = 0;
"1" = 0;
"10" = 0;
"11" = 0;
"2" = 0;
"3" = 0;
"4" = 0;
"5" = 0;
"6" = 0;
"7" = 0;
"8" = 0;
"9" = 0;
};
};
width = 676;
},
{
anchors = (
{
name = bottom;
pos = (260,0);
},
{
name = top;
pos = (260,722);
}
);
layerId = "D54810B1-F9A5-4F35-A1FF-AED0599B2373";
shapes = (
{
closed = 1;
nodes = (
(96,-323,l),
(114,-231,o),
(163,-176,o),
(236,-172,c),
(236,53,l),
(380,53,ls),
(461,53,o),
(499,46,o),
(512,0,c),
(524,3,l),
(542,111,l),
(531,115,l),
(510,107,o),
(474,103,o),
(393,103,cs),
(236,103,l),
(236,680,l),
(323,680,ls),
(461,680,o),
(504,636,o),
(559,550,c),
(572,556,l),
(530,722,l),
(25,722,l),
(25,706,l),
(43,706,ls),
(78,706,o),
(95,686,o),
(95,642,cs),
(95,-113,ls),
(95,-198,o),
(92,-252,o),
(82,-320,c)
);
}
);
userData = {
com.hugojourdan.ColorFlow = {
"0" = 0;
"1" = 0;
"10" = 0;
"11" = 0;
"2" = 0;
"3" = 0;
"4" = 0;
"5" = 0;
"6" = 0;
"7" = 0;
"8" = 0;
"9" = 0;
};
};
width = 602;
}
);
},
{
color = 5;
glyphname = G;
kernLeft = O;
kernRight = I;
lastChange = "2023-08-04 17:34:22 +0000";
layers = (
{
anchors = (
{
name = bottom;
pos = (383,0);
},
{
name = top;
pos = (383,722);
}
);
guides = (
{
angle = -49.5599;
pos = (685,354);
}
);
layerId = "452AD06C-4D92-427C-8B35-838986F56274";
shapes = (
{
closed = 1;
nodes = (
(543,-14,o),
(621,31,o),
(700,101,c),
(697,119,o),
(696,137,o),
(696,156,cs),
(696,444,l),
(528,444,l),
(528,438,l),
(620,438,o),
(627,427,o),
(627,329,cs),
(627,108,l),
(607,80,o),
(556,11,o),
(421,11,cs),
(259,12,o),
(135,128,o),
(132,333,cs),
(129,540,o),
(239,715,o),
(425,715,cs),
(527,715,o),
(624,658,o),
(657,550,c),
(666,551,l),
(654,690,l),
(587,719,o),
(513,735,o),
(439,735,cs),
(208,735,o),
(48,585,o),
(50,348,cs),
(52,131,o),
(202,-14,o),
(405,-14,cs)
);
}
);
userData = {
com.hugojourdan.ColorFlow = {
"0" = 0;
"1" = 0;
"10" = 0;
"11" = 0;
"2" = 0;
"3" = 0;
"4" = 0;
"5" = 0;
"6" = 0;
"7" = 0;
"8" = 0;
"9" = 0;
};
};
width = 750;
},
{
anchors = (
{
name = bottom;
pos = (372,0);
},
{
name = top;
pos = (433,722);
}
);
guides = (
{
angle = -49.5599;
pos = (674,354);
}
);
layerId = m004;
shapes = (
{
closed = 1;
nodes = (
(560,-15,o),
(684,31,o),
(763,96,c),
(750,118,o),
(749,144,o),
(749,173,cs),
(749,424,l),
(425,424,l),
(425,398,l),
(538,400,o),
(554,386,o),
(554,286,cs),
(554,82,l),
(529,69,o),
(499,61,o),
(472,61,cs),
(333,61,o),
(264,224,o),
(264,382,cs),
(264,574,o),
(359,671,o),
(459,671,cs),
(542,671,o),
(628,606,o),
(669,473,c),
(692,476,l),
(685,686,l),
(630,725,o),
(552,745,o),
(469,745,cs),
(265,745,o),
(30,623,o),
(30,360,cs),
(30,147,o),
(162,-15,o),
(438,-15,cs)
);
}
);
userData = {
com.hugojourdan.ColorFlow = {
"0" = 0;
"1" = 0;
"10" = 0;
"11" = 0;
"2" = 0;
"3" = 0;
"4" = 0;
"5" = 0;
"6" = 0;
"7" = 0;
"8" = 0;
"9" = 0;
};
};
width = 793;
},
{
anchors = (
{
name = bottom;
pos = (378,0);
},
{
name = top;
pos = (378,722);
}
);
layerId = "D54810B1-F9A5-4F35-A1FF-AED0599B2373";
shapes = (
{
closed = 1;
nodes = (
(554,-16,o),
(656,31,o),
(735,98,c),
(727,118,o),
(726,141,o),
(726,165,cs),
(726,433,l),
(473,433,l),
(473,416,l),
(576,417,o),
(588,405,o),
(588,305,cs),
(588,94,l),
(565,74,o),
(525,39,o),
(449,39,cs),
(300,40,o),
(205,181,o),
(205,360,cs),
(205,558,o),
(305,692,o),
(444,692,cs),
(536,692,o),
(627,630,o),
(665,508,c),
(681,510,l),
(672,688,l),
(612,722,o),
(535,740,o),
(456,740,cs),
(242,740,o),
(40,605,o),
(40,355,cs),
(40,140,o),
(182,-16,o),
(425,-16,cs)
);
}
);
userData = {
com.hugojourdan.ColorFlow = {
"0" = 0;
"1" = 0;
"10" = 0;
"11" = 0;
"2" = 0;
"3" = 0;
"4" = 0;
"5" = 0;
"6" = 0;
"7" = 0;
"8" = 0;
"9" = 0;
};
};
width = 765;
}
);
unicode = 71;
},
{
color = 4;
glyphname = G.ss01;
kernLeft = O;
kernRight = C;
lastChange = "2023-08-04 17:34:22 +0000";
layers = (
{
anchors = (
{
name = bottom;
pos = (388,0);
},
{
name = top;
pos = (388,722);
}
);
layerId = "D54810B1-F9A5-4F35-A1FF-AED0599B2373";
shapes = (
{
closed = 1;
nodes = (
(567,77,l),
(543,59,o),
(506,39,o),
(449,39,cs),
(300,40,o),
(205,181,o),
(205,360,cs),
(205,558,o),
(305,692,o),
(444,692,cs),
(536,692,o),
(618,630,o),
(659,510,c),
(674,512,l),
(681,687,l),
(616,722,o),
(535,740,o),
(456,740,cs),
(242,740,o),
(40,605,o),
(40,355,cs),
(40,140,o),
(182,-16,o),
(425,-16,cs),
(477,-16,o),
(524,-9,o),
(567,5,c),
(567,-134,o),
(559,-181,o),
(463,-306,c),
(476,-317,l),
(575,-191,o),
(659,-98,o),
(714,-86,c),
(707,-65,o),
(707,-55,o),
(707,-9,cs),
(707,437,l),
(526,471,l),
(520,457,l),
(557,438,o),
(567,407,o),
(567,330,cs)
);
}
);
userData = {
com.hugojourdan.ColorFlow = {
"0" = 0;
"1" = 0;
"10" = 0;
"11" = 0;
"2" = 0;
"3" = 0;
"4" = 0;
"5" = 0;
"6" = 0;
"7" = 0;
"8" = 0;
"9" = 0;
};
};
width = 744;
},
{
anchors = (
{
name = bottom;
pos = (387,0);
},
{
name = top;
pos = (387,722);
}
);
layerId = m004;
name = Nera;
shapes = (
{
closed = 1;
nodes = (
(540,76,l),
(518,67,o),
(494,61,o),
(472,61,cs),
(333,61,o),
(264,224,o),
(264,382,cs),
(264,571,o),
(362,672,o),
(461,672,cs),
(541,672,o),
(620,609,o),
(652,471,c),
(676,473,l),
(690,691,l),
(635,727,o),
(558,745,o),
(476,745,cs),
(269,745,o),
(30,625,o),
(30,360,cs),
(30,147,o),
(162,-15,o),
(438,-15,cs),
(472,-15,o),
(507,-11,o),
(540,-5,c),
(540,-134,o),
(542,-184,o),
(462,-309,c),
(483,-323,l),
(580,-181,o),
(649,-98,o),
(737,-86,c),
(731,-56,o),
(730,-34,o),
(730,18,cs),
(730,401,l),
(499,435,l),
(493,421,l),
(530,402,o),
(540,371,o),
(540,294,cs)
);
}
);
userData = {
com.hugojourdan.ColorFlow = {
"0" = 0;
"1" = 0;
"10" = 0;
"11" = 0;
"2" = 0;
"3" = 0;
"4" = 0;
"5" = 0;
"6" = 0;
"7" = 0;
"8" = 0;
"9" = 0;
};
};
width = 767;
},
{
anchors = (
{
name = bottom;
pos = (387,0);
},
{
name = top;
pos = (387,722);
}
);
layerId = "452AD06C-4D92-427C-8B35-838986F56274";
shapes = (
{
closed = 1;
nodes = (
(616,108,l),
(596,80,o),
(554,13,o),
(419,13,cs),
(257,14,o),
(132,128,o),
(132,333,cs),
(132,538,o),
(238,717,o),
(424,717,cs),
(526,717,o),
(624,658,o),
(657,550,c),
(666,551,l),
(654,690,l),
(587,719,o),
(513,735,o),
(439,735,cs),
(211,735,o),
(50,583,o),
(50,348,cs),
(50,131,o),
(204,-17,o),
(407,-17,cs),
(501,-17,o),
(561,5,o),
(613,41,c),
(613,-66,o),
(583,-128,o),
(487,-253,c),
(493,-258,l),
(606,-122,o),
(651,-37,o),
(692,-25,c),
(686,1,o),
(686,30,o),
(686,100,cs),
(686,430,l),
(594,456,l),
(591,450,l),
(613,433,o),
(616,413,o),
(616,330,cs)
);
}
);
userData = {
com.hugojourdan.ColorFlow = {
"0" = 0;
"1" = 0;
"10" = 0;
"11" = 0;
"2" = 0;
"3" = 0;
"4" = 0;
"5" = 0;
"6" = 0;
"7" = 0;
"8" = 0;
"9" = 0;
};
};
width = 742;
}
);
metricLeft = O;
metricRight = G;
},
{
color = 4;
glyphname = G.ss02;
kernLeft = O;
kernRight = I;
lastChange = "2023-08-04 17:34:22 +0000";
layers = (
{
anchors = (
{
name = bottom;
pos = (383,0);
},
{
name = top;
pos = (383,722);
}
);
guides = (
{
angle = -49.5599;
pos = (685,354);
}
);
layerId = "452AD06C-4D92-427C-8B35-838986F56274";
shapes = (
{
closed = 1;
nodes = (
(50,117,o),
(216,-10,o),
(389,-10,cs),
(478,-10,o),
(566,23,o),
(640,76,c),
(640,42,ls),
(640,-74,o),
(665,-211,o),
(536,-268,c),
(540,-277,l),
(674,-217,o),
(710,-143,o),
(710,45,cs),
(710,223,l),
(618,93,o),
(499,17,o),
(389,17,cs),
(252,17,o),
(132,135,o),
(132,333,cs),
(132,538,o),
(238,717,o),
(424,717,cs),
(526,717,o),
(624,658,o),
(657,550,c),
(666,551,l),
(654,690,l),
(587,719,o),
(513,735,o),
(439,735,cs),
(211,735,o),
(50,583,o),
(50,348,cs)
);
}
);
userData = {
com.hugojourdan.ColorFlow = {
"0" = 0;
"1" = 0;
"10" = 0;
"11" = 0;
"2" = 0;
"3" = 0;
"4" = 0;
"5" = 0;
"6" = 0;
"7" = 0;
"8" = 0;
"9" = 0;
};
};
width = 756;
},
{
anchors = (
{
name = bottom;
pos = (372,0);
},
{
name = top;
pos = (372,722);
}
);
guides = (
{
angle = -49.5599;
pos = (674,354);
}
);
layerId = m004;
shapes = (
{
closed = 1;
nodes = (
(30,85,o),
(220,-10,o),
(376,-10,cs),
(431,-10,o),
(481,2,o),
(518,22,c),
(518,16,ls),
(518,-152,o),
(531,-260,o),
(429,-291,c),
(435,-314,l),
(665,-274,o),
(714,-214,o),
(714,75,cs),
(714,306,l),
(641,152,o),
(545,82,o),
(460,82,cs),
(353,82,o),
(264,192,o),
(264,382,cs),
(264,574,o),
(359,671,o),
(459,671,cs),
(542,671,o),
(628,606,o),
(669,473,c),
(692,476,l),
(685,686,l),
(630,725,o),
(552,745,o),
(469,745,cs),
(265,745,o),
(30,623,o),
(30,360,cs)
);
}
);
userData = {
com.hugojourdan.ColorFlow = {
"0" = 0;
"1" = 0;
"10" = 0;
"11" = 0;
"2" = 0;
"3" = 0;
"4" = 0;
"5" = 0;
"6" = 0;
"7" = 0;
"8" = 0;
"9" = 0;
};
};
width = 788;
},
{
anchors = (
{
name = bottom;
pos = (377,0);
},
{
name = top;
pos = (377,722);
}
);
layerId = "D54810B1-F9A5-4F35-A1FF-AED0599B2373";
shapes = (
{
closed = 1;
nodes = (
(39,90,o),
(238,-13,o),
(415,-13,cs),
(487,-13,o),
(555,4,o),
(605,34,c),
(605,-19,ls),
(605,-121,o),
(631,-231,o),
(496,-286,c),
(503,-301,l),
(688,-239,o),
(734,-184,o),
(734,19,cs),
(734,267,l),
(628,108,o),
(519,41,o),
(427,41,cs),
(298,41,o),
(204,171,o),
(204,360,cs),
(204,558,o),
(304,692,o),
(443,692,cs),
(535,692,o),
(626,630,o),
(664,508,c),
(680,510,l),
(671,688,l),
(611,722,o),
(534,740,o),
(455,740,cs),
(241,740,o),
(39,605,o),
(39,355,cs)
);
}
);
userData = {
com.hugojourdan.ColorFlow = {
"0" = 0;
"1" = 0;
"10" = 0;
"11" = 0;
"2" = 0;
"3" = 0;
"4" = 0;
"5" = 0;
"6" = 0;
"7" = 0;
"8" = 0;
"9" = 0;
};
};
width = 774;
}
);
},
{
color = 5;
glyphname = H;
kernLeft = D;
kernRight = I;
lastChange = "2023-08-04 17:34:22 +0000";
layers = (
{
anchors = (
{
name = bottom;
pos = (339,0);
},
{
name = top;
pos = (348,722);
}
);
layerId = "452AD06C-4D92-427C-8B35-838986F56274";
shapes = (
{
closed = 1;
nodes = (
(628,0,l),
(622,20,o),
(620,36,o),
(620,76,cs),
(620,608,ls),
(620,668,o),
(621,692,o),
(623,722,c),
(478,722,l),
(478,716,l),
(498,716,ls),
(534,716,o),
(550,697,o),
(550,652,cs),
(550,84,ls),
(550,40,o),
(548,24,o),
(540,0,c)
);
},
{
closed = 1;
nodes = (
(170,0,l),
(164,20,o),
(162,36,o),
(162,76,cs),
(162,608,ls),
(162,668,o),
(163,692,o),
(165,722,c),
(20,722,l),
(20,716,l),
(40,716,ls),
(76,716,o),
(92,697,o),
(92,652,cs),
(92,84,ls),
(92,40,o),
(90,24,o),
(82,0,c)
);
},
{
closed = 1;
nodes = (
(570,416,l),
(570,440,l),
(142,440,l),
(142,416,l)
);
}
);
userData = {
com.hugojourdan.ColorFlow = {
"0" = 0;
"1" = 0;
"10" = 0;
"11" = 0;
"2" = 0;
"3" = 0;
"4" = 0;
"5" = 0;
"6" = 0;
"7" = 0;
"8" = 0;
"9" = 0;
};
};
width = 678;
},
{
anchors = (
{
name = bottom;
pos = (398,0);
},
{
name = top;
pos = (378,722);
}
);
layerId = m004;
shapes = (
{
closed = 1;
nodes = (
(718,0,l),
(705,23,o),
(700,48,o),
(700,84,cs),
(700,596,ls),
(700,650,o),
(702,688,o),
(707,722,c),
(432,722,l),
(432,698,l),
(448,698,ls),
(482,698,o),
(500,676,o),
(500,634,cs),
(500,84,ls),
(500,48,o),
(494,24,o),
(480,0,c)
);
},
{
closed = 1;
nodes = (
(306,0,l),
(293,23,o),
(288,48,o),
(288,84,cs),
(288,596,ls),
(288,650,o),
(290,688,o),
(295,722,c),
(20,722,l),
(20,698,l),
(36,698,ls),
(70,698,o),
(88,676,o),
(88,634,cs),
(88,84,ls),
(88,48,o),
(82,24,o),
(68,0,c)
);
},
{
closed = 1;
nodes = (
(520,413,l),
(520,483,l),
(268,483,l),
(268,413,l)
);
}
);
userData = {
com.hugojourdan.ColorFlow = {
"0" = 0;
"1" = 0;
"10" = 0;
"11" = 0;
"2" = 0;
"3" = 0;
"4" = 0;
"5" = 0;
"6" = 0;
"7" = 0;
"8" = 0;
"9" = 0;
};
};
width = 758;
},
{
anchors = (
{
name = bottom;
pos = (372,0);
},
{
name = top;
pos = (365,722);
}
);
layerId = "D54810B1-F9A5-4F35-A1FF-AED0599B2373";
shapes = (
{
closed = 1;
nodes = (
(678,0,l),
(669,22,o),
(665,43,o),
(665,80,cs),
(665,602,ls),
(665,658,o),
(667,689,o),
(670,722,c),
(453,722,l),
(453,706,l),
(471,706,ls),
(506,706,o),
(523,686,o),
(523,642,cs),
(523,84,ls),
(523,44,o),
(519,24,o),
(508,0,c)
);
},
{
closed = 1;
nodes = (
(245,0,l),
(236,22,o),
(232,43,o),
(232,80,cs),
(232,602,ls),
(232,658,o),
(234,689,o),
(237,722,c),
(20,722,l),
(20,706,l),
(38,706,ls),
(73,706,o),
(90,686,o),
(90,642,cs),
(90,84,ls),
(90,44,o),
(86,24,o),
(75,0,c)
);
},
{
closed = 1;
nodes = (
(543,422,l),
(543,464,l),
(212,464,l),
(212,422,l)
);
}
);
userData = {
com.hugojourdan.ColorFlow = {
"0" = 0;
"1" = 0;
"10" = 0;
"11" = 0;
"2" = 0;
"3" = 0;
"4" = 0;
"5" = 0;
"6" = 0;
"7" = 0;
"8" = 0;
"9" = 0;
};
};
width = 728;
}
);
unicode = 72;
},
{
color = 4;
glyphname = H.ss01;
kernLeft = D;
kernRight = I;
lastChange = "2023-08-04 17:34:22 +0000";
layers = (
{
anchors = (
{
name = bottom;
pos = (339,0);
},
{
name = top;
pos = (348,722);
}
);
layerId = "452AD06C-4D92-427C-8B35-838986F56274";
shapes = (
{
closed = 1;
nodes = (
(29,894,l),
(29,888,l),
(49,888,ls),
(85,888,o),
(101,869,o),
(101,824,cs),
(101,76,ls),
(101,36,o),
(99,20,o),
(93,0,c),
(179,0,l),
(173,20,o),
(171,36,o),
(171,76,cs),
(171,443,l),
(230,537,o),
(306,583,o),
(371,583,cs),
(458,583,o),
(523,513,o),
(523,365,cs),
(523,220,o),
(461,81,o),
(351,-46,c),
(357,-52,l),
(515,106,o),
(598,238,o),
(598,405,cs),
(598,558,o),
(513,634,o),
(410,634,cs),
(328,634,o),
(240,585,o),
(171,484,c),
(171,780,ls),
(171,840,o),
(173,864,o),
(177,894,c)
);
}
);
userData = {
com.hugojourdan.ColorFlow = {
"0" = 0;
"1" = 0;
"10" = 0;
"11" = 0;
"2" = 0;
"3" = 0;
"4" = 0;
"5" = 0;
"6" = 0;
"7" = 0;
"8" = 0;
"9" = 0;
};
};
width = 628;
},
{
anchors = (
{
name = bottom;
pos = (398,0);
},
{
name = top;
pos = (378,722);
}
);
layerId = m004;
shapes = (
{
closed = 1;
nodes = (
(21,894,l),
(21,870,l),
(37,870,ls),
(71,870,o),
(89,848,o),
(89,806,cs),
(89,109,ls),
(89,48,o),
(83,24,o),
(69,0,c),
(307,0,l),
(294,23,o),
(289,48,o),
(289,109,cs),
(289,487,l),
(337,533,o),
(388,556,o),
(433,556,cs),
(530,556,o),
(571,470,o),
(571,360,cs),
(571,224,o),
(508,53,o),
(408,-38,c),
(424,-53,l),
(633,109,o),
(738,324,o),
(738,484,cs),
(738,612,o),
(671,706,o),
(543,706,cs),
(461,706,o),
(368,661,o),
(289,567,c),
(289,768,ls),
(289,822,o),
(293,860,o),
(303,894,c)
);
}
);
userData = {
com.hugojourdan.ColorFlow = {
"0" = 0;
"1" = 0;
"10" = 0;
"11" = 0;
"2" = 0;
"3" = 0;
"4" = 0;
"5" = 0;
"6" = 0;
"7" = 0;
"8" = 0;
"9" = 0;
};
};
width = 758;
},
{
anchors = (
{
name = bottom;
pos = (372,0);
},
{
name = top;
pos = (365,722);
}
);
layerId = "D54810B1-F9A5-4F35-A1FF-AED0599B2373";
shapes = (
{
closed = 1;
nodes = (
(16,894,l),
(16,878,l),
(34,878,ls),
(69,878,o),
(86,858,o),
(86,814,cs),
(86,102,ls),
(86,44,o),
(82,24,o),
(71,0,c),
(241,0,l),
(232,22,o),
(228,43,o),
(228,98,cs),
(228,477,l),
(281,533,o),
(343,563,o),
(396,563,cs),
(473,563,o),
(534,502,o),
(534,368,cs),
(534,248,o),
(481,93,o),
(366,-31,c),
(379,-44,l),
(589,132,o),
(676,310,o),
(676,445,cs),
(676,594,o),
(587,674,o),
(478,674,cs),
(396,674,o),
(304,629,o),
(228,534,c),
(228,774,ls),
(228,830,o),
(231,861,o),
(238,894,c)
);
}
);
userData = {
com.hugojourdan.ColorFlow = {
"0" = 0;
"1" = 0;
"10" = 0;
"11" = 0;
"2" = 0;
"3" = 0;
"4" = 0;
"5" = 0;
"6" = 0;
"7" = 0;
"8" = 0;
"9" = 0;
};
};
width = 706;
}
);
},
{
color = 4;
glyphname = H.ss02;
kernLeft = D;
kernRight = O;
lastChange = "2023-08-04 17:34:22 +0000";
layers = (
{
anchors = (
{
name = bottom;
pos = (352,0);
},
{
name = center;
pos = (352,361);
},
{
name = top;
pos = (352,722);
},
{
name = topleft;
pos = (18,722);
}
);
layerId = "D54810B1-F9A5-4F35-A1FF-AED0599B2373";
shapes = (
{
closed = 1;
nodes = (
(178,734,o),
(82,794,o),
(31,836,c),
(20,823,l),
(79,776,o),
(86,744,o),
(86,588,cs),
(86,102,ls),
(86,44,o),
(82,24,o),
(71,0,c),
(241,0,l),
(232,22,o),
(228,43,o),
(228,98,cs),
(228,477,l),
(281,533,o),
(343,563,o),
(396,563,cs),
(473,563,o),
(534,502,o),
(534,368,cs),
(534,248,o),
(481,93,o),
(366,-31,c),
(379,-44,l),
(589,132,o),
(676,310,o),
(676,445,cs),
(676,594,o),
(587,674,o),
(478,674,cs),
(396,674,o),
(304,629,o),
(228,534,c),
(228,650,ls),
(228,682,o),
(228,702,o),
(230,722,c)
);
}
);
userData = {
com.hugojourdan.ColorFlow = {
"0" = 0;
"1" = 0;
"10" = 0;
"11" = 0;
"2" = 0;
"3" = 0;
"4" = 0;
"5" = 0;
"6" = 0;
"7" = 0;
"8" = 0;
"9" = 0;
};
};
width = 706;
},
{
anchors = (
{
name = bottom;
pos = (384,0);
},
{
name = center;
pos = (384,361);
},
{
name = top;
pos = (384,722);
},
{
name = topleft;
pos = (20,722);
}
);
layerId = m004;
name = Nera;
shapes = (
{
closed = 1;
nodes = (
(239,734,o),
(85,802,o),
(34,838,c),
(20,820,l),
(79,779,o),
(89,744,o),
(89,588,cs),
(89,109,ls),
(89,48,o),
(83,24,o),
(69,0,c),
(307,0,l),
(294,23,o),
(289,48,o),
(289,109,cs),
(289,487,l),
(337,533,o),
(388,556,o),
(433,556,cs),
(530,556,o),
(571,470,o),
(571,360,cs),
(571,224,o),
(508,53,o),
(408,-38,c),
(424,-53,l),
(633,109,o),
(738,324,o),
(738,484,cs),
(738,612,o),
(671,706,o),
(543,706,cs),
(461,706,o),
(368,661,o),
(289,567,c),
(289,650,ls),
(289,682,o),
(290,703,o),
(291,722,c)
);
}
);
userData = {
com.hugojourdan.ColorFlow = {
"0" = 0;
"1" = 0;
"10" = 0;
"11" = 0;
"2" = 0;
"3" = 0;
"4" = 0;
"5" = 0;
"6" = 0;
"7" = 0;
"8" = 0;
"9" = 0;
};
};
width = 768;
},
{
anchors = (
{
name = bottom;
pos = (312,0);
},
{
name = center;
pos = (312,361);
},
{
name = top;
pos = (312,722);
},
{
name = topleft;
pos = (16,722);
}
);
layerId = "452AD06C-4D92-427C-8B35-838986F56274";
shapes = (
{
closed = 1;
nodes = (
(119,730,o),
(82,750,o),
(25,801,c),
(20,795,l),
(100,716,o),
(101,698,o),
(101,585,cs),
(101,76,ls),
(101,36,o),
(99,20,o),
(93,0,c),
(179,0,l),
(173,20,o),
(171,36,o),
(171,76,cs),
(171,443,l),
(230,537,o),
(306,583,o),
(371,583,cs),
(458,583,o),
(523,513,o),
(523,365,cs),
(523,220,o),
(461,81,o),
(351,-46,c),
(357,-52,l),
(515,106,o),
(598,238,o),
(598,405,cs),
(598,558,o),
(513,634,o),
(410,634,cs),
(328,634,o),
(240,585,o),
(171,484,c),
(171,665,ls),
(171,689,o),
(171,705,o),
(174,722,c)
);
}
);
userData = {
com.hugojourdan.ColorFlow = {
"0" = 0;
"1" = 0;
"10" = 0;
"11" = 0;
"2" = 0;
"3" = 0;
"4" = 0;
"5" = 0;
"6" = 0;
"7" = 0;
"8" = 0;
"9" = 0;
};
};
width = 628;
}
);
metricLeft = H;
},
{
color = 5;
glyphname = I;
kernLeft = D;
kernRight = I;
lastChange = "2023-08-04 17:34:22 +0000";
layers = (
{
anchors = (
{
name = ogonek;
pos = (164,0);
},
{
name = top;
pos = (128,722);
}
);
layerId = "452AD06C-4D92-427C-8B35-838986F56274";
shapes = (
{
closed = 1;
nodes = (
(170,0,l),
(164,20,o),
(162,36,o),
(162,76,cs),
(162,722,l),
(20,722,l),
(20,716,l),
(40,716,ls),
(76,716,o),
(92,697,o),
(92,652,cs),
(92,84,ls),
(92,40,o),
(90,24,o),
(82,0,c)
);
}
);
userData = {
com.hugojourdan.ColorFlow = {
"0" = 0;
"1" = 0;
"10" = 0;
"11" = 0;
"2" = 0;
"3" = 0;
"4" = 0;
"5" = 0;
"6" = 0;
"7" = 0;
"8" = 0;
"9" = 0;
};
};
width = 220;
},
{
anchors = (
{
name = ogonek;
pos = (288,0);
},
{
name = top;
pos = (146,722);
}
);
layerId = m004;
shapes = (
{
closed = 1;
nodes = (
(296,0,l),
(283,23,o),
(278,48,o),
(278,84,cs),
(278,722,l),
(20,722,l),
(20,698,l),
(36,698,ls),
(70,698,o),
(88,676,o),
(88,634,cs),
(88,84,ls),
(88,48,o),
(82,24,o),
(68,0,c)
);
}
);
userData = {
com.hugojourdan.ColorFlow = {
"0" = 0;
"1" = 0;
"10" = 0;
"11" = 0;
"2" = 0;
"3" = 0;
"4" = 0;
"5" = 0;
"6" = 0;
"7" = 0;
"8" = 0;
"9" = 0;
};
};
width = 336;
},
{
anchors = (
{
name = ogonek;
pos = (232,0);
},
{
name = top;
pos = (145,722);
}
);
layerId = "D54810B1-F9A5-4F35-A1FF-AED0599B2373";
shapes = (
{
closed = 1;
nodes = (
(239,0,l),
(230,22,o),
(226,43,o),
(226,80,cs),
(226,722,l),
(20,722,l),
(20,706,l),
(38,706,ls),
(73,706,o),
(90,686,o),
(90,642,cs),
(90,84,ls),
(90,44,o),
(86,24,o),
(75,0,c)
);
}
);
userData = {
com.hugojourdan.ColorFlow = {
"0" = 0;
"1" = 0;
"10" = 0;
"11" = 0;
"2" = 0;
"3" = 0;
"4" = 0;
"5" = 0;
"6" = 0;
"7" = 0;
"8" = 0;
"9" = 0;
};
};
width = 289;
}
);
metricLeft = H;
metricRight = H;
unicode = 73;
},
{
color = 5;
glyphname = J;
kernLeft = D;
kernRight = J;
lastChange = "2023-08-04 17:34:22 +0000";
layers = (
{
anchors = (
{
name = bottom;
pos = (129,0);
},
{
name = top;
pos = (129,722);
}
);
layerId = "452AD06C-4D92-427C-8B35-838986F56274";
shapes = (
{
closed = 1;
nodes = (
(-51,-169,l),
(60,-119,o),
(173,-63,o),
(173,146,cs),
(173,722,l),
(31,722,l),
(31,716,l),
(51,716,ls),
(87,716,o),
(103,697,o),
(103,652,cs),
(103,146,ls),
(103,-22,o),
(83,-98,o),
(-55,-161,c)
);
}
);
userData = {
com.hugojourdan.ColorFlow = {
"0" = 0;
"1" = 0;
"10" = 0;
"11" = 0;
"2" = 0;
"3" = 0;
"4" = 0;
"5" = 0;
"6" = 0;
"7" = 0;
"8" = 0;
"9" = 0;
};
};
width = 233;
},
{
anchors = (
{
name = bottom;
pos = (139,0);
},
{
name = top;
pos = (150,722);
}
);
layerId = m004;
shapes = (
{
closed = 1;
nodes = (
(30,-314,l),
(203,-157,o),
(293,-85,o),
(293,69,cs),
(293,722,l),
(25,722,l),
(25,698,l),
(41,698,ls),
(75,698,o),
(93,676,o),
(93,634,cs),
(93,87,ls),
(93,-81,o),
(76,-184,o),
(5,-293,c)
);
}
);
userData = {
com.hugojourdan.ColorFlow = {
"0" = 0;
"1" = 0;
"10" = 0;
"11" = 0;
"2" = 0;
"3" = 0;
"4" = 0;
"5" = 0;
"6" = 0;
"7" = 0;
"8" = 0;
"9" = 0;
};
};
width = 335;
},
{
anchors = (
{
name = bottom;
pos = (134,0);
},
{
name = top;
pos = (134,722);
}
);
layerId = "D54810B1-F9A5-4F35-A1FF-AED0599B2373";
shapes = (
{
closed = 1;
nodes = (
(-7,-248,l),
(138,-140,o),
(239,-75,o),
(239,104,cs),
(239,722,l),
(28,722,l),
(28,706,l),
(46,706,ls),
(81,706,o),
(98,686,o),
(98,642,cs),
(98,114,ls),
(98,-54,o),
(79,-145,o),
(-22,-233,c)
);
}
);
userData = {
com.hugojourdan.ColorFlow = {
"0" = 0;
"1" = 0;
"10" = 0;
"11" = 0;
"2" = 0;
"3" = 0;
"4" = 0;
"5" = 0;
"6" = 0;
"7" = 0;
"8" = 0;
"9" = 0;
};
};
width = 288.78125;
}
);
unicode = 74;
},
{
color = 5;
glyphname = K;
kernLeft = D;
kernRight = K;
lastChange = "2023-08-04 17:34:22 +0000";
layers = (
{
anchors = (
{
name = bottom;
pos = (308,0);
},
{
name = top;
pos = (308,722);
}
);
layerId = "452AD06C-4D92-427C-8B35-838986F56274";
shapes = (
{
closed = 1;
nodes = (
(688,-120,l),
(571,-77,o),
(557,96,o),
(504,229,cs),
(465,326,o),
(411,411,o),
(221,397,c),
(430,645,ls),
(477,700,o),
(500,714,o),
(572,717,c),
(572,722,l),
(430,722,l),
(411,687,o),
(294,553,o),
(172,409,c),
(172,722,l),
(30,722,l),
(30,716,l),
(50,716,ls),
(86,716,o),
(102,697,o),
(102,652,cs),
(102,84,ls),
(102,40,o),
(100,24,o),
(92,0,c),
(182,0,l),
(174,24,o),
(172,40,o),
(172,84,cs),
(172,376,l),
(194,379,o),
(220,381,o),
(236,381,cs),
(357,381,o),
(411,283,o),
(463,138,cs),
(507,15,o),
(536,-71,o),
(685,-129,c)
);
}
);
userData = {
com.hugojourdan.ColorFlow = {
"0" = 0;
"1" = 0;
"10" = 0;
"11" = 0;
"2" = 0;
"3" = 0;
"4" = 0;
"5" = 0;
"6" = 0;
"7" = 0;
"8" = 0;
"9" = 0;
};
};
width = 618;
},
{
anchors = (
{
name = bottom;
pos = (424,0);
},
{
name = top;
pos = (424,722);
}
);
layerId = m004;
shapes = (
{
closed = 1;
nodes = (
(807,-130,l),
(732,-90,o),
(733,97,o),
(676,236,cs),
(638,332,o),
(572,405,o),
(441,397,c),
(618,630,ls),
(652,675,o),
(672,694,o),
(720,698,c),
(720,722,l),
(496,722,l),
(487,687,o),
(429,612,o),
(288,429,c),
(288,722,l),
(20,722,l),
(20,698,l),
(36,698,ls),
(70,698,o),
(88,676,o),
(88,634,cs),
(88,84,ls),
(88,48,o),
(82,24,o),
(68,0,c),
(308,0,l),
(294,24,o),
(288,48,o),
(288,84,cs),
(288,337,l),
(299,338,o),
(309,338,o),
(319,337,cs),
(419,331,o),
(450,258,o),
(496,119,cs),
(535,3,o),
(576,-115,o),
(800,-150,c)
);
}
);
userData = {
com.hugojourdan.ColorFlow = {
"0" = 0;
"1" = 0;
"10" = 0;
"11" = 0;
"2" = 0;
"3" = 0;
"4" = 0;
"5" = 0;
"6" = 0;
"7" = 0;
"8" = 0;
"9" = 0;
};
};
width = 767;
},
{
anchors = (
{
name = bottom;
pos = (371,0);
},
{
name = top;
pos = (371,722);
}
);
layerId = "D54810B1-F9A5-4F35-A1FF-AED0599B2373";
shapes = (
{
closed = 1;
nodes = (
(753,-125,l),
(659,-84,o),
(653,97,o),
(598,233,cs),
(560,329,o),
(499,408,o),
(341,397,c),
(533,637,ls),
(573,686,o),
(594,703,o),
(653,707,c),
(653,722,l),
(466,722,l),
(453,687,o),
(368,585,o),
(235,420,c),
(235,722,l),
(24,722,l),
(24,706,l),
(42,706,ls),
(77,706,o),
(94,686,o),
(94,642,cs),
(94,84,ls),
(94,44,o),
(90,24,o),
(79,0,c),
(250,0,l),
(239,24,o),
(235,44,o),
(235,84,cs),
(235,355,l),
(251,357,o),
(269,357,o),
(281,357,cs),
(391,354,o),
(429,269,o),
(478,127,cs),
(519,8,o),
(558,-95,o),
(748,-140,c)
);
}
);
userData = {
com.hugojourdan.ColorFlow = {
"0" = 0;
"1" = 0;
"10" = 0;
"11" = 0;
"2" = 0;
"3" = 0;
"4" = 0;
"5" = 0;
"6" = 0;
"7" = 0;
"8" = 0;
"9" = 0;
};
};
width = 713;
}
);
unicode = 75;
},
{
color = 4;
glyphname = K.ss01;
kernLeft = D;
kernRight = K;
lastChange = "2023-08-04 17:34:22 +0000";
layers = (
{
anchors = (
{
name = bottom;
pos = (308,0);
},
{
name = top;
pos = (308,722);
}
);
layerId = "452AD06C-4D92-427C-8B35-838986F56274";
shapes = (
{
closed = 1;
nodes = (
(688,-120,l),
(571,-77,o),
(557,96,o),
(504,229,cs),
(465,326,o),
(411,411,o),
(221,397,c),
(430,645,ls),
(477,700,o),
(500,714,o),
(572,717,c),
(572,722,l),
(430,722,l),
(411,687,o),
(294,553,o),
(172,409,c),
(172,780,ls),
(172,840,o),
(174,864,o),
(178,894,c),
(30,894,l),
(30,888,l),
(50,888,ls),
(86,888,o),
(102,869,o),
(102,824,cs),
(102,84,ls),
(102,40,o),
(100,24,o),
(92,0,c),
(182,0,l),
(174,24,o),
(172,40,o),
(172,84,cs),
(172,376,l),
(194,379,o),
(220,381,o),
(236,381,cs),
(357,381,o),
(411,283,o),
(463,138,cs),
(507,15,o),
(536,-71,o),
(685,-129,c)
);
}
);
userData = {
com.hugojourdan.ColorFlow = {
"0" = 0;
"1" = 0;
"10" = 0;
"11" = 0;
"2" = 0;
"3" = 0;
"4" = 0;
"5" = 0;
"6" = 0;
"7" = 0;
"8" = 0;
"9" = 0;
};
};
width = 618;
},
{
anchors = (
{
name = bottom;
pos = (424,0);
},
{
name = top;
pos = (424,722);
}
);
layerId = m004;
shapes = (
{
closed = 1;
nodes = (
(807,-130,l),
(732,-90,o),
(733,97,o),
(676,236,cs),
(638,332,o),
(572,405,o),
(441,397,c),
(618,630,ls),
(652,675,o),
(672,694,o),
(720,698,c),
(720,722,l),
(496,722,l),
(487,687,o),
(429,612,o),
(288,429,c),
(288,768,ls),
(288,822,o),
(292,860,o),
(302,894,c),
(20,894,l),
(20,870,l),
(36,870,ls),
(70,870,o),
(88,848,o),
(88,806,cs),
(88,84,ls),
(88,48,o),
(82,24,o),
(68,0,c),
(308,0,l),
(294,24,o),
(288,48,o),
(288,84,cs),
(288,337,l),
(299,338,o),
(309,338,o),
(319,337,cs),
(419,331,o),
(444,257,o),
(490,118,cs),
(529,2,o),
(576,-115,o),
(800,-150,c)
);
}
);
userData = {
com.hugojourdan.ColorFlow = {
"0" = 0;
"1" = 0;
"10" = 0;
"11" = 0;
"2" = 0;
"3" = 0;
"4" = 0;
"5" = 0;
"6" = 0;
"7" = 0;
"8" = 0;
"9" = 0;
};
};
width = 767;
},
{
anchors = (
{
name = bottom;
pos = (371,0);
},
{
name = top;
pos = (371,722);
}
);
layerId = "D54810B1-F9A5-4F35-A1FF-AED0599B2373";
shapes = (
{
closed = 1;
nodes = (
(753,-125,l),
(659,-84,o),
(653,97,o),
(598,233,cs),
(560,329,o),
(499,408,o),
(341,397,c),
(533,637,ls),
(573,686,o),
(594,703,o),
(653,707,c),
(653,722,l),
(466,722,l),
(453,687,o),
(368,585,o),
(235,420,c),
(235,774,ls),
(235,830,o),
(238,861,o),
(245,894,c),
(24,894,l),
(24,878,l),
(42,878,ls),
(77,878,o),
(94,858,o),
(94,814,cs),
(94,84,ls),
(94,44,o),
(90,24,o),
(79,0,c),
(250,0,l),
(239,24,o),
(235,44,o),
(235,84,cs),
(235,355,l),
(251,357,o),
(269,357,o),
(281,357,cs),
(391,354,o),
(429,269,o),
(478,127,cs),
(519,8,o),
(558,-95,o),
(748,-140,c)
);
}
);
userData = {
com.hugojourdan.ColorFlow = {
"0" = 0;
"1" = 0;
"10" = 0;
"11" = 0;
"2" = 0;
"3" = 0;
"4" = 0;
"5" = 0;
"6" = 0;
"7" = 0;
"8" = 0;
"9" = 0;
};
};
width = 713;
}
);
},
{
color = 5;
glyphname = L;
kernLeft = D;
kernRight = L;
lastChange = "2023-08-04 17:34:22 +0000";
layers = (
{
anchors = (
{
name = bottom;
pos = (278,0);
},
{
name = center;
pos = (278,361);
},
{
name = top;
pos = (278,722);
},
{
name = topright;
pos = (352,500);
}
);
layerId = "452AD06C-4D92-427C-8B35-838986F56274";
shapes = (
{
closed = 1;
nodes = (
(488,0,l),
(519,185,l),
(511,187,l),
(463,47,o),
(413,26,o),
(172,24,c),
(172,722,l),
(30,722,l),
(30,715,l),
(50,715,ls),
(86,715,o),
(102,695,o),
(102,645,cs),
(102,109,ls),
(102,52,o),
(100,31,o),
(93,0,c)
);
}
);
userData = {
com.hugojourdan.ColorFlow = {
"0" = 0;
"1" = 0;
"10" = 0;
"11" = 0;
"2" = 0;
"3" = 0;
"4" = 0;
"5" = 0;
"6" = 0;
"7" = 0;
"8" = 0;
"9" = 0;
};
};
width = 544;
},
{
anchors = (
{
name = bottom;
pos = (304,0);
},
{
name = center;
pos = (304,361);
},
{
name = top;
pos = (304,722);
},
{
name = topright;
pos = (419,523);
}
);
layerId = m004;
shapes = (
{
closed = 1;
nodes = (
(589,0,l),
(622,332,l),
(597,336,l),
(563,155,o),
(476,92,o),
(288,90,c),
(288,722,l),
(20,722,l),
(20,698,l),
(36,698,ls),
(70,698,o),
(88,676,o),
(88,634,cs),
(88,126,ls),
(88,72,o),
(83,36,o),
(72,0,c)
);
}
);
userData = {
com.hugojourdan.ColorFlow = {
"0" = 0;
"1" = 0;
"10" = 0;
"11" = 0;
"2" = 0;
"3" = 0;
"4" = 0;
"5" = 0;
"6" = 0;
"7" = 0;
"8" = 0;
"9" = 0;
};
};
width = 642;
},
{
anchors = (
{
name = bottom;
pos = (292,0);
},
{
name = center;
pos = (292,361);
},
{
name = top;
pos = (292,722);
},
{
name = topright;
pos = (568,722);
}
);
layerId = "D54810B1-F9A5-4F35-A1FF-AED0599B2373";
shapes = (
{
closed = 1;
nodes = (
(543,0,l),
(575,265,l),
(558,268,l),
(518,106,o),
(447,57,o),
(235,55,c),
(235,722,l),
(24,722,l),
(24,706,l),
(42,706,ls),
(77,706,o),
(94,686,o),
(94,642,cs),
(94,118,ls),
(94,62,o),
(91,34,o),
(81,0,c)
);
}
);
userData = {
com.hugojourdan.ColorFlow = {
"0" = 0;
"1" = 0;
"10" = 0;
"11" = 0;
"2" = 0;
"3" = 0;
"4" = 0;
"5" = 0;
"6" = 0;
"7" = 0;
"8" = 0;
"9" = 0;
};
};
width = 597.59375;
}
);
unicode = 76;
},
{
color = 4;
glyphname = L.ss01;
kernLeft = D;
kernRight = L;
lastChange = "2023-08-04 17:34:22 +0000";
layers = (
{
anchors = (
{
name = bottom;
pos = (278,0);
},
{
name = center;
pos = (278,361);
},
{
name = top;
pos = (278,722);
},
{
name = topright;
pos = (554,722);
}
);
layerId = "452AD06C-4D92-427C-8B35-838986F56274";
shapes = (
{
closed = 1;
nodes = (
(488,0,l),
(519,185,l),
(511,187,l),
(463,47,o),
(413,22,o),
(172,20,c),
(172,780,ls),
(172,840,o),
(174,864,o),
(178,894,c),
(30,894,l),
(30,887,l),
(50,887,ls),
(86,887,o),
(102,867,o),
(102,817,cs),
(102,109,ls),
(102,52,o),
(100,31,o),
(93,0,c)
);
}
);
userData = {
com.hugojourdan.ColorFlow = {
"0" = 0;
"1" = 0;
"10" = 0;
"11" = 0;
"2" = 0;
"3" = 0;
"4" = 0;
"5" = 0;
"6" = 0;
"7" = 0;
"8" = 0;
"9" = 0;
};
};
width = 544;
},
{
anchors = (
{
name = bottom;
pos = (304,0);
},
{
name = center;
pos = (304,361);
},
{
name = top;
pos = (304,722);
},
{
name = topright;
pos = (580,722);
}
);
layerId = m004;
shapes = (
{
closed = 1;
nodes = (
(589,0,l),
(622,332,l),
(597,336,l),
(563,155,o),
(476,92,o),
(288,90,c),
(288,768,ls),
(288,822,o),
(292,860,o),
(302,894,c),
(20,894,l),
(20,870,l),
(36,870,ls),
(70,870,o),
(88,848,o),
(88,806,cs),
(88,126,ls),
(88,72,o),
(83,36,o),
(72,0,c)
);
}
);
userData = {
com.hugojourdan.ColorFlow = {
"0" = 0;
"1" = 0;
"10" = 0;
"11" = 0;
"2" = 0;
"3" = 0;
"4" = 0;
"5" = 0;
"6" = 0;
"7" = 0;
"8" = 0;
"9" = 0;
};
};
width = 642;
},
{
anchors = (
{
name = bottom;
pos = (292,0);
},
{
name = center;
pos = (292,361);
},
{
name = top;
pos = (292,722);
},
{
name = topright;
pos = (568,722);
}
);
layerId = "D54810B1-F9A5-4F35-A1FF-AED0599B2373";
shapes = (
{
closed = 1;
nodes = (
(543,0,l),
(575,265,l),
(558,268,l),
(518,106,o),
(447,60,o),
(235,58,c),
(235,774,ls),
(235,830,o),
(238,861,o),
(245,894,c),
(24,894,l),
(24,878,l),
(42,878,ls),
(77,878,o),
(94,858,o),
(94,814,cs),
(94,118,ls),
(94,62,o),
(91,34,o),
(81,0,c)
);
}
);
userData = {
com.hugojourdan.ColorFlow = {
"0" = 0;
"1" = 0;
"10" = 0;
"11" = 0;
"2" = 0;
"3" = 0;
"4" = 0;
"5" = 0;
"6" = 0;
"7" = 0;
"8" = 0;
"9" = 0;
};
};
width = 597.59375;
}
);
},
{
color = 5;
glyphname = M;
kernLeft = M;
kernRight = M;
lastChange = "2023-08-04 17:34:22 +0000";
layers = (
{
anchors = (
{
name = bottom;
pos = (450,0);
},
{
name = top;
pos = (450,722);
}
);
layerId = "452AD06C-4D92-427C-8B35-838986F56274";
shapes = (
{
closed = 1;
nodes = (
(123,0,l),
(102,32,o),
(96,54,o),
(104,110,cs),
(173,624,l),
(429,-10,l),
(433,-10,l),
(670,590,l),
(753,108,ls),
(762,54,o),
(757,36,o),
(743,0,c),
(867,0,l),
(850,26,o),
(832,55,o),
(823,110,cs),
(737,645,ls),
(729,694,o),
(755,715,o),
(802,715,cs),
(828,715,l),
(828,722,l),
(698,722,l),
(454,121,l),
(210,722,l),
(56,722,l),
(56,715,l),
(82,715,ls),
(129,715,o),
(137,692,o),
(158,647,cs),
(149,666,l),
(78,110,ls),
(71,54,o),
(57,26,o),
(40,0,c)
);
}
);
userData = {
com.hugojourdan.ColorFlow = {
"0" = 0;
"1" = 0;
"10" = 0;
"11" = 0;
"2" = 0;
"3" = 0;
"4" = 0;
"5" = 0;
"6" = 0;
"7" = 0;
"8" = 0;
"9" = 0;
};
};
width = 897;
},
{
anchors = (
{
name = bottom;
pos = (409,0);
},
{
name = top;
pos = (409,722);
}
);
layerId = m004;
shapes = (
{
closed = 1;
nodes = (
(149,0,l),
(139,31,o),
(138,54,o),
(143,111,cs),
(175,473,l),
(357,0,l),
(416,0,l),
(594,461,l),
(625,128,ls),
(631,64,o),
(631,36,o),
(622,0,c),
(855,0,l),
(843,26,o),
(840,55,o),
(834,130,cs),
(791,634,ls),
(787,676,o),
(809,698,o),
(846,698,cs),
(864,698,l),
(864,722,l),
(615,722,l),
(460,339,l),
(314,722,l),
(30,722,l),
(30,698,l),
(48,698,ls),
(85,698,o),
(105,676,o),
(105,634,cs),
(105,638,l),
(59,111,ls),
(54,54,o),
(49,28,o),
(35,0,c)
);
}
);
userData = {
com.hugojourdan.ColorFlow = {
"0" = 0;
"1" = 0;
"10" = 0;
"11" = 0;
"2" = 0;
"3" = 0;
"4" = 0;
"5" = 0;
"6" = 0;
"7" = 0;
"8" = 0;
"9" = 0;
};
};
width = 894;
},
{
anchors = (
{
name = bottom;
pos = (425,0);
},
{
name = top;
pos = (425,722);
}
);
layerId = "D54810B1-F9A5-4F35-A1FF-AED0599B2373";
shapes = (
{
closed = 1;
nodes = (
(135,0,l),
(120,31,o),
(117,54,o),
(123,111,cs),
(172,541,l),
(387,-5,l),
(421,-5,l),
(626,519,l),
(681,119,ls),
(688,59,o),
(686,36,o),
(675,0,c),
(858,0,l),
(844,26,o),
(834,55,o),
(827,121,cs),
(764,639,ls),
(759,684,o),
(782,705,o),
(824,705,cs),
(845,705,l),
(845,722,l),
(650,722,l),
(455,240,l),
(265,722,l),
(38,722,l),
(38,705,l),
(60,705,ls),
(102,705,o),
(117,684,o),
(125,639,cs),
(123,651,l),
(65,111,ls),
(59,54,o),
(50,27,o),
(35,0,c)
);
}
);
userData = {
com.hugojourdan.ColorFlow = {
"0" = 0;
"1" = 0;
"10" = 0;
"11" = 0;
"2" = 0;
"3" = 0;
"4" = 0;
"5" = 0;
"6" = 0;
"7" = 0;
"8" = 0;
"9" = 0;
};
};
width = 893.54688;
}
);
unicode = 77;
},
{
color = 4;
glyphname = M.ss01;
kernLeft = O;
kernRight = O;
lastChange = "2023-08-04 17:34:22 +0000";
layers = (
{
anchors = (
{
name = bottom;
pos = (678,0);
},
{
name = top;
pos = (678,722);
}
);
layerId = "D54810B1-F9A5-4F35-A1FF-AED0599B2373";
shapes = (
{
closed = 1;
nodes = (
(815,0,l),
(866,-19,o),
(918,-29,o),
(970,-29,cs),
(1209,-29,o),
(1324,164,o),
(1324,357,cs),
(1324,550,o),
(1203,744,o),
(952,744,cs),
(848,744,o),
(745,702,o),
(679,618,c),
(623,706,o),
(543,747,o),
(427,747,cs),
(158,747,o),
(40,528,o),
(40,319,cs),
(40,95,o),
(184,-44,o),
(352,-44,cs),
(405,-44,o),
(460,-30,o),
(514,0,c),
(508,17,l),
(486,10,o),
(465,6,o),
(445,6,cs),
(293,6,o),
(215,181,o),
(215,355,cs),
(215,526,o),
(274,697,o),
(431,700,cs),
(530,702,o),
(593,629,o),
(593,481,cs),
(593,152,ls),
(593,87,o),
(590,34,o),
(570,0,c),
(768,0,l),
(748,34,o),
(743,87,o),
(743,152,cs),
(743,500,ls),
(743,628,o),
(825,693,o),
(909,693,cs),
(1062,693,o),
(1144,518,o),
(1144,345,cs),
(1144,174,o),
(1069,5,o),
(900,5,cs),
(875,5,o),
(848,9,o),
(820,17,c)
);
}
);
userData = {
com.hugojourdan.ColorFlow = {
"0" = 0;
"1" = 0;
"10" = 0;
"11" = 0;
"2" = 0;
"3" = 0;
"4" = 0;
"5" = 0;
"6" = 0;
"7" = 0;
"8" = 0;
"9" = 0;
};
};
width = 1364;
},
{
anchors = (
{
name = bottom;
pos = (652,0);
},
{
name = top;
pos = (652,722);
}
);
layerId = m004;
name = Nera;
shapes = (
{
closed = 1;
nodes = (
(857,0,l),
(914,-25,o),
(970,-37,o),
(1023,-37,cs),
(1247,-37,o),
(1367,160,o),
(1367,357,cs),
(1367,565,o),
(1248,748,o),
(997,748,cs),
(888,748,o),
(778,707,o),
(705,632,c),
(637,705,o),
(528,747,o),
(417,747,cs),
(155,747,o),
(30,543,o),
(30,327,cs),
(30,138,o),
(136,-44,o),
(336,-44,cs),
(390,-44,o),
(448,-30,o),
(506,0,c),
(500,27,l),
(479,22,o),
(459,20,o),
(441,20,cs),
(303,20,o),
(240,180,o),
(240,341,cs),
(240,505,o),
(305,670,o),
(430,670,cs),
(510,670,o),
(585,613,o),
(585,461,cs),
(585,152,ls),
(585,87,o),
(582,34,o),
(562,0,c),
(810,0,l),
(790,34,o),
(785,87,o),
(785,152,cs),
(785,454,ls),
(785,600,o),
(861,669,o),
(944,669,cs),
(1075,669,o),
(1143,504,o),
(1143,341,cs),
(1143,178,o),
(1076,17,o),
(936,17,cs),
(913,17,o),
(889,20,o),
(862,27,c)
);
}
);
userData = {
com.hugojourdan.ColorFlow = {
"0" = 0;
"1" = 0;
"10" = 0;
"11" = 0;
"2" = 0;
"3" = 0;
"4" = 0;
"5" = 0;
"6" = 0;
"7" = 0;
"8" = 0;
"9" = 0;
};
};
width = 1397;
},
{
anchors = (
{
name = bottom;
pos = (651,0);
},
{
name = top;
pos = (651,722);
}
);
layerId = "452AD06C-4D92-427C-8B35-838986F56274";
shapes = (
{
closed = 1;
nodes = (
(794,32,l),
(840,5,o),
(897,-11,o),
(945,-11,cs),
(1098,-11,o),
(1259,104,o),
(1259,365,cs),
(1259,605,o),
(1088,724,o),
(921,724,cs),
(816,724,o),
(712,676,o),
(656,580,c),
(614,681,o),
(522,727,o),
(421,727,cs),
(174,727,o),
(50,521,o),
(50,329,cs),
(50,159,o),
(147,-1,o),
(341,-1,cs),
(382,-1,o),
(424,9,o),
(464,31,c),
(462,36,l),
(432,25,o),
(401,19,o),
(373,19,cs),
(213,19,o),
(131,180,o),
(131,346,cs),
(131,521,o),
(222,702,o),
(407,702,cs),
(515,702,o),
(614,622,o),
(614,468,cs),
(614,100,ls),
(614,30,o),
(611,16,o),
(599,0,c),
(698,0,l),
(684,15,o),
(684,34,o),
(684,102,cs),
(684,487,ls),
(684,623,o),
(783,694,o),
(893,694,cs),
(1028,694,o),
(1179,585,o),
(1179,355,cs),
(1179,158,o),
(1067,15,o),
(927,15,cs),
(878,15,o),
(839,20,o),
(796,37,c)
);
}
);
userData = {
com.hugojourdan.ColorFlow = {
"0" = 0;
"1" = 0;
"10" = 0;
"11" = 0;
"2" = 0;
"3" = 0;
"4" = 0;
"5" = 0;
"6" = 0;
"7" = 0;
"8" = 0;
"9" = 0;
};
};
width = 1309;
}
);
metricLeft = O;
metricRight = O;
},
{
color = 5;
glyphname = N;
kernLeft = N;
kernRight = N;
lastChange = "2023-08-04 17:34:22 +0000";
layers = (
{
anchors = (
{
name = bottom;
pos = (395,0);
},
{
name = top;
pos = (395,722);
}
);
layerId = "452AD06C-4D92-427C-8B35-838986F56274";
shapes = (
{
closed = 1;
nodes = (
(259,0,l),
(259,7,l),
(198,18,o),
(189,64,o),
(182,113,cs),
(169,198,o),
(166,358,o),
(162,629,c),
(692,-5,l),
(709,0,l),
(709,588,ls),
(709,658,o),
(710,684,o),
(715,722,c),
(585,722,l),
(585,715,l),
(616,715,o),
(638,713,o),
(653,676,cs),
(677,618,o),
(685,474,o),
(685,114,c),
(177,722,l),
(10,722,l),
(10,715,l),
(80,715,o),
(98,705,o),
(136,660,c),
(136,84,ls),
(136,40,o),
(134,24,o),
(126,0,c)
);
}
);
userData = {
com.hugojourdan.ColorFlow = {
"0" = 0;
"1" = 0;
"10" = 0;
"11" = 0;
"2" = 0;
"3" = 0;
"4" = 0;
"5" = 0;
"6" = 0;
"7" = 0;
"8" = 0;
"9" = 0;
};
};
width = 765;
},
{
anchors = (
{
name = bottom;
pos = (386,0);
},
{
name = top;
pos = (386,722);
}
);
layerId = m004;
shapes = (
{
closed = 1;
nodes = (
(343,0,l),
(343,24,l),
(288,30,o),
(256,56,o),
(235,113,cs),
(205,195,o),
(208,334,o),
(208,517,c),
(640,0,l),
(775,0,l),
(775,588,ls),
(775,645,o),
(780,684,o),
(793,722,c),
(560,722,l),
(560,698,l),
(599,699,o),
(639,687,o),
(666,630,cs),
(695,569,o),
(697,452,o),
(697,245,c),
(299,722,l),
(10,722,l),
(10,698,l),
(52,696,o),
(68,683,o),
(130,608,c),
(119,134,ls),
(118,77,o),
(112,38,o),
(99,0,c)
);
}
);
userData = {
com.hugojourdan.ColorFlow = {
"0" = 0;
"1" = 0;
"10" = 0;
"11" = 0;
"2" = 0;
"3" = 0;
"4" = 0;
"5" = 0;
"6" = 0;
"7" = 0;
"8" = 0;
"9" = 0;
};
};
width = 843;
},
{
anchors = (
{
name = bottom;
pos = (391,0);
},
{
name = top;
pos = (391,722);
}
);
layerId = "D54810B1-F9A5-4F35-A1FF-AED0599B2373";
shapes = (
{
closed = 1;
nodes = (
(305,0,l),
(305,16,l),
(248,24,o),
(226,59,o),
(211,112,cs),
(189,196,o),
(189,348,o),
(188,569,c),
(695,0,l),
(746,0,l),
(746,588,ls),
(746,652,o),
(749,684,o),
(757,722,c),
(572,722,l),
(572,708,l),
(607,708,o),
(639,701,o),
(661,653,cs),
(687,593,o),
(692,495,o),
(692,218,c),
(244,722,l),
(10,722,l),
(10,706,l),
(65,705,o),
(82,693,o),
(133,632,c),
(127,112,ls),
(126,58,o),
(123,32,o),
(112,0,c)
);
}
);
userData = {
com.hugojourdan.ColorFlow = {
"0" = 0;
"1" = 0;
"10" = 0;
"11" = 0;
"2" = 0;
"3" = 0;
"4" = 0;
"5" = 0;
"6" = 0;
"7" = 0;
"8" = 0;
"9" = 0;
};
};
width = 807;
}
);
unicode = 78;
},
{
color = 4;
glyphname = N.ss01;
kernLeft = D;
kernRight = N;
lastChange = "2023-08-04 17:34:22 +0000";
layers = (
{
anchors = (
{
name = bottom;
pos = (376,0);
},
{
name = top;
pos = (376,722);
}
);
layerId = "D54810B1-F9A5-4F35-A1FF-AED0599B2373";
shapes = (
{
closed = 1;
nodes = (
(44,705,o),
(75,678,o),
(121,644,c),
(111,112,ls),
(110,58,o),
(106,32,o),
(96,0,c),
(307,0,l),
(307,16,l),
(241,24,o),
(214,53,o),
(199,112,cs),
(178,193,o),
(169,339,o),
(176,593,c),
(639,170,l),
(639,155,ls),
(639,62,o),
(634,36,o),
(609,0,c),
(720,0,l),
(697,36,o),
(691,62,o),
(690,155,cs),
(689,236,l),
(689,588,ls),
(689,652,o),
(691,684,o),
(698,722,c),
(499,722,l),
(499,705,l),
(555,705,o),
(586,688,o),
(606,650,cs),
(622,619,o),
(636,551,o),
(638,422,cs),
(638,402,o),
(638,386,o),
(642,368,c),
(637,375,o),
(632,382,o),
(613,399,cs),
(259,722,l),
(-10,722,l),
(-10,705,l)
);
}
);
userData = {
com.hugojourdan.ColorFlow = {
"0" = 0;
"1" = 0;
"10" = 0;
"11" = 0;
"2" = 0;
"3" = 0;
"4" = 0;
"5" = 0;
"6" = 0;
"7" = 0;
"8" = 0;
"9" = 0;
};
};
width = 750;
},
{
anchors = (
{
name = bottom;
pos = (429,0);
},
{
name = top;
pos = (429,722);
}
);
layerId = m004;
name = Nera;
shapes = (
{
closed = 1;
nodes = (
(66,705,o),
(105,659,o),
(151,614,c),
(140,112,ls),
(138,64,o),
(132,32,o),
(119,0,c),
(363,0,l),
(363,16,l),
(297,24,o),
(270,53,o),
(255,112,cs),
(234,193,o),
(227,284,o),
(232,549,c),
(695,139,l),
(695,127,ls),
(695,62,o),
(690,36,o),
(665,0,c),
(827,0,l),
(804,36,o),
(798,62,o),
(797,155,cs),
(796,236,l),
(796,588,ls),
(796,645,o),
(800,684,o),
(808,722,c),
(555,722,l),
(555,705,l),
(611,705,o),
(642,688,o),
(662,650,cs),
(678,619,o),
(692,558,o),
(694,454,cs),
(694,434,o),
(694,418,o),
(698,400,c),
(693,407,o),
(688,412,o),
(668,430,cs),
(338,722,l),
(-10,722,l),
(-10,705,l)
);
}
);
userData = {
com.hugojourdan.ColorFlow = {
"0" = 0;
"1" = 0;
"10" = 0;
"11" = 0;
"2" = 0;
"3" = 0;
"4" = 0;
"5" = 0;
"6" = 0;
"7" = 0;
"8" = 0;
"9" = 0;
};
};
width = 857;
},
{
anchors = (
{
name = bottom;
pos = (353,0);
},
{
name = top;
pos = (353,722);
}
);
layerId = "452AD06C-4D92-427C-8B35-838986F56274";
shapes = (
{
closed = 1;
nodes = (
(45,717,o),
(76,689,o),
(116,657,c),
(114,84,ls),
(114,40,o),
(112,24,o),
(104,0,c),
(241,0,l),
(241,7,l),
(180,18,o),
(171,64,o),
(164,113,cs),
(151,195,o),
(148,345,o),
(142,638,c),
(623,242,l),
(622,155,ls),
(621,62,o),
(618,24,o),
(598,0,c),
(674,0,l),
(656,24,o),
(651,62,o),
(650,155,cs),
(649,236,l),
(649,588,ls),
(649,658,o),
(650,684,o),
(655,722,c),
(525,722,l),
(525,715,l),
(556,715,o),
(578,713,o),
(593,676,cs),
(610,634,o),
(618,562,o),
(622,383,cs),
(623,354,o),
(623,340,o),
(624,326,c),
(620,331,o),
(613,340,o),
(591,358,cs),
(150,722,l),
(-10,722,l),
(-10,717,l)
);
}
);
userData = {
com.hugojourdan.ColorFlow = {
"0" = 0;
"1" = 0;
"10" = 0;
"11" = 0;
"2" = 0;
"3" = 0;
"4" = 0;
"5" = 0;
"6" = 0;
"7" = 0;
"8" = 0;
"9" = 0;
};
};
width = 704;
}
);
},
{
color = 5;
glyphname = O;
kernLeft = O;
kernRight = O;
lastChange = "2023-08-04 17:34:22 +0000";
layers = (
{
anchors = (
{
name = bottom;
pos = (428,0);
},
{
name = center;
pos = (428,361);
},
{
name = ogonek;
pos = (791,10);
},
{
name = top;
pos = (428,722);
},
{
name = topleft;
pos = (-7,722);
},
{
name = topright;
pos = (862,722);
}
);
layerId = "452AD06C-4D92-427C-8B35-838986F56274";
shapes = (
{
closed = 1;
nodes = (
(679,-17,o),
(805,171,o),
(805,360,cs),
(805,549,o),
(679,738,o),
(428,738,cs),
(241,738,o),
(50,605,o),
(50,360,cs),
(50,109,o),
(231,-17,o),
(429,-17,cs)
);
},
{
closed = 1;
nodes = (
(227,6,o),
(127,190,o),
(127,370,cs),
(127,541,o),
(216,712,o),
(422,712,cs),
(622,712,o),
(726,526,o),
(726,345,cs),
(726,173,o),
(632,6,o),
(437,6,cs)
);
}
);
userData = {
com.hugojourdan.ColorFlow = {
"0" = 0;
"1" = 0;
"10" = 0;
"11" = 0;
"2" = 0;
"3" = 0;
"4" = 0;
"5" = 0;
"6" = 0;
"7" = 0;
"8" = 0;
"9" = 0;
};
};
width = 855;
},
{
anchors = (
{
name = bottom;
pos = (421,0);
},
{
name = center;
pos = (421,361);
},
{
name = ogonek;
pos = (784,10);
},
{
name = top;
pos = (396,722);
},
{
name = topleft;
pos = (-14,722);
},
{
name = topright;
pos = (855,722);
}
);
layerId = m004;
shapes = (
{
closed = 1;
nodes = (
(658,-20,o),
(772,161,o),
(772,356,cs),
(772,537,o),
(662,733,o),
(403,733,cs),
(143,733,o),
(30,537,o),
(30,356,cs),
(30,161,o),
(141,-20,o),
(403,-20,cs)
);
},
{
closed = 1;
nodes = (
(341,61,o),
(267,149,o),
(255,353,cs),
(243,564,o),
(309,652,o),
(387,654,cs),
(464,656,o),
(538,569,o),
(549,372,cs),
(561,154,o),
(487,61,o),
(413,61,cs)
);
}
);
userData = {
com.hugojourdan.ColorFlow = {
"0" = 0;
"1" = 0;
"10" = 0;
"11" = 0;
"2" = 0;
"3" = 0;
"4" = 0;
"5" = 0;
"6" = 0;
"7" = 0;
"8" = 0;
"9" = 0;
};
};
width = 802;
},
{
anchors = (
{
name = bottom;
pos = (428,0);
},
{
name = center;
pos = (428,361);
},
{
name = ogonek;
pos = (791,10);
},
{
name = top;
pos = (428,722);
},
{
name = topleft;
pos = (-7,722);
},
{
name = topright;
pos = (862,722);
}
);
layerId = "D54810B1-F9A5-4F35-A1FF-AED0599B2373";
shapes = (
{
closed = 1;
nodes = (
(673,-19,o),
(792,166,o),
(792,358,cs),
(792,542,o),
(673,735,o),
(418,735,cs),
(191,735,o),
(40,568,o),
(40,358,cs),
(40,137,o),
(181,-19,o),
(419,-19,cs)
);
},
{
closed = 1;
nodes = (
(297,36,o),
(209,168,o),
(203,361,cs),
(196,554,o),
(277,680,o),
(407,680,cs),
(532,680,o),
(621,550,o),
(627,360,cs),
(634,163,o),
(552,36,o),
(428,36,cs)
);
}
);
userData = {
com.hugojourdan.ColorFlow = {
"0" = 0;
"1" = 0;
"10" = 0;
"11" = 0;
"2" = 0;
"3" = 0;
"4" = 0;
"5" = 0;
"6" = 0;
"7" = 0;
"8" = 0;
"9" = 0;
};
};
width = 832;
}
);
unicode = 79;
},
{
color = 5;
glyphname = OE;
kernLeft = O;
kernRight = E;
lastChange = "2023-08-04 17:34:22 +0000";
layers = (
{
anchors = (
{
name = bottom;
pos = (673,0);
},
{
name = top;
pos = (673,722);
}
);
layerId = "452AD06C-4D92-427C-8B35-838986F56274";
shapes = (
{
closed = 1;
nodes = (
(489,-17,o),
(541,0,o),
(599,0,cs),
(967,0,l),
(1016,159,l),
(1008,163,l),
(949,46,o),
(811,26,o),
(655,26,c),
(655,417,l),
(799,417,ls),
(878,417,o),
(918,408,o),
(951,365,c),
(957,369,l),
(957,480,l),
(951,485,l),
(918,453,o),
(878,433,o),
(799,433,cs),
(655,433,l),
(655,704,l),
(758,704,ls),
(866,704,o),
(898,690,o),
(957,587,c),
(964,590,l),
(925,722,l),
(587,722,ls),
(533,722,o),
(494,733,o),
(426,733,cs),
(228,733,o),
(50,611,o),
(50,360,cs),
(50,109,o),
(229,-17,o),
(427,-17,cs)
);
},
{
closed = 1;
nodes = (
(225,6,o),
(122,191,o),
(122,371,cs),
(122,542,o),
(215,710,o),
(421,710,cs),
(546,710,o),
(585,695,o),
(585,577,cs),
(585,85,ls),
(585,20,o),
(511,6,o),
(435,6,cs)
);
}
);
userData = {
com.hugojourdan.ColorFlow = {
"0" = 0;
"1" = 0;
"10" = 0;
"11" = 0;
"2" = 0;
"3" = 0;
"4" = 0;
"5" = 0;
"6" = 0;
"7" = 0;
"8" = 0;
"9" = 0;
};
};
width = 1046;
},
{
anchors = (
{
name = bottom;
pos = (654,0);
},
{
name = top;
pos = (654,722);
}
);
layerId = m004;
shapes = (
{
closed = 1;
nodes = (
(460,-9,o),
(501,0,o),
(548,0,cs),
(1033,0,l),
(1098,262,l),
(1070,269,l),
(1021,128,o),
(893,92,o),
(722,90,c),
(722,411,l),
(849,410,ls),
(928,409,o),
(958,406,o),
(973,364,c),
(990,368,l),
(989,529,l),
(973,531,l),
(958,489,o),
(928,486,o),
(849,485,cs),
(722,484,l),
(722,652,l),
(796,652,ls),
(958,652,o),
(1011,601,o),
(1058,518,c),
(1080,527,l),
(1036,722,l),
(534,722,ls),
(503,722,o),
(453,730,o),
(399,730,cs),
(149,730,o),
(30,537,o),
(30,356,cs),
(30,161,o),
(158,-9,o),
(398,-9,cs)
);
},
{
closed = 1;
nodes = (
(352,59,o),
(279,136,o),
(274,353,cs),
(268,591,o),
(344,662,o),
(417,667,cs),
(481,671,o),
(528,628,o),
(532,547,c),
(532,113,l),
(534,71,o),
(487,59,o),
(422,59,cs)
);
}
);
userData = {
com.hugojourdan.ColorFlow = {
"0" = 0;
"1" = 0;
"10" = 0;
"11" = 0;
"2" = 0;
"3" = 0;
"4" = 0;
"5" = 0;
"6" = 0;
"7" = 0;
"8" = 0;
"9" = 0;
};
};
width = 1131;
},
{
anchors = (
{
name = bottom;
pos = (664,0);
},
{
name = top;
pos = (664,722);
}
);
layerId = "D54810B1-F9A5-4F35-A1FF-AED0599B2373";
shapes = (
{
closed = 1;
nodes = (
(474,-13,o),
(520,0,o),
(572,0,cs),
(1004,0,l),
(1062,215,l),
(1043,221,l),
(989,91,o),
(857,62,o),
(693,61,c),
(693,414,l),
(827,413,ls),
(906,413,o),
(941,407,o),
(964,364,c),
(976,368,l),
(976,507,l),
(964,510,l),
(941,473,o),
(906,462,o),
(827,461,cs),
(693,461,l),
(693,676,l),
(780,676,ls),
(917,676,o),
(961,641,o),
(1013,549,c),
(1028,556,l),
(987,722,l),
(559,722,ls),
(518,722,o),
(473,731,o),
(412,731,cs),
(186,731,o),
(40,571,o),
(40,358,cs),
(40,137,o),
(191,-13,o),
(412,-13,cs)
);
},
{
closed = 1;
nodes = (
(295,35,o),
(209,161,o),
(206,361,cs),
(203,569,o),
(287,684,o),
(420,686,cs),
(511,689,o),
(555,658,o),
(557,561,cs),
(557,100,ls),
(558,48,o),
(499,35,o),
(429,35,cs)
);
}
);
userData = {
com.hugojourdan.ColorFlow = {
"0" = 0;
"1" = 0;
"10" = 0;
"11" = 0;
"2" = 0;
"3" = 0;
"4" = 0;
"5" = 0;
"6" = 0;
"7" = 0;
"8" = 0;
"9" = 0;
};
};
width = 1092;
}
);
metricLeft = O;
metricRight = E;
unicode = 338;
},
{
color = 4;
glyphname = OE.ss01;
kernLeft = O;
kernRight = C;
lastChange = "2023-08-04 17:34:22 +0000";
layers = (
{
anchors = (
{
name = bottom;
pos = (664,0);
},
{
name = top;
pos = (664,722);
}
);
layerId = "D54810B1-F9A5-4F35-A1FF-AED0599B2373";
shapes = (
{
closed = 1;
nodes = (
(196,554,o),
(277,680,o),
(407,680,cs),
(509,680,o),
(588,593,o),
(616,457,c),
(456,457,l),
(427,338,o),
(446,184,o),
(546,86,c),
(514,54,o),
(474,36,o),
(428,36,cs),
(297,36,o),
(209,168,o),
(203,361,cs)
);
},
{
closed = 1;
nodes = (
(40,137,o),
(181,-19,o),
(419,-19,cs),
(500,-19,o),
(567,-1,o),
(621,31,c),
(681,-2,o),
(755,-18,o),
(838,-17,cs),
(920,-15,o),
(1001,0,o),
(1079,34,c),
(1109,246,l),
(1097,249,l),
(1047,130,o),
(956,37,o),
(852,34,cs),
(675,28,o),
(601,227,o),
(604,400,c),
(890,400,ls),
(970,400,o),
(1028,396,o),
(1041,350,c),
(1053,353,l),
(1053,503,l),
(1041,506,l),
(1028,462,o),
(970,454,o),
(890,454,cs),
(781,454,l),
(766,517,o),
(737,577,o),
(692,625,c),
(736,668,o),
(792,688,o),
(846,688,cs),
(938,688,o),
(1025,630,o),
(1042,526,c),
(1054,527,l),
(1081,686,l),
(1014,720,o),
(937,738,o),
(858,738,cs),
(776,738,o),
(695,719,o),
(626,680,c),
(571,714,o),
(502,735,o),
(418,735,cs),
(191,735,o),
(40,568,o),
(40,358,cs)
);
}
);
userData = {
com.hugojourdan.ColorFlow = {
"0" = 0;
"1" = 0;
"10" = 0;
"11" = 0;
"2" = 0;
"3" = 0;
"4" = 0;
"5" = 0;
"6" = 0;
"7" = 0;
"8" = 0;
"9" = 0;
};
};
width = 1139;
},
{
anchors = (
{
name = bottom;
pos = (663,0);
},
{
name = top;
pos = (663,722);
}
);
layerId = m004;
name = Nera;
shapes = (
{
closed = 1;
nodes = (
(253,548,o),
(318,652,o),
(387,652,cs),
(435,652,o),
(484,603,o),
(511,500,c),
(514,489,l),
(525,440,o),
(532,380,o),
(532,310,cs),
(532,139,o),
(478,59,o),
(418,59,cs),
(350,59,o),
(275,162,o),
(264,353,cs)
);
},
{
closed = 1;
nodes = (
(30,81,o),
(225,-19,o),
(397,-19,cs),
(483,-19,o),
(562,6,o),
(609,51,c),
(674,6,o),
(755,-15,o),
(850,-15,cs),
(933,-15,o),
(1019,-1,o),
(1103,22,c),
(1126,297,l),
(1110,300,l),
(1071,189,o),
(982,61,o),
(876,60,cs),
(726,59,o),
(688,237,o),
(675,396,c),
(954,393,ls),
(1016,392,o),
(1028,392,o),
(1044,375,c),
(1060,378,l),
(1078,510,l),
(1031,530,l),
(1039,488,o),
(1036,467,o),
(995,467,cs),
(715,467,l),
(674,467,o),
(661,479,o),
(679,537,c),
(709,636,o),
(804,667,o),
(861,667,cs),
(991,667,o),
(1046,555,o),
(1035,459,c),
(1069,443,l),
(1105,682,l),
(1047,717,o),
(958,739,o),
(863,739,cs),
(769,740,o),
(684,719,o),
(617,677,c),
(562,712,o),
(493,733,o),
(408,733,cs),
(148,733,o),
(30,537,o),
(30,356,cs)
);
}
);
userData = {
com.hugojourdan.ColorFlow = {
"0" = 0;
"1" = 0;
"10" = 0;
"11" = 0;
"2" = 0;
"3" = 0;
"4" = 0;
"5" = 0;
"6" = 0;
"7" = 0;
"8" = 0;
"9" = 0;
};
};
width = 1159;
},
{
anchors = (
{
name = bottom;
pos = (663,0);
},
{
name = top;
pos = (663,722);
}
);
layerId = "452AD06C-4D92-427C-8B35-838986F56274";
shapes = (
{
closed = 1;
nodes = (
(127,541,o),
(216,712,o),
(422,712,cs),
(589,712,o),
(689,582,o),
(718,433,c),
(548,433,l),
(528,332,o),
(544,190,o),
(630,95,c),
(581,36,o),
(508,6,o),
(433,6,cs),
(284,6,o),
(127,125,o),
(127,370,cs)
);
},
{
closed = 1;
nodes = (
(50,121,o),
(229,-17,o),
(424,-17,cs),
(506,-17,o),
(592,7,o),
(667,60,c),
(735,4,o),
(827,-24,o),
(928,-19,cs),
(1008,-15,o),
(1083,1,o),
(1154,48,c),
(1192,184,l),
(1185,187,l),
(1122,57,o),
(1028,8,o),
(927,2,cs),
(713,-11,o),
(606,197,o),
(618,415,c),
(1036,415,ls),
(1121,415,o),
(1151,403,o),
(1163,364,c),
(1169,365,l),
(1169,484,l),
(1163,485,l),
(1151,450,o),
(1121,433,o),
(1036,433,cs),
(799,433,l),
(786,504,o),
(755,572,o),
(705,625,c),
(762,685,o),
(840,718,o),
(928,718,cs),
(1051,718,o),
(1130,651,o),
(1161,550,c),
(1168,551,l),
(1156,690,l),
(1087,720,o),
(1028,735,o),
(955,735,cs),
(850,735,o),
(754,705,o),
(680,650,c),
(619,704,o),
(535,738,o),
(428,738,cs),
(241,738,o),
(50,605,o),
(50,360,cs)
);
}
);
userData = {
com.hugojourdan.ColorFlow = {
"0" = 0;
"1" = 0;
"10" = 0;
"11" = 0;
"2" = 0;
"3" = 0;
"4" = 0;
"5" = 0;
"6" = 0;
"7" = 0;
"8" = 0;
"9" = 0;
};
};
width = 1222;
}
);
metricLeft = O;
metricRight = E;
},
{
color = 5;
glyphname = P;
kernLeft = D;
kernRight = P;
lastChange = "2023-08-04 17:34:22 +0000";
layers = (
{
anchors = (
{
name = bottom;
pos = (289,0);
},
{
name = top;
pos = (289,722);
}
);
layerId = "452AD06C-4D92-427C-8B35-838986F56274";
shapes = (
{
closed = 1;
nodes = (
(192,0,l),
(176,22,o),
(172,36,o),
(172,76,cs),
(172,311,l),
(206,303,o),
(240,299,o),
(272,299,cs),
(420,299,o),
(558,389,o),
(558,548,cs),
(558,642,o),
(481,728,o),
(352,728,cs),
(300,728,o),
(237,712,o),
(172,671,c),
(172,722,l),
(30,722,l),
(30,716,l),
(50,716,ls),
(86,716,o),
(102,697,o),
(102,652,cs),
(102,84,ls),
(102,40,o),
(100,24,o),
(92,0,c)
);
},
{
closed = 1;
nodes = (
(172,653,l),
(224,682,o),
(270,694,o),
(309,694,cs),
(421,694,o),
(477,612,o),
(477,528,cs),
(477,401,o),
(374,324,o),
(253,324,cs),
(227,324,o),
(200,328,o),
(172,334,c)
);
}
);
userData = {
com.hugojourdan.ColorFlow = {
"0" = 0;
"1" = 0;
"10" = 0;
"11" = 0;
"2" = 0;
"3" = 0;
"4" = 0;
"5" = 0;
"6" = 0;
"7" = 0;
"8" = 0;
"9" = 0;
};
};
width = 595;
},
{
anchors = (
{
name = bottom;
pos = (300,0);
},
{
name = top;
pos = (300,722);
}
);
layerId = m004;
shapes = (
{
closed = 1;
nodes = (
(320,0,l),
(298,22,o),
(288,43,o),
(288,76,cs),
(288,300,l),
(330,285,o),
(376,278,o),
(421,278,cs),
(616,278,o),
(705,396,o),
(705,512,cs),
(705,623,o),
(623,731,o),
(478,731,cs),
(424,731,o),
(360,715,o),
(288,679,c),
(288,722,l),
(20,722,l),
(20,698,l),
(36,698,ls),
(70,698,o),
(88,676,o),
(88,634,cs),
(88,84,ls),
(88,48,o),
(82,24,o),
(68,0,c)
);
},
{
closed = 1;
nodes = (
(288,609,l),
(318,623,o),
(345,629,o),
(369,629,cs),
(449,629,o),
(495,562,o),
(495,494,cs),
(495,427,o),
(449,360,o),
(347,360,cs),
(329,360,o),
(310,362,o),
(288,367,c)
);
}
);
userData = {
com.hugojourdan.ColorFlow = {
"0" = 0;
"1" = 0;
"10" = 0;
"11" = 0;
"2" = 0;
"3" = 0;
"4" = 0;
"5" = 0;
"6" = 0;
"7" = 0;
"8" = 0;
"9" = 0;
};
};
width = 735;
},
{
anchors = (
{
name = bottom;
pos = (295,0);
},
{
name = top;
pos = (295,722);
}
);
layerId = "D54810B1-F9A5-4F35-A1FF-AED0599B2373";
shapes = (
{
closed = 1;
nodes = (
(250,0,l),
(239,24,o),
(235,44,o),
(235,84,cs),
(235,305,l),
(274,293,o),
(314,288,o),
(353,288,cs),
(527,288,o),
(638,393,o),
(638,528,cs),
(638,632,o),
(559,730,o),
(421,730,cs),
(368,730,o),
(304,714,o),
(235,675,c),
(235,722,l),
(24,722,l),
(24,706,l),
(42,706,ls),
(77,706,o),
(94,686,o),
(94,642,cs),
(94,84,ls),
(94,44,o),
(90,24,o),
(79,0,c)
);
},
{
closed = 1;
nodes = (
(235,629,l),
(275,650,o),
(311,658,o),
(342,658,cs),
(436,658,o),
(487,585,o),
(487,509,cs),
(487,415,o),
(415,344,o),
(304,344,cs),
(283,344,o),
(260,347,o),
(235,352,c)
);
}
);
userData = {
com.hugojourdan.ColorFlow = {
"0" = 0;
"1" = 0;
"10" = 0;
"11" = 0;
"2" = 0;
"3" = 0;
"4" = 0;
"5" = 0;
"6" = 0;
"7" = 0;
"8" = 0;
"9" = 0;
};
};
width = 671.5625;
}
);
unicode = 80;
},
{
color = 5;
glyphname = P.ss01;
kernLeft = D;
kernRight = O;
lastChange = "2023-08-04 17:34:22 +0000";
layers = (
{
anchors = (
{
name = bottom;
pos = (396,0);
},
{
name = top;
pos = (396,722);
}
);
layerId = "D54810B1-F9A5-4F35-A1FF-AED0599B2373";
shapes = (
{
closed = 1;
nodes = (
(220,629,l),
(273,653,o),
(323,665,o),
(370,665,cs),
(515,665,o),
(618,551,o),
(618,364,cs),
(618,145,o),
(495,42,o),
(386,42,cs),
(299,42,o),
(220,108,o),
(220,234,cs)
);
},
{
closed = 1;
nodes = (
(80,112,ls),
(80,-168,o),
(219,-367,o),
(599,-485,c),
(604,-470,l),
(312,-376,o),
(219,-189,o),
(219,16,cs),
(219,31,l),
(280,5,o),
(340,-6,o),
(396,-6,cs),
(618,-6,o),
(784,179,o),
(784,424,cs),
(784,639,o),
(657,741,o),
(484,741,cs),
(403,741,o),
(312,719,o),
(220,675,c),
(220,722,l),
(10,722,l),
(10,706,l),
(28,706,ls),
(63,706,o),
(80,686,o),
(80,642,cs)
);
}
);
userData = {
com.hugojourdan.ColorFlow = {
"0" = 0;
"1" = 0;
"10" = 0;
"11" = 0;
"2" = 0;
"3" = 0;
"4" = 0;
"5" = 0;
"6" = 0;
"7" = 0;
"8" = 0;
"9" = 0;
};
};
width = 824;
},
{
anchors = (
{
name = bottom;
pos = (454,0);
},
{
name = top;
pos = (454,722);
}
);
layerId = m004;
name = Nera;
shapes = (
{
closed = 1;
nodes = (
(278,605,l),
(331,629,o),
(381,641,o),
(428,641,cs),
(566,641,o),
(629,505,o),
(629,366,cs),
(629,218,o),
(559,66,o),
(432,66,cs),
(352,66,o),
(278,121,o),
(278,280,cs)
);
},
{
closed = 1;
nodes = (
(78,112,ls),
(78,-200,o),
(232,-367,o),
(657,-485,c),
(667,-459,l),
(336,-351,o),
(277,-189,o),
(277,16,cs),
(277,31,l),
(340,4,o),
(402,-8,o),
(460,-8,cs),
(706,-8,o),
(840,220,o),
(840,424,cs),
(840,638,o),
(726,740,o),
(549,740,cs),
(469,740,o),
(377,718,o),
(278,675,c),
(278,722,l),
(10,722,l),
(10,698,l),
(26,698,ls),
(60,698,o),
(78,676,o),
(78,634,cs)
);
}
);
userData = {
com.hugojourdan.ColorFlow = {
"0" = 0;
"1" = 0;
"10" = 0;
"11" = 0;
"2" = 0;
"3" = 0;
"4" = 0;
"5" = 0;
"6" = 0;
"7" = 0;
"8" = 0;
"9" = 0;
};
};
width = 880;
},
{
anchors = (
{
name = bottom;
pos = (357,0);
},
{
name = top;
pos = (357,722);
}
);
layerId = "452AD06C-4D92-427C-8B35-838986F56274";
shapes = (
{
closed = 1;
nodes = (
(152,618,l),
(233,673,o),
(311,699,o),
(379,699,cs),
(539,699,o),
(615,561,o),
(615,407,cs),
(615,224,o),
(511,21,o),
(332,21,cs),
(238,21,o),
(152,79,o),
(152,211,cs)
);
},
{
closed = 1;
nodes = (
(82,80,ls),
(82,-183,o),
(223,-381,o),
(559,-485,c),
(562,-477,l),
(261,-380,o),
(151,-180,o),
(151,29,cs),
(151,62,l),
(209,17,o),
(274,-4,o),
(340,-4,cs),
(565,-4,o),
(694,226,o),
(694,429,cs),
(694,595,o),
(607,740,o),
(426,740,cs),
(344,740,o),
(250,709,o),
(152,646,c),
(152,722,l),
(10,722,l),
(10,716,l),
(30,716,ls),
(66,716,o),
(82,697,o),
(82,652,cs)
);
}
);
userData = {
com.hugojourdan.ColorFlow = {
"0" = 0;
"1" = 0;
"10" = 0;
"11" = 0;
"2" = 0;
"3" = 0;
"4" = 0;
"5" = 0;
"6" = 0;
"7" = 0;
"8" = 0;
"9" = 0;
};
};
width = 734;
}
);
},
{
color = 5;
glyphname = Q;
kernLeft = O;
kernRight = Q;
lastChange = "2023-08-04 17:34:22 +0000";
layers = (
{
anchors = (
{
name = bottom;
pos = (436,0);
},
{
name = top;
pos = (436,722);
}
);
layerId = "452AD06C-4D92-427C-8B35-838986F56274";
shapes = (
{
closed = 1;
nodes = (
(1206,-252,o),
(1329,-209,o),
(1444,-119,c),
(1437,-111,l),
(1327,-192,o),
(1226,-225,o),
(1117,-225,cs),
(918,-225,o),
(660,-128,o),
(421,-17,c),
(635,-27,o),
(821,108,o),
(821,360,cs),
(821,612,o),
(634,738,o),
(436,738,cs),
(208,738,o),
(54,573,o),
(54,352,cs),
(54,110,o),
(237,3,o),
(387,-65,cs),
(637,-179,o),
(860,-252,o),
(1056,-252,cs)
);
},
{
closed = 1;
nodes = (
(249,6,o),
(123,200,o),
(123,376,cs),
(123,546,o),
(221,710,o),
(431,710,cs),
(636,710,o),
(748,526,o),
(748,346,cs),
(748,175,o),
(646,6,o),
(445,6,cs)
);
}
);
userData = {
com.hugojourdan.ColorFlow = {
"0" = 0;
"1" = 0;
"10" = 0;
"11" = 0;
"2" = 0;
"3" = 0;
"4" = 0;
"5" = 0;
"6" = 0;
"7" = 0;
"8" = 0;
"9" = 0;
};
};
width = 854;
},
{
anchors = (
{
name = bottom;
pos = (433,0);
},
{
name = top;
pos = (433,722);
}
);
layerId = m004;
shapes = (
{
closed = 1;
nodes = (
(1136,-325,o),
(1301,-262,o),
(1458,-125,c),
(1447,-112,l),
(1332,-199,o),
(1246,-223,o),
(1141,-223,cs),
(982,-223,o),
(791,-153,o),
(511,-7,c),
(688,38,o),
(779,200,o),
(779,361,cs),
(779,548,o),
(656,733,o),
(405,733,cs),
(145,733,o),
(29,537,o),
(30,336,cs),
(32,65,o),
(294,-74,o),
(502,-190,cs),
(668,-282,o),
(822,-325,o),
(959,-325,cs)
);
},
{
closed = 1;
nodes = (
(341,61,o),
(266,149,o),
(261,353,cs),
(256,564,o),
(332,654,o),
(399,654,cs),
(462,654,o),
(537,570,o),
(542,373,cs),
(546,155,o),
(471,61,o),
(405,61,cs)
);
}
);
userData = {
com.hugojourdan.ColorFlow = {
"0" = 0;
"1" = 0;
"10" = 0;
"11" = 0;
"2" = 0;
"3" = 0;
"4" = 0;
"5" = 0;
"6" = 0;
"7" = 0;
"8" = 0;
"9" = 0;
};
};
width = 818;
},
{
anchors = (
{
name = bottom;
pos = (434,0);
},
{
name = top;
pos = (434,722);
}
);
layerId = "D54810B1-F9A5-4F35-A1FF-AED0599B2373";
shapes = (
{
closed = 1;
nodes = (
(1168,-292,o),
(1312,-237,o),
(1449,-119,c),
(1441,-109,l),
(1330,-196,o),
(1237,-224,o),
(1130,-224,cs),
(953,-224,o),
(732,-142,o),
(470,-11,c),
(664,9,o),
(798,158,o),
(798,361,cs),
(798,577,o),
(646,735,o),
(419,735,cs),
(174,735,o),
(40,553,o),
(41,343,cs),
(42,85,o),
(268,-39,o),
(450,-133,cs),
(654,-235,o),
(839,-292,o),
(1003,-292,cs)
);
},
{
closed = 1;
nodes = (
(299,36,o),
(201,172,o),
(198,363,cs),
(196,556,o),
(282,679,o),
(414,679,cs),
(541,679,o),
(633,550,o),
(635,361,cs),
(638,164,o),
(550,36,o),
(423,36,cs)
);
}
);
userData = {
com.hugojourdan.ColorFlow = {
"0" = 0;
"1" = 0;
"10" = 0;
"11" = 0;
"2" = 0;
"3" = 0;
"4" = 0;
"5" = 0;
"6" = 0;
"7" = 0;
"8" = 0;
"9" = 0;
};
};
width = 829;
}
);
unicode = 81;
},
{
color = 4;
glyphname = Q.ss01;
kernLeft = O;
kernRight = O;
lastChange = "2023-08-04 17:34:22 +0000";
layers = (
{
anchors = (
{
name = bottom;
pos = (452,0);
},
{
name = top;
pos = (452,722);
}
);
layerId = "D54810B1-F9A5-4F35-A1FF-AED0599B2373";
shapes = (
{
closed = 1;
nodes = (
(673,-19,o),
(792,166,o),
(792,358,cs),
(792,542,o),
(673,735,o),
(418,735,cs),
(191,735,o),
(40,568,o),
(40,358,cs),
(40,137,o),
(181,-19,o),
(419,-19,cs)
);
},
{
closed = 1;
nodes = (
(297,36,o),
(209,168,o),
(203,361,cs),
(196,554,o),
(277,680,o),
(407,680,cs),
(532,680,o),
(621,550,o),
(627,360,cs),
(634,163,o),
(552,36,o),
(428,36,cs)
);
},
{
closed = 1;
nodes = (
(609,342,l),
(354,327,o),
(140,52,o),
(43,-235,c),
(64,-242,l),
(100,-169,o),
(158,-127,o),
(232,-127,cs),
(349,-127,o),
(526,-273,o),
(651,-273,cs),
(741,-273,o),
(793,-213,o),
(779,-71,c),
(763,-71,l),
(767,-138,o),
(739,-155,o),
(695,-155,cs),
(601,-155,o),
(434,-47,o),
(309,-47,cs),
(239,-47,o),
(157,-96,o),
(131,-122,c),
(127,-119,l),
(178,-7,o),
(376,132,o),
(511,172,c),
(488,249,o),
(540,317,o),
(608,327,c)
);
}
);
userData = {
com.hugojourdan.ColorFlow = {
"0" = 0;
"1" = 0;
"10" = 0;
"11" = 0;
"2" = 0;
"3" = 0;
"4" = 0;
"5" = 0;
"6" = 0;
"7" = 0;
"8" = 0;
"9" = 0;
};
};
width = 832;
},
{
anchors = (
{
name = bottom;
pos = (451,0);
},
{
name = top;
pos = (451,722);
}
);
layerId = m004;
name = Nera;
shapes = (
{
closed = 1;
nodes = (
(667,-20,o),
(779,161,o),
(779,356,cs),
(779,537,o),
(667,733,o),
(408,733,cs),
(148,733,o),
(30,537,o),
(30,356,cs),
(30,161,o),
(138,-20,o),
(408,-20,cs)
);
},
{
closed = 1;
nodes = (
(354,61,o),
(276,149,o),
(264,353,cs),
(252,564,o),
(325,654,o),
(392,654,cs),
(455,654,o),
(533,570,o),
(544,373,cs),
(556,155,o),
(484,61,o),
(418,61,cs)
);
},
{
closed = 1;
nodes = (
(518,358,l),
(240,346,o),
(70,99,o),
(10,-233,c),
(41,-243,l),
(71,-180,o),
(116,-133,o),
(194,-142,cs),
(303,-154,o),
(531,-311,o),
(656,-311,cs),
(746,-311,o),
(796,-213,o),
(784,-71,c),
(759,-71,l),
(761,-138,o),
(741,-157,o),
(693,-155,cs),
(602,-151,o),
(398,-32,o),
(262,-32,cs),
(189,-32,o),
(139,-66,o),
(94,-122,c),
(90,-119,l),
(148,33,o),
(299,109,o),
(408,127,c),
(392,246,o),
(432,320,o),
(517,339,c)
);
}
);
userData = {
com.hugojourdan.ColorFlow = {
"0" = 0;
"1" = 0;
"10" = 0;
"11" = 0;
"2" = 0;
"3" = 0;
"4" = 0;
"5" = 0;
"6" = 0;
"7" = 0;
"8" = 0;
"9" = 0;
};
};
width = 811;
},
{
anchors = (
{
name = bottom;
pos = (451,0);
},
{
name = top;
pos = (451,722);
}
);
layerId = "452AD06C-4D92-427C-8B35-838986F56274";
shapes = (
{
closed = 1;
nodes = (
(679,-17,o),
(805,171,o),
(805,360,cs),
(805,549,o),
(679,738,o),
(428,738,cs),
(241,738,o),
(50,605,o),
(50,360,cs),
(50,109,o),
(231,-17,o),
(429,-17,cs)
);
},
{
closed = 1;
nodes = (
(227,6,o),
(127,190,o),
(127,370,cs),
(127,541,o),
(216,712,o),
(422,712,cs),
(622,712,o),
(726,526,o),
(726,345,cs),
(726,173,o),
(632,6,o),
(437,6,cs)
);
},
{
closed = 1;
nodes = (
(671,261,l),
(444,235,o),
(176,79,o),
(63,-179,c),
(70,-181,l),
(130,-110,o),
(201,-77,o),
(278,-77,cs),
(439,-77,o),
(557,-220,o),
(694,-220,cs),
(760,-220,o),
(799,-176,o),
(801,-63,c),
(794,-63,l),
(793,-143,o),
(751,-172,o),
(699,-172,cs),
(584,-172,o),
(478,-39,o),
(311,-39,cs),
(245,-39,o),
(184,-64,o),
(117,-118,c),
(113,-115,l),
(203,41,o),
(439,152,o),
(579,169,c),
(577,209,o),
(600,240,o),
(672,255,c)
);
}
);
userData = {
com.hugojourdan.ColorFlow = {
"0" = 0;
"1" = 0;
"10" = 0;
"11" = 0;
"2" = 0;
"3" = 0;
"4" = 0;
"5" = 0;
"6" = 0;
"7" = 0;
"8" = 0;
"9" = 0;
};
};
width = 855;
}
);
},
{
color = 5;
glyphname = R;
kernLeft = D;
kernRight = R;
lastChange = "2023-08-04 17:34:22 +0000";
layers = (
{
anchors = (
{
name = bottom;
pos = (304,0);
},
{
name = top;
pos = (304,722);
}
);
layerId = "452AD06C-4D92-427C-8B35-838986F56274";
shapes = (
{
closed = 1;
nodes = (
(724,-140,l),
(608,-97,o),
(565,43,o),
(498,158,cs),
(451,238,o),
(393,306,o),
(284,324,c),
(284,322,l),
(460,331,o),
(544,442,o),
(543,546,cs),
(542,661,o),
(458,725,o),
(351,725,cs),
(295,725,o),
(233,708,o),
(172,671,c),
(172,722,l),
(30,722,l),
(30,716,l),
(50,716,ls),
(86,716,o),
(102,697,o),
(102,652,cs),
(102,84,ls),
(102,40,o),
(100,24,o),
(92,0,c),
(182,0,l),
(174,24,o),
(172,40,o),
(172,84,cs),
(172,331,l),
(257,310,o),
(334,302,o),
(438,128,cs),
(523,-14,o),
(533,-90,o),
(722,-147,c)
);
},
{
closed = 1;
nodes = (
(466,402,o),
(367,343,o),
(260,343,cs),
(231,343,o),
(199,348,o),
(172,356,c),
(172,653,l),
(224,682,o),
(270,694,o),
(309,694,cs),
(410,694,o),
(466,612,o),
(466,528,cs)
);
}
);
userData = {
com.hugojourdan.ColorFlow = {
"0" = 0;
"1" = 0;
"10" = 0;
"11" = 0;
"2" = 0;
"3" = 0;
"4" = 0;
"5" = 0;
"6" = 0;
"7" = 0;
"8" = 0;
"9" = 0;
};
};
width = 642;
},
{
anchors = (
{
name = bottom;
pos = (420,0);
},
{
name = top;
pos = (420,722);
}
);
layerId = m004;
shapes = (
{
closed = 1;
nodes = (
(840,-128,l),
(731,-96,o),
(708,167,o),
(605,264,cs),
(565,302,o),
(490,336,o),
(361,339,c),
(377,330,l),
(598,324,o),
(688,434,o),
(688,541,cs),
(688,638,o),
(615,732,o),
(483,732,cs),
(421,732,o),
(353,712,o),
(288,675,c),
(288,722,l),
(20,722,l),
(20,698,l),
(36,698,ls),
(70,698,o),
(88,676,o),
(88,634,cs),
(88,84,ls),
(88,48,o),
(82,24,o),
(68,0,c),
(308,0,l),
(294,24,o),
(288,48,o),
(288,84,cs),
(288,311,l),
(377,295,o),
(400,267,o),
(491,93,cs),
(568,-54,o),
(644,-102,o),
(834,-146,c)
);
},
{
closed = 1;
nodes = (
(488,430,o),
(444,391,o),
(389,378,cs),
(357,370,o),
(321,371,o),
(288,378,c),
(288,610,l),
(322,627,o),
(351,635,o),
(377,635,cs),
(451,635,o),
(488,571,o),
(488,508,cs)
);
}
);
userData = {
com.hugojourdan.ColorFlow = {
"0" = 0;
"1" = 0;
"10" = 0;
"11" = 0;
"2" = 0;
"3" = 0;
"4" = 0;
"5" = 0;
"6" = 0;
"7" = 0;
"8" = 0;
"9" = 0;
};
};
width = 768;
},
{
anchors = (
{
name = bottom;
pos = (367,0);
},
{
name = top;
pos = (367,722);
}
);
layerId = "D54810B1-F9A5-4F35-A1FF-AED0599B2373";
shapes = (
{
closed = 1;
nodes = (
(789,-133,l),
(675,-96,o),
(627,118,o),
(559,212,cs),
(510,279,o),
(446,318,o),
(311,332,c),
(311,325,l),
(534,332,o),
(624,446,o),
(624,544,cs),
(624,640,o),
(549,730,o),
(424,730,cs),
(366,730,o),
(300,712,o),
(235,673,c),
(235,722,l),
(24,722,l),
(24,706,l),
(42,706,ls),
(77,706,o),
(94,686,o),
(94,642,cs),
(94,84,ls),
(94,44,o),
(90,24,o),
(79,0,c),
(250,0,l),
(239,24,o),
(235,44,o),
(235,84,cs),
(235,320,l),
(323,304,o),
(370,283,o),
(467,109,cs),
(548,-36,o),
(594,-97,o),
(783,-146,c)
);
},
{
closed = 1;
nodes = (
(478,417,o),
(408,368,o),
(329,361,cs),
(299,357,o),
(266,360,o),
(235,367,c),
(235,629,l),
(278,652,o),
(314,662,o),
(346,662,cs),
(432,662,o),
(478,590,o),
(478,517,cs)
);
}
);
userData = {
com.hugojourdan.ColorFlow = {
"0" = 0;
"1" = 0;
"10" = 0;
"11" = 0;
"2" = 0;
"3" = 0;
"4" = 0;
"5" = 0;
"6" = 0;
"7" = 0;
"8" = 0;
"9" = 0;
};
};
width = 710.90625;
}
);
unicode = 82;
},
{
color = 4;
glyphname = R.ss01;
kernLeft = D;
kernRight = K;
lastChange = "2023-08-04 17:34:22 +0000";
layers = (
{
anchors = (
{
name = bottom;
pos = (315,0);
},
{
name = top;
pos = (315,722);
}
);
layerId = "D54810B1-F9A5-4F35-A1FF-AED0599B2373";
shapes = (
{
closed = 1;
nodes = (
(241,323,l),
(270,318,o),
(298,316,o),
(347,316,c),
(423,148,o),
(516,-12,o),
(777,-121,c),
(781,-108,l),
(626,-25,o),
(530,209,o),
(497,348,c),
(578,386,o),
(632,454,o),
(632,551,cs),
(632,643,o),
(564,728,o),
(438,728,cs),
(378,728,o),
(309,710,o),
(241,673,c),
(241,722,l),
(30,722,l),
(30,706,l),
(48,706,ls),
(83,706,o),
(100,686,o),
(100,642,cs),
(100,84,ls),
(100,44,o),
(96,24,o),
(85,0,c),
(256,0,l),
(245,24,o),
(241,44,o),
(241,84,cs)
);
},
{
closed = 1;
nodes = (
(241,629,l),
(281,652,o),
(319,663,o),
(353,663,cs),
(431,663,o),
(485,607,o),
(485,517,cs),
(485,409,o),
(403,359,o),
(308,359,cs),
(286,359,o),
(263,362,o),
(241,367,c)
);
}
);
userData = {
com.hugojourdan.ColorFlow = {
"0" = 0;
"1" = 0;
"10" = 0;
"11" = 0;
"2" = 0;
"3" = 0;
"4" = 0;
"5" = 0;
"6" = 0;
"7" = 0;
"8" = 0;
"9" = 0;
};
};
width = 681;
},
{
anchors = (
{
name = bottom;
pos = (309,0);
},
{
name = top;
pos = (309,722);
}
);
layerId = m004;
name = Nera;
shapes = (
{
closed = 1;
nodes = (
(288,311,l),
(327,308,o),
(363,307,o),
(395,309,c),
(441,102,o),
(529,-19,o),
(773,-110,c),
(785,-86,l),
(654,4,o),
(590,147,o),
(580,355,c),
(664,403,o),
(688,479,o),
(688,541,cs),
(688,638,o),
(615,732,o),
(483,732,cs),
(421,732,o),
(353,712,o),
(288,675,c),
(288,722,l),
(20,722,l),
(20,698,l),
(36,698,ls),
(70,698,o),
(88,676,o),
(88,634,cs),
(88,84,ls),
(88,48,o),
(82,24,o),
(68,0,c),
(308,0,l),
(294,24,o),
(288,48,o),
(288,84,cs)
);
},
{
closed = 1;
nodes = (
(288,610,l),
(322,627,o),
(351,635,o),
(377,635,cs),
(451,635,o),
(488,571,o),
(488,508,cs),
(488,413,o),
(421,372,o),
(341,372,cs),
(324,372,o),
(306,374,o),
(288,378,c)
);
}
);
userData = {
com.hugojourdan.ColorFlow = {
"0" = 0;
"1" = 0;
"10" = 0;
"11" = 0;
"2" = 0;
"3" = 0;
"4" = 0;
"5" = 0;
"6" = 0;
"7" = 0;
"8" = 0;
"9" = 0;
};
};
width = 735;
},
{
anchors = (
{
name = bottom;
pos = (309,0);
},
{
name = top;
pos = (309,722);
}
);
layerId = "452AD06C-4D92-427C-8B35-838986F56274";
shapes = (
{
closed = 1;
nodes = (
(172,331,l),
(218,322,o),
(259,319,o),
(296,321,c),
(359,120,o),
(450,-8,o),
(621,-69,c),
(624,-62,l),
(505,-13,o),
(416,140,o),
(376,333,c),
(491,365,o),
(545,452,o),
(545,538,cs),
(545,634,o),
(477,725,o),
(351,725,cs),
(295,725,o),
(233,708,o),
(172,671,c),
(172,722,l),
(30,722,l),
(30,716,l),
(50,716,ls),
(86,716,o),
(102,697,o),
(102,652,cs),
(102,84,ls),
(102,40,o),
(100,24,o),
(92,0,c),
(182,0,l),
(174,24,o),
(172,40,o),
(172,84,cs)
);
},
{
closed = 1;
nodes = (
(172,653,l),
(224,682,o),
(270,694,o),
(309,694,cs),
(410,694,o),
(466,612,o),
(466,527,cs),
(466,402,o),
(364,344,o),
(257,344,cs),
(229,344,o),
(200,348,o),
(172,356,c)
);
}
);
userData = {
com.hugojourdan.ColorFlow = {
"0" = 0;
"1" = 0;
"10" = 0;
"11" = 0;
"2" = 0;
"3" = 0;
"4" = 0;
"5" = 0;
"6" = 0;
"7" = 0;
"8" = 0;
"9" = 0;
};
};
width = 604;
}
);
},
{
color = 5;
glyphname = S;
kernLeft = S;
kernRight = S;
lastChange = "2023-08-04 17:34:22 +0000";
layers = (
{
anchors = (
{
name = bottom;
pos = (286,0);
},
{
name = top;
pos = (286,722);
}
);
layerId = "452AD06C-4D92-427C-8B35-838986F56274";
shapes = (
{
closed = 1;
nodes = (
(85,30,o),
(189,-16,o),
(287,-16,cs),
(413,-16,o),
(537,52,o),
(535,190,cs),
(533,301,o),
(428,356,o),
(322,403,cs),
(210,453,o),
(102,488,o),
(102,597,cs),
(102,658,o),
(153,704,o),
(240,705,cs),
(320,706,o),
(379,676,o),
(423,611,cs),
(447,574,o),
(466,527,o),
(481,467,c),
(489,469,l),
(451,682,l),
(393,713,o),
(327,729,o),
(256,729,cs),
(155,729,o),
(62,677,o),
(62,570,cs),
(62,429,o),
(170,390,o),
(278,343,cs),
(380,299,o),
(479,252,o),
(475,140,cs),
(472,52,o),
(399,9,o),
(313,9,cs),
(217,9,o),
(148,53,o),
(108,121,cs),
(80,168,o),
(63,227,o),
(63,290,c),
(54,291,l),
(40,96,l)
);
}
);
userData = {
com.hugojourdan.ColorFlow = {
"0" = 0;
"1" = 0;
"10" = 0;
"11" = 0;
"2" = 0;
"3" = 0;
"4" = 0;
"5" = 0;
"6" = 0;
"7" = 0;
"8" = 0;
"9" = 0;
};
};
width = 575;
},
{
anchors = (
{
name = bottom;
pos = (311,0);
},
{
name = top;
pos = (331,732);
}
);
layerId = m004;
shapes = (
{
closed = 1;
nodes = (
(117,5,o),
(236,-29,o),
(348,-29,cs),
(521,-29,o),
(676,50,o),
(678,241,cs),
(679,357,o),
(594,411,o),
(483,450,cs),
(358,493,o),
(250,518,o),
(251,587,cs),
(252,633,o),
(304,654,o),
(363,654,cs),
(438,654,o),
(522,617,o),
(522,528,cs),
(522,512,o),
(520,495,o),
(515,475,c),
(541,464,l),
(655,662,l),
(579,714,o),
(476,742,o),
(376,744,cs),
(221,746,o),
(84,685,o),
(84,524,cs),
(84,404,o),
(167,355,o),
(277,318,cs),
(411,273,o),
(494,242,o),
(496,169,cs),
(498,97,o),
(440,63,o),
(371,63,cs),
(291,63,o),
(198,110,o),
(173,200,cs),
(163,238,o),
(166,281,o),
(183,322,c),
(156,337,l),
(30,66,l)
);
}
);
userData = {
com.hugojourdan.ColorFlow = {
"0" = 0;
"1" = 0;
"10" = 0;
"11" = 0;
"2" = 0;
"3" = 0;
"4" = 0;
"5" = 0;
"6" = 0;
"7" = 0;
"8" = 0;
"9" = 0;
};
};
width = 711;
},
{
anchors = (
{
name = bottom;
pos = (300,0);
},
{
name = top;
pos = (300,727);
}
);
layerId = "D54810B1-F9A5-4F35-A1FF-AED0599B2373";
shapes = (
{
closed = 1;
nodes = (
(103,16,o),
(215,-23,o),
(320,-23,cs),
(472,-23,o),
(616,57,o),
(612,215,cs),
(609,331,o),
(524,386,o),
(413,428,cs),
(292,474,o),
(184,502,o),
(183,592,cs),
(182,643,o),
(236,677,o),
(307,677,cs),
(389,678,o),
(441,647,o),
(469,599,cs),
(490,563,o),
(498,518,o),
(497,470,c),
(517,466,l),
(563,671,l),
(495,714,o),
(408,736,o),
(322,737,cs),
(191,738,o),
(68,680,o),
(68,543,cs),
(68,414,o),
(176,369,o),
(285,327,cs),
(401,282,o),
(485,248,o),
(486,156,cs),
(487,77,o),
(421,39,o),
(345,39,cs),
(257,39,o),
(175,84,o),
(144,164,cs),
(125,206,o),
(119,256,o),
(128,310,c),
(110,316,l),
(35,80,l)
);
}
);
userData = {
com.hugojourdan.ColorFlow = {
"0" = 0;
"1" = 0;
"10" = 0;
"11" = 0;
"2" = 0;
"3" = 0;
"4" = 0;
"5" = 0;
"6" = 0;
"7" = 0;
"8" = 0;
"9" = 0;
};
};
width = 647;
}
);
unicode = 83;
},
{
color = 5;
glyphname = S.ss01;
kernLeft = S;
kernRight = S;
lastChange = "2023-08-04 17:34:22 +0000";
layers = (
{
anchors = (
{
name = bottom;
pos = (294,0);
},
{
name = top;
pos = (294,722);
}
);
layerId = "452AD06C-4D92-427C-8B35-838986F56274";
shapes = (
{
closed = 1;
nodes = (
(413,-20,o),
(537,55,o),
(537,192,cs),
(537,304,o),
(447,357,o),
(342,402,cs),
(228,450,o),
(116,485,o),
(126,603,cs),
(132,675,o),
(205,706,o),
(275,706,cs),
(418,707,o),
(448,605,o),
(398,476,c),
(405,472,l),
(486,630,l),
(436,700,o),
(355,731,o),
(281,731,cs),
(179,731,o),
(88,675,o),
(82,577,cs),
(74,445,o),
(184,389,o),
(293,339,cs),
(390,295,o),
(473,249,o),
(473,145,cs),
(473,57,o),
(401,8,o),
(312,8,cs),
(199,8,o),
(115,72,o),
(115,180,cs),
(115,232,o),
(125,284,o),
(147,342,c),
(139,346,l),
(35,105,l),
(78,32,o),
(183,-12,o),
(283,-16,cs)
);
}
);
userData = {
com.hugojourdan.ColorFlow = {
"0" = 0;
"1" = 0;
"10" = 0;
"11" = 0;
"2" = 0;
"3" = 0;
"4" = 0;
"5" = 0;
"6" = 0;
"7" = 0;
"8" = 0;
"9" = 0;
};
};
width = 572;
},
{
anchors = (
{
name = bottom;
pos = (305,0);
},
{
name = top;
pos = (305,732);
}
);
layerId = m004;
shapes = (
{
closed = 1;
nodes = (
(576,-31,o),
(678,95,o),
(677,244,cs),
(676,360,o),
(600,416,o),
(492,453,cs),
(362,498,o),
(243,520,o),
(241,587,cs),
(239,635,o),
(291,656,o),
(354,655,cs),
(466,654,o),
(544,559,o),
(587,473,c),
(612,479,l),
(609,682,l),
(540,723,o),
(448,745,o),
(359,745,cs),
(201,745,o),
(61,679,o),
(64,521,cs),
(66,401,o),
(158,349,o),
(269,310,cs),
(397,265,o),
(490,245,o),
(493,169,cs),
(497,109,o),
(437,75,o),
(356,76,cs),
(273,77,o),
(210,109,o),
(165,152,cs),
(104,209,o),
(75,285,o),
(69,327,c),
(46,329,l),
(30,52,l),
(117,-3,o),
(231,-25,o),
(337,-27,cs)
);
}
);
userData = {
com.hugojourdan.ColorFlow = {
"0" = 0;
"1" = 0;
"10" = 0;
"11" = 0;
"2" = 0;
"3" = 0;
"4" = 0;
"5" = 0;
"6" = 0;
"7" = 0;
"8" = 0;
"9" = 0;
};
};
width = 707;
},
{
anchors = (
{
name = bottom;
pos = (300,0);
},
{
name = top;
pos = (300,727);
}
);
layerId = "D54810B1-F9A5-4F35-A1FF-AED0599B2373";
shapes = (
{
closed = 1;
nodes = (
(502,-26,o),
(614,77,o),
(614,220,cs),
(613,335,o),
(531,389,o),
(424,430,cs),
(301,476,o),
(185,504,o),
(189,594,cs),
(191,653,o),
(246,682,o),
(312,683,cs),
(436,684,o),
(494,625,o),
(490,477,c),
(509,475,l),
(559,667,l),
(493,717,o),
(410,739,o),
(324,739,cs),
(191,739,o),
(73,677,o),
(72,546,cs),
(70,421,o),
(170,367,o),
(280,323,cs),
(394,279,o),
(482,247,o),
(484,158,cs),
(486,85,o),
(421,45,o),
(336,45,cs),
(221,46,o),
(156,99,o),
(126,170,cs),
(104,219,o),
(99,277,o),
(104,334,c),
(88,337,l),
(32,76,l),
(99,13,o),
(209,-19,o),
(313,-22,cs)
);
}
);
userData = {
com.hugojourdan.ColorFlow = {
"0" = 0;
"1" = 0;
"10" = 0;
"11" = 0;
"2" = 0;
"3" = 0;
"4" = 0;
"5" = 0;
"6" = 0;
"7" = 0;
"8" = 0;
"9" = 0;
};
};
width = 645.82812;
}
);
},
{
color = 5;
glyphname = Germandbls;
lastChange = "2023-08-04 17:34:22 +0000";
layers = (
{
anchors = (
{
name = bottom;
pos = (302,0);
},
{
name = top;
pos = (302,722);
}
);
layerId = "452AD06C-4D92-427C-8B35-838986F56274";
shapes = (
{
closed = 1;
nodes = (
(64,-134,l),
(92,-87,o),
(131,0,o),
(174,0,c),
(174,704,l),
(333,704,ls),
(404,704,o),
(440,653,o),
(440,576,cs),
(440,488,o),
(379,419,o),
(281,394,c),
(281,388,l),
(392,379,o),
(477,283,o),
(477,166,cs),
(477,79,o),
(414,10,o),
(355,10,cs),
(306,10,o),
(260,56,o),
(244,205,c),
(234,204,l),
(238,112,o),
(231,88,o),
(207,57,c),
(239,0,o),
(295,-15,o),
(350,-15,cs),
(449,-15,o),
(553,58,o),
(553,186,cs),
(553,280,o),
(488,375,o),
(349,394,c),
(349,399,l),
(462,422,o),
(515,500,o),
(515,573,cs),
(515,651,o),
(456,722,o),
(328,722,cs),
(32,722,l),
(32,716,l),
(52,716,ls),
(88,716,o),
(104,697,o),
(104,652,cs),
(104,40,ls),
(104,-21,o),
(96,-61,o),
(56,-130,c)
);
}
);
userData = {
com.hugojourdan.ColorFlow = {
"0" = 0;
"1" = 0;
"10" = 0;
"11" = 0;
"2" = 0;
"3" = 0;
"4" = 0;
"5" = 0;
"6" = 0;
"7" = 0;
"8" = 0;
"9" = 0;
};
};
width = 603;
},
{
anchors = (
{
name = bottom;
pos = (418,0);
},
{
name = top;
pos = (418,722);
}
);
layerId = m004;
shapes = (
{
closed = 1;
nodes = (
(57,-201,l),
(92,-148,o),
(188,-25,o),
(288,-25,c),
(288,652,l),
(439,652,ls),
(540,652,o),
(571,604,o),
(572,538,cs),
(573,472,o),
(528,405,o),
(467,370,c),
(467,364,l),
(583,284,o),
(617,155,o),
(612,99,cs),
(609,69,o),
(592,52,o),
(568,52,cs),
(519,52,o),
(439,138,o),
(407,284,c),
(385,282,l),
(391,170,o),
(354,105,o),
(319,52,c),
(375,-12,o),
(436,-30,o),
(533,-30,cs),
(674,-30,o),
(806,52,o),
(806,199,cs),
(806,296,o),
(731,386,o),
(575,381,c),
(575,386,l),
(687,423,o),
(748,496,o),
(748,566,cs),
(748,667,o),
(687,722,o),
(534,722,cs),
(20,722,l),
(20,698,l),
(36,698,ls),
(70,698,o),
(88,676,o),
(88,634,cs),
(88,49,ls),
(88,-55,o),
(86,-122,o),
(37,-188,c)
);
}
);
userData = {
com.hugojourdan.ColorFlow = {
"0" = 0;
"1" = 0;
"10" = 0;
"11" = 0;
"2" = 0;
"3" = 0;
"4" = 0;
"5" = 0;
"6" = 0;
"7" = 0;
"8" = 0;
"9" = 0;
};
};
width = 836;
},
{
anchors = (
{
name = bottom;
pos = (365,0);
},
{
name = top;
pos = (365,722);
}
);
layerId = "D54810B1-F9A5-4F35-A1FF-AED0599B2373";
shapes = (
{
closed = 1;
nodes = (
(60,-171,l),
(92,-120,o),
(162,-14,o),
(236,-14,c),
(236,676,l),
(391,676,ls),
(481,676,o),
(515,629,o),
(512,555,cs),
(509,479,o),
(460,411,o),
(383,381,c),
(383,375,l),
(496,327,o),
(554,213,o),
(551,129,cs),
(549,74,o),
(511,33,o),
(471,33,cs),
(422,33,o),
(358,101,o),
(333,248,c),
(317,247,l),
(322,144,o),
(298,97,o),
(268,54,c),
(313,-7,o),
(372,-23,o),
(450,-23,cs),
(572,-23,o),
(691,55,o),
(691,193,cs),
(691,289,o),
(621,381,o),
(473,387,c),
(473,392,l),
(585,423,o),
(642,498,o),
(642,569,cs),
(642,660,o),
(582,722,o),
(441,722,cs),
(88,722,l),
(88,721,l),
(90,721,ls),
(93,721,o),
(95,719,o),
(95,715,cs),
(95,45,ls),
(95,-40,o),
(91,-94,o),
(46,-162,c)
);
}
);
userData = {
com.hugojourdan.ColorFlow = {
"0" = 0;
"1" = 0;
"10" = 0;
"11" = 0;
"2" = 0;
"3" = 0;
"4" = 0;
"5" = 0;
"6" = 0;
"7" = 0;
"8" = 0;
"9" = 0;
};
};
width = 731;
}
);
metricRight = O;
unicode = 7838;
},
{
color = 5;
glyphname = T;
kernLeft = T;
kernRight = T;
lastChange = "2023-08-04 17:34:22 +0000";
layers = (
{
anchors = (
{
name = bottom;
pos = (323,0);
},
{
name = center;
pos = (323,361);
},
{
name = top;
pos = (323,722);
}
);
layerId = "452AD06C-4D92-427C-8B35-838986F56274";
shapes = (
{
closed = 1;
nodes = (
(368,0,l),
(360,24,o),
(358,40,o),
(358,84,cs),
(358,698,l),
(530,698,o),
(576,678,o),
(605,568,c),
(613,570,l),
(598,722,l),
(48,722,l),
(32,570,l),
(40,568,l),
(73,678,o),
(113,698,o),
(288,698,c),
(288,84,ls),
(288,40,o),
(286,24,o),
(278,0,c)
);
}
);
userData = {
com.hugojourdan.ColorFlow = {
"0" = 0;
"1" = 0;
"10" = 0;
"11" = 0;
"2" = 0;
"3" = 0;
"4" = 0;
"5" = 0;
"6" = 0;
"7" = 0;
"8" = 0;
"9" = 0;
};
};
width = 645;
},
{
anchors = (
{
name = bottom;
pos = (303,0);
},
{
name = center;
pos = (303,361);
},
{
name = top;
pos = (303,722);
}
);
layerId = m004;
shapes = (
{
closed = 1;
nodes = (
(488,0,l),
(474,24,o),
(468,48,o),
(468,84,cs),
(468,652,l),
(550,650,o),
(662,555,o),
(681,395,c),
(703,398,l),
(658,722,l),
(78,722,l),
(32,398,l),
(54,395,l),
(77,555,o),
(183,650,o),
(268,652,c),
(268,83,ls),
(268,47,o),
(262,23,o),
(248,-1,c)
);
}
);
userData = {
com.hugojourdan.ColorFlow = {
"0" = 0;
"1" = 0;
"10" = 0;
"11" = 0;
"2" = 0;
"3" = 0;
"4" = 0;
"5" = 0;
"6" = 0;
"7" = 0;
"8" = 0;
"9" = 0;
};
};
width = 735;
},
{
anchors = (
{
name = bottom;
pos = (312,0);
},
{
name = center;
pos = (312,361);
},
{
name = top;
pos = (312,722);
}
);
layerId = "D54810B1-F9A5-4F35-A1FF-AED0599B2373";
shapes = (
{
closed = 1;
nodes = (
(433,0,l),
(422,24,o),
(418,44,o),
(418,84,cs),
(418,680,l),
(541,674,o),
(623,610,o),
(647,473,c),
(662,476,l),
(631,722,l),
(64,722,l),
(32,476,l),
(47,473,l),
(75,610,o),
(151,674,o),
(277,680,c),
(277,83,ls),
(277,43,o),
(273,23,o),
(262,-1,c)
);
}
);
userData = {
com.hugojourdan.ColorFlow = {
"0" = 0;
"1" = 0;
"10" = 0;
"11" = 0;
"2" = 0;
"3" = 0;
"4" = 0;
"5" = 0;
"6" = 0;
"7" = 0;
"8" = 0;
"9" = 0;
};
};
width = 694.21875;
}
);
unicode = 84;
},
{
color = 4;
glyphname = T.ss01;
kernLeft = O;
kernRight = C;
lastChange = "2023-08-04 17:34:22 +0000";
layers = (
{
anchors = (
{
name = bottom;
pos = (413,0);
},
{
name = center;
pos = (413,361);
},
{
name = top;
pos = (413,722);
}
);
layerId = "D54810B1-F9A5-4F35-A1FF-AED0599B2373";
shapes = (
{
closed = 1;
nodes = (
(672,682,o),
(728,658,o),
(746,572,c),
(762,576,l),
(747,655,o),
(743,704,o),
(743,732,c),
(702,725,o),
(663,722,o),
(616,722,cs),
(173,722,ls),
(117,722,o),
(95,722,o),
(72,731,c),
(70,693,o),
(60,653,o),
(30,566,c),
(44,559,l),
(78,650,o),
(124,672,o),
(262,672,cs),
(361,672,l),
(137,612,o),
(32,458,o),
(32,303,cs),
(32,127,o),
(155,-19,o),
(403,-19,cs),
(504,-19,o),
(605,7,o),
(683,65,c),
(709,348,l),
(696,349,l),
(664,132,o),
(552,23,o),
(416,23,cs),
(283,23,o),
(203,161,o),
(203,309,cs),
(203,487,o),
(320,682,o),
(581,682,cs)
);
}
);
userData = {
com.hugojourdan.ColorFlow = {
"0" = 0;
"1" = 0;
"10" = 0;
"11" = 0;
"2" = 0;
"3" = 0;
"4" = 0;
"5" = 0;
"6" = 0;
"7" = 0;
"8" = 0;
"9" = 0;
};
};
width = 782;
},
{
anchors = (
{
name = bottom;
pos = (419,0);
},
{
name = center;
pos = (419,361);
},
{
name = top;
pos = (419,722);
}
);
layerId = m004;
name = Nera;
shapes = (
{
closed = 1;
nodes = (
(715,662,o),
(746,642,o),
(765,564,c),
(784,569,l),
(772,640,o),
(764,694,o),
(764,732,c),
(724,725,o),
(683,722,o),
(637,722,cs),
(212,722,ls),
(159,722,o),
(107,724,o),
(82,732,c),
(78,688,o),
(68,654,o),
(30,565,c),
(51,555,l),
(101,643,o),
(136,652,o),
(242,652,cs),
(379,652,l),
(151,591,o),
(46,440,o),
(46,296,cs),
(46,78,o),
(242,-18,o),
(435,-18,cs),
(542,-18,o),
(643,11,o),
(714,65,c),
(729,350,l),
(704,352,l),
(675,125,o),
(579,46,o),
(461,46,cs),
(333,46,o),
(260,168,o),
(260,303,cs),
(260,472,o),
(374,662,o),
(637,662,cs)
);
}
);
userData = {
com.hugojourdan.ColorFlow = {
"0" = 0;
"1" = 0;
"10" = 0;
"11" = 0;
"2" = 0;
"3" = 0;
"4" = 0;
"5" = 0;
"6" = 0;
"7" = 0;
"8" = 0;
"9" = 0;
};
};
width = 804;
},
{
anchors = (
{
name = bottom;
pos = (376,0);
},
{
name = center;
pos = (376,361);
},
{
name = top;
pos = (376,722);
}
);
layerId = "452AD06C-4D92-427C-8B35-838986F56274";
shapes = (
{
closed = 1;
nodes = (
(679,707,o),
(700,676,o),
(713,619,c),
(719,621,l),
(710,674,o),
(708,701,o),
(708,724,c),
(682,723,o),
(653,722,o),
(603,722,cs),
(146,722,ls),
(117,722,o),
(89,722,o),
(63,732,c),
(59,701,o),
(48,664,o),
(30,607,c),
(36,605,l),
(72,698,o),
(107,706,o),
(238,706,cs),
(424,706,l),
(214,668,o),
(41,512,o),
(41,303,cs),
(41,136,o),
(160,-17,o),
(380,-17,cs),
(463,-17,o),
(552,8,o),
(631,58,c),
(653,260,l),
(644,261,l),
(615,93,o),
(493,9,o),
(374,9,cs),
(205,9,o),
(118,156,o),
(118,312,cs),
(118,594,o),
(316,708,o),
(603,708,cs)
);
}
);
userData = {
com.hugojourdan.ColorFlow = {
"0" = 0;
"1" = 0;
"10" = 0;
"11" = 0;
"2" = 0;
"3" = 0;
"4" = 0;
"5" = 0;
"6" = 0;
"7" = 0;
"8" = 0;
"9" = 0;
};
};
width = 739;
}
);
},
{
color = 5;
glyphname = U;
kernLeft = U;
kernRight = U;
lastChange = "2023-08-04 17:34:22 +0000";
layers = (
{
anchors = (
{
name = bottom;
pos = (309,0);
},
{
name = ogonek;
pos = (580,10);
},
{
name = top;
pos = (309,722);
},
{
name = topright;
pos = (628,722);
}
);
layerId = "452AD06C-4D92-427C-8B35-838986F56274";
shapes = (
{
closed = 1;
nodes = (
(439,-18,o),
(566,47,o),
(566,273,cs),
(566,638,ls),
(566,682,o),
(568,698,o),
(576,722,c),
(454,722,l),
(454,716,l),
(478,716,ls),
(521,716,o),
(540,697,o),
(540,652,cs),
(540,267,ls),
(540,74,o),
(433,25,o),
(330,25,cs),
(233,25,o),
(135,60,o),
(135,240,cs),
(135,652,ls),
(135,697,o),
(156,716,o),
(203,716,cs),
(229,716,l),
(229,722,l),
(55,722,l),
(63,698,o),
(65,682,o),
(65,638,cs),
(65,251,ls),
(65,39,o),
(193,-18,o),
(314,-18,cs)
);
}
);
userData = {
com.hugojourdan.ColorFlow = {
"0" = 0;
"1" = 0;
"10" = 0;
"11" = 0;
"2" = 0;
"3" = 0;
"4" = 0;
"5" = 0;
"6" = 0;
"7" = 0;
"8" = 0;
"9" = 0;
};
};
width = 637;
},
{
anchors = (
{
name = bottom;
pos = (344,0);
},
{
name = ogonek;
pos = (615,10);
},
{
name = top;
pos = (344,722);
},
{
name = topright;
pos = (663,722);
}
);
layerId = m004;
shapes = (
{
closed = 1;
nodes = (
(558,-30,o),
(659,94,o),
(659,279,cs),
(659,638,ls),
(659,674,o),
(665,698,o),
(679,722,c),
(447,722,l),
(447,698,l),
(467,698,ls),
(507,698,o),
(529,676,o),
(529,634,cs),
(529,217,ls),
(529,138,o),
(480,77,o),
(396,77,cs),
(316,77,o),
(250,112,o),
(250,208,cs),
(250,634,ls),
(250,676,o),
(272,698,o),
(312,698,cs),
(332,698,l),
(332,722,l),
(30,722,l),
(44,698,o),
(50,674,o),
(50,638,cs),
(50,250,ls),
(50,33,o),
(201,-28,o),
(357,-29,cs)
);
}
);
userData = {
com.hugojourdan.ColorFlow = {
"0" = 0;
"1" = 0;
"10" = 0;
"11" = 0;
"2" = 0;
"3" = 0;
"4" = 0;
"5" = 0;
"6" = 0;
"7" = 0;
"8" = 0;
"9" = 0;
};
};
width = 709;
},
{
anchors = (
{
name = bottom;
pos = (328,0);
},
{
name = ogonek;
pos = (599,10);
},
{
name = top;
pos = (328,722);
},
{
name = topright;
pos = (647,722);
}
);
layerId = "D54810B1-F9A5-4F35-A1FF-AED0599B2373";
shapes = (
{
closed = 1;
nodes = (
(504,-25,o),
(617,73,o),
(617,276,cs),
(617,638,ls),
(617,678,o),
(621,698,o),
(632,722,c),
(450,722,l),
(450,706,l),
(472,706,ls),
(514,706,o),
(534,686,o),
(534,642,cs),
(534,240,ls),
(534,109,o),
(459,53,o),
(366,53,cs),
(278,53,o),
(198,88,o),
(198,223,cs),
(198,642,ls),
(198,686,o),
(219,706,o),
(263,706,cs),
(285,706,l),
(285,722,l),
(42,722,l),
(53,698,o),
(57,678,o),
(57,638,cs),
(57,250,ls),
(57,36,o),
(197,-23,o),
(338,-24,cs)
);
}
);
userData = {
com.hugojourdan.ColorFlow = {
"0" = 0;
"1" = 0;
"10" = 0;
"11" = 0;
"2" = 0;
"3" = 0;
"4" = 0;
"5" = 0;
"6" = 0;
"7" = 0;
"8" = 0;
"9" = 0;
};
};
width = 676.375;
}
);
unicode = 85;
},
{
color = 4;
glyphname = U.ss01;
kernLeft = O;
kernRight = N;
lastChange = "2023-08-04 17:34:22 +0000";
layers = (
{
anchors = (
{
name = bottom;
pos = (408,0);
},
{
name = ogonek;
pos = (727,10);
},
{
name = top;
pos = (408,722);
},
{
name = topright;
pos = (787,722);
}
);
layerId = "D54810B1-F9A5-4F35-A1FF-AED0599B2373";
shapes = (
{
closed = 1;
nodes = (
(40,139,o),
(155,-7,o),
(355,-7,cs),
(432,-7,o),
(511,17,o),
(578,68,c),
(577,34,o),
(574,19,o),
(565,0,c),
(769,0,l),
(769,16,l),
(725,16,o),
(719,31,o),
(719,114,cs),
(719,607,ls),
(719,661,o),
(721,692,o),
(728,722,c),
(488,722,l),
(488,706,l),
(511,706,ls),
(557,706,o),
(579,686,o),
(579,642,cs),
(579,178,l),
(541,86,o),
(473,41,o),
(404,41,cs),
(302,41,o),
(208,144,o),
(208,349,cs),
(208,515,o),
(278,694,o),
(426,768,c),
(420,782,l),
(153,669,o),
(40,478,o),
(40,313,cs)
);
}
);
userData = {
com.hugojourdan.ColorFlow = {
"0" = 0;
"1" = 0;
"10" = 0;
"11" = 0;
"2" = 0;
"3" = 0;
"4" = 0;
"5" = 0;
"6" = 0;
"7" = 0;
"8" = 0;
"9" = 0;
};
};
width = 789;
},
{
anchors = (
{
name = bottom;
pos = (415,0);
},
{
name = ogonek;
pos = (734,10);
},
{
name = top;
pos = (415,722);
},
{
name = topright;
pos = (794,722);
}
);
layerId = m004;
name = Nera;
shapes = (
{
closed = 1;
nodes = (
(40,105,o),
(201,-16,o),
(374,-16,cs),
(451,-16,o),
(531,9,o),
(599,60,c),
(599,31,o),
(597,17,o),
(591,0,c),
(850,0,l),
(850,25,l),
(800,32,o),
(800,52,o),
(800,160,cs),
(800,607,ls),
(800,661,o),
(802,692,o),
(808,722,c),
(512,722,l),
(512,698,l),
(532,698,ls),
(577,698,o),
(600,676,o),
(600,634,cs),
(600,185,l),
(561,96,o),
(495,49,o),
(430,49,cs),
(335,49,o),
(243,147,o),
(243,353,cs),
(243,518,o),
(306,700,o),
(445,759,c),
(437,782,l),
(167,702,o),
(40,497,o),
(40,316,cs)
);
}
);
userData = {
com.hugojourdan.ColorFlow = {
"0" = 0;
"1" = 0;
"10" = 0;
"11" = 0;
"2" = 0;
"3" = 0;
"4" = 0;
"5" = 0;
"6" = 0;
"7" = 0;
"8" = 0;
"9" = 0;
};
};
width = 880;
},
{
anchors = (
{
name = bottom;
pos = (381,0);
},
{
name = ogonek;
pos = (699,10);
},
{
name = top;
pos = (380,722);
},
{
name = topright;
pos = (759,722);
}
);
layerId = "452AD06C-4D92-427C-8B35-838986F56274";
shapes = (
{
closed = 1;
nodes = (
(40,136,o),
(162,-9,o),
(332,-9,cs),
(411,-9,o),
(497,23,o),
(569,92,c),
(568,40,o),
(566,22,o),
(555,0,c),
(689,0,l),
(689,7,l),
(645,7,o),
(639,22,o),
(639,105,cs),
(639,607,ls),
(639,661,o),
(641,692,o),
(648,722,c),
(475,722,l),
(475,716,l),
(501,716,ls),
(548,716,o),
(569,697,o),
(569,652,cs),
(569,129,l),
(512,60,o),
(442,29,o),
(374,29,cs),
(216,29,o),
(116,174,o),
(116,346,cs),
(116,502,o),
(199,679,o),
(397,790,c),
(394,796,l),
(140,664,o),
(40,476,o),
(40,315,cs)
);
}
);
userData = {
com.hugojourdan.ColorFlow = {
"0" = 0;
"1" = 0;
"10" = 0;
"11" = 0;
"2" = 0;
"3" = 0;
"4" = 0;
"5" = 0;
"6" = 0;
"7" = 0;
"8" = 0;
"9" = 0;
};
};
width = 709;
}
);
},
{
color = 5;
glyphname = V;
kernLeft = V;
kernRight = V;
lastChange = "2023-08-04 17:34:22 +0000";
layers = (
{
anchors = (
{
name = bottom;
pos = (335,0);
},
{
name = top;
pos = (335,722);
}
);
layerId = "452AD06C-4D92-427C-8B35-838986F56274";
shapes = (
{
closed = 1;
nodes = (
(366,-12,l),
(371,-12,l),
(621,653,ls),
(637,695,o),
(640,715,o),
(668,715,cs),
(684,715,l),
(684,722,l),
(580,722,l),
(593,692,o),
(591,659,o),
(570,602,cs),
(455,295,ls),
(402,153,o),
(390,128,o),
(386,114,c),
(379,136,o),
(368,166,o),
(358,190,cs),
(171,635,ls),
(154,676,o),
(147,699,o),
(146,722,c),
(10,722,l),
(10,715,l),
(30,715,ls),
(66,715,o),
(70,689,o),
(91,640,cs)
);
}
);
userData = {
com.hugojourdan.ColorFlow = {
"0" = 0;
"1" = 0;
"10" = 0;
"11" = 0;
"2" = 0;
"3" = 0;
"4" = 0;
"5" = 0;
"6" = 0;
"7" = 0;
"8" = 0;
"9" = 0;
};
};
width = 694;
},
{
anchors = (
{
name = bottom;
pos = (410,0);
},
{
name = top;
pos = (410,722);
}
);
guides = (
{
angle = -66.2069;
pos = (463,337);
},
{
angle = 246.2069;
pos = (697,581);
}
);
layerId = m004;
shapes = (
{
closed = 1;
nodes = (
(374,0,l),
(447,0,l),
(710,635,ls),
(725,674,o),
(737,698,o),
(774,698,cs),
(792,698,l),
(792,722,l),
(626,722,l),
(641,697,o),
(643,655,o),
(615,587,cs),
(525,364,ls),
(500,302,o),
(495,292,o),
(490,274,c),
(485,286,o),
(473,315,o),
(463,337,cs),
(370,549,ls),
(327,646,o),
(319,675,o),
(319,722,c),
(10,722,l),
(10,698,l),
(28,698,ls),
(65,698,o),
(76,674,o),
(93,636,cs)
);
}
);
userData = {
com.hugojourdan.ColorFlow = {
"0" = 0;
"1" = 0;
"10" = 0;
"11" = 0;
"2" = 0;
"3" = 0;
"4" = 0;
"5" = 0;
"6" = 0;
"7" = 0;
"8" = 0;
"9" = 0;
};
};
width = 802;
},
{
anchors = (
{
name = bottom;
pos = (376,0);
},
{
name = top;
pos = (376,722);
}
);
layerId = "D54810B1-F9A5-4F35-A1FF-AED0599B2373";
shapes = (
{
closed = 1;
nodes = (
(370,-5,l),
(412,-5,l),
(669,643,ls),
(685,684,o),
(694,706,o),
(733,706,cs),
(748,706,l),
(748,722,l),
(617,722,l),
(623,695,o),
(618,657,o),
(594,594,cs),
(493,333,ls),
(455,234,o),
(447,218,o),
(443,202,c),
(437,218,o),
(425,247,o),
(415,270,cs),
(279,588,ls),
(248,660,o),
(240,688,o),
(240,722,c),
(10,722,l),
(10,706,l),
(29,706,ls),
(66,706,o),
(73,680,o),
(92,636,cs)
);
}
);
userData = {
com.hugojourdan.ColorFlow = {
"0" = 0;
"1" = 0;
"10" = 0;
"11" = 0;
"2" = 0;
"3" = 0;
"4" = 0;
"5" = 0;
"6" = 0;
"7" = 0;
"8" = 0;
"9" = 0;
};
};
width = 763;
}
);
unicode = 86;
},
